<?xml version="1.0" encoding="utf-8"?>
<!-- Generator: Adobe Illustrator 17.0.0, SVG Export Plug-In . SVG Version: 6.00 Build 0)  -->
<!DOCTYPE svg PUBLIC "-//W3C//DTD SVG 1.1//EN" "http://www.w3.org/Graphics/SVG/1.1/DTD/svg11.dtd">
<svg version="1.1" id="Layer_1" xmlns:sketch="http://www.bohemiancoding.com/sketch/ns"
	 xmlns="http://www.w3.org/2000/svg" xmlns:xlink="http://www.w3.org/1999/xlink" x="0px" y="0px" width="500px" height="83px"
	 viewBox="0 0 500 83" enable-background="new 0 0 500 83" xml:space="preserve">
<g>
	<g>
		<g>
			<path d="M27.316,61.44c-10.349,0-17.844-1.895-22.277-5.629c-3.748-3.157-4.152-6.707-4.152-8.087V0.75h23.396l3.354,7.664
				l3.354-7.664h23.396v46.974c0,1.38-0.404,4.931-4.15,8.087c-4.433,3.734-11.927,5.629-22.275,5.629
				C27.961,61.44,27.316,61.44,27.316,61.44z"/>
			<path fill="#FFFFFF" d="M54.137,1.001v46.724c0,3.101-2.105,13.465-26.179,13.465c-0.106,0-0.214,0-0.321-0.001
				c-0.109,0-0.213,0.001-0.321,0.001c-24.071,0-26.179-10.365-26.179-13.465V1.001h22.982l3.517,8.038l3.518-8.038H54.137
				 M54.637,0.501h-0.5H31.154h-0.327L30.696,0.8l-3.06,6.991L24.577,0.8l-0.131-0.3h-0.327H1.137h-0.5V1v46.724
				c0,1.415,0.413,5.053,4.241,8.278c4.48,3.774,12.029,5.688,22.438,5.688l0.323-0.001l0.319,0.001
				c10.41,0,17.96-1.914,22.439-5.688c3.827-3.224,4.24-6.863,4.24-8.278V1V0.501L54.637,0.501z"/>
		</g>
	</g>
	<g>
		<path id="Shape_4_" fill="#F1B82D" d="M27.628,47.414c8.196,0,8.05-2.92,8.103-3.649v-4.637c0-0.938-0.631-1.669-1.785-2.294
			v-3.259h14.078v3.233c-1.154,0.625-1.786,1.355-1.786,2.294v4.14c-0.052,3.024,1.354,10.636-18.608,10.636
			S9.072,46.266,9.02,43.242v-4.14c0-0.939-0.629-1.669-1.786-2.294v-3.233h14.079v3.258c-1.156,0.625-1.786,1.355-1.786,2.294
			v4.637C19.577,44.494,19.433,47.414,27.628,47.414L27.628,47.414L27.628,47.414L27.628,47.414"/>
		<path id="Shape_5_" fill="#F1B82D" d="M27.615,18.893l6.802-12.396h13.58v3.232c-1.155,0.626-1.785,1.369-1.785,2.308v9.843
			c0,0.939,0.631,1.669,1.785,2.294v3.233H35.14v-3.258c1.155-0.626,1.785-1.355,1.785-2.294v-7.498l-7.721,13.05h-3.179
			l-7.721-13.05v7.497c0,0.938,0.629,1.669,1.786,2.294v3.258H7.233v-3.233c1.155-0.626,1.786-1.355,1.786-2.294v-9.842
			c0-0.939-0.631-1.681-1.786-2.308V6.497h13.579L27.615,18.893"/>
	</g>
</g>
<g>
	<g>
		<g>
			<path d="M277.316,61.44c-10.349,0-17.844-1.895-22.277-5.629c-3.747-3.157-4.151-6.707-4.151-8.087V0.75h23.396l3.354,7.664
				l3.355-7.664h23.396v46.974c0,1.38-0.404,4.931-4.15,8.087c-4.433,3.734-11.927,5.629-22.274,5.629
				C277.961,61.44,277.316,61.44,277.316,61.44z"/>
			<path fill="#F1B82D" d="M304.137,1.001v46.724c0,3.101-2.105,13.465-26.179,13.465c-0.106,0-0.214,0-0.321-0.001
				c-0.109,0-0.213,0.001-0.321,0.001c-24.071,0-26.179-10.365-26.179-13.465V1.001h22.982l3.517,8.038l3.518-8.038H304.137
				 M304.637,0.501h-0.5h-22.983h-0.327L280.696,0.8l-3.06,6.991L274.577,0.8l-0.131-0.3h-0.327h-22.982h-0.5V1v46.724
				c0,1.415,0.413,5.053,4.241,8.278c4.48,3.774,12.029,5.688,22.438,5.688l0.323-0.001l0.319,0.001
				c10.41,0,17.959-1.914,22.439-5.688c3.827-3.224,4.24-6.863,4.24-8.278V1V0.501L304.637,0.501z"/>
		</g>
	</g>
	<g>
		<path id="Shape_2_" fill="#F1B82D" d="M277.628,47.414c8.196,0,8.05-2.92,8.103-3.649v-4.637c0-0.938-0.631-1.669-1.785-2.294
			v-3.259h14.078v3.233c-1.154,0.625-1.786,1.355-1.786,2.294v4.14c-0.052,3.024,1.354,10.636-18.608,10.636
			c-19.962,0-18.558-7.612-18.61-10.636v-4.14c0-0.939-0.629-1.669-1.786-2.294v-3.233h14.079v3.258
			c-1.156,0.625-1.786,1.355-1.786,2.294v4.637C269.577,44.494,269.433,47.414,277.628,47.414L277.628,47.414L277.628,47.414
			L277.628,47.414"/>
		<path id="Shape_1_" fill="#F1B82D" d="M277.615,18.893l6.802-12.396h13.58v3.232c-1.155,0.626-1.785,1.369-1.785,2.308v9.843
			c0,0.939,0.631,1.669,1.785,2.294v3.233H285.14v-3.258c1.155-0.626,1.785-1.355,1.785-2.294v-7.498l-7.721,13.05h-3.179
			l-7.721-13.05v7.497c0,0.938,0.629,1.669,1.786,2.294v3.258h-12.857v-3.233c1.155-0.626,1.786-1.355,1.786-2.294v-9.842
			c0-0.939-0.631-1.681-1.786-2.308V6.497h13.579L277.615,18.893"/>
	</g>
</g>
<g>
	<path d="M76.096,72.176c0,2.445,1.022,4.579,4.087,4.579c2.134,0,3.977-1.185,3.977-5.527v-3.612c0-2.536-0.529-2.536-2.409-2.536
		c-0.146,0-0.146-0.109-0.146-0.273c0-0.22,0.055-0.274,0.146-0.274c0.311,0,1.496,0.072,2.682,0.072
		c0.565,0,2.116-0.072,2.371-0.072c0.183,0,0.256,0.036,0.256,0.309c0,0.073-0.018,0.237-0.165,0.237c-1.751,0-2.116,0-2.116,2.152
		v4.324c0,4.925-3.137,6.238-5.253,6.238c-4.087,0-5.235-2.736-5.235-4.742v-4.178c0-1.294-0.019-1.733-0.037-2.572
		c-0.019-1.076-0.328-1.222-1.915-1.222c-0.201,0-0.201-0.146-0.201-0.311c0-0.109,0.037-0.236,0.165-0.236
		c0.146,0,1.733,0.072,2.883,0.072c1.168,0,2.755-0.072,2.9-0.072c0.128,0,0.164,0.127,0.164,0.236c0,0.165,0,0.311-0.2,0.311
		c-1.587,0-1.898,0.146-1.915,1.222c-0.018,0.839-0.037,1.278-0.037,2.572v3.303H76.096z"/>
	<path d="M90.155,75.844c0,1.04,0.037,1.259,0.839,1.259c0.492,0,0.529,0.018,0.529,0.237c0,0.109,0,0.237-0.183,0.237
		c-0.091,0-0.328-0.037-1.605-0.037c-1.715,0-2.189,0.037-2.463,0.037c-0.146,0-0.146-0.11-0.146-0.201
		c0-0.237,0.019-0.273,0.693-0.273c0.474,0,0.639-0.183,0.748-0.439c0.073-0.164,0.109-1.459,0.109-2.627v-2.5
		c0-0.638-0.164-1.003-1.076-1.094c-0.146-0.018-0.164-0.091-0.164-0.219c0-0.146,0.055-0.237,0.146-0.255
		c2.079-0.42,2.335-0.894,2.554-0.894c0.036,0,0.055,0.055,0.055,0.2c0,0.109-0.037,0.511-0.037,1.313
		c0.948-0.638,1.879-1.259,2.864-1.259c0.621,0,2.408,0.128,2.408,2.737v4.378c0,0.309,0.055,0.657,1.185,0.657
		c0.183,0,0.183,0.109,0.183,0.237c0,0.109,0,0.237-0.255,0.237c-0.548,0-0.876-0.037-1.843-0.037c-1.477,0-1.77,0.037-1.915,0.037
		c-0.109,0-0.128-0.128-0.128-0.219s0.037-0.255,0.256-0.255c0.876,0,1.04-0.073,1.04-0.676V73.16c0-1.696-0.146-2.827-2.043-2.827
		c-0.692,0-1.677,0.62-1.751,0.839V75.844L90.155,75.844z"/>
	<path d="M100.384,75.844c0,1.04,0.037,1.259,0.839,1.259c0.401,0,0.437,0.018,0.437,0.237c0,0.109,0,0.237-0.183,0.237
		c-0.091,0-0.328-0.037-1.514-0.037c-1.715,0-2.189,0.037-2.463,0.037c-0.146,0-0.146-0.11-0.146-0.201
		c0-0.237,0.018-0.273,0.693-0.273c0.474,0,0.639-0.183,0.748-0.439c0.072-0.164,0.109-1.459,0.109-2.627v-2.5
		c0-0.638-0.164-1.003-1.076-1.094c-0.146-0.018-0.164-0.091-0.164-0.219c0-0.146,0.055-0.237,0.146-0.255
		c2.079-0.42,2.335-0.894,2.554-0.894c0.072,0,0.109,0.091,0.109,0.2c0,0.073-0.091,0.256-0.091,2.627v3.942H100.384z
		 M98.688,65.573c0-0.493,0.401-0.967,0.948-0.967c0.548,0,0.948,0.474,0.948,0.967c0,0.492-0.401,0.966-0.948,0.966
		S98.688,66.065,98.688,65.573z"/>
	<path d="M108.756,70.644c0-0.529-0.949-0.529-1.223-0.529c-0.109,0-0.164-0.109-0.164-0.255c0-0.091,0.072-0.219,0.237-0.219
		c0.493,0,1.058,0.037,1.569,0.037c0.529,0,1.076-0.037,1.605-0.037c0.128,0,0.165,0.128,0.165,0.219c0,0.109-0.019,0.181-0.183,0.2
		c-1.058,0.164-1.113,0.237-1.697,1.659c-0.638,1.569-1.733,3.868-2.061,4.634c-0.511,1.222-0.674,1.44-0.82,1.44
		c-0.201,0-0.328-0.383-0.693-1.168c-0.639-1.368-2.152-5.819-2.408-6.184c-0.183-0.274-0.365-0.292-0.639-0.292
		c-0.492,0-0.565-0.055-0.565-0.311c0-0.128,0.091-0.2,0.201-0.2c0.583,0,1.149,0.037,1.733,0.037c0.365,0,1.805-0.037,2.17-0.037
		c0.128,0,0.146,0.164,0.146,0.255s-0.072,0.219-0.183,0.219c-0.546,0-1.057,0.055-1.057,0.437c0,0.602,1.477,4.287,1.861,5.09
		C108.463,71.83,108.756,71.137,108.756,70.644z"/>
	<path d="M112.893,72.615c-0.055,0.346-0.072,0.692-0.072,1.04c0,1.185,1.003,3.009,2.992,3.009c0.839,0,1.55-0.255,2.135-1.094
		c0.109-0.146,0.183-0.311,0.273-0.311c0.128,0,0.293,0.165,0.293,0.219s-0.73,2.316-3.137,2.316c-2.609,0-3.978-1.605-3.978-4.159
		c0-2.608,1.77-4.377,3.649-4.377c3.027,0,3.264,2.609,3.264,3.155c0,0.183-0.072,0.201-0.218,0.201L112.893,72.615L112.893,72.615z
		 M116.032,72.067c0.364,0,0.62-0.11,0.62-0.602c0-1.423-0.985-1.733-1.605-1.733c-1.314,0-1.861,1.094-2.043,2.335H116.032z"/>
	<path d="M120.862,71.538c0-0.638-0.164-1.003-1.076-1.094c-0.146-0.018-0.164-0.091-0.164-0.219c0-0.146,0.055-0.237,0.146-0.255
		c2.079-0.42,2.335-0.894,2.554-0.894c0.036,0,0.072,0.109,0.072,0.183c0,0.218-0.091,0.674-0.091,1.659
		c0.602-0.674,1.587-1.587,2.554-1.587c0.639,0,1.168,0.347,1.168,1.022c0,0.474-0.365,0.913-0.894,0.913
		c-0.748,0-0.858-0.693-1.405-0.693c-0.311,0-0.804,0.274-1.259,0.785c-0.128,0.146-0.128,0.346-0.128,0.529v4.141
		c0,0.674,0,1.076,0.912,1.076c0.676,0,0.748,0.018,0.748,0.218c0,0.237-0.072,0.256-0.273,0.256c-0.657,0-1.241-0.037-2.08-0.037
		c-1.459,0-1.77,0.037-2.116,0.037c-0.128,0-0.165-0.11-0.165-0.237c0-0.183,0.219-0.237,0.565-0.237c0.785,0,0.93-0.146,0.93-0.93
		v-4.636L120.862,71.538L120.862,71.538z"/>
	<path d="M132.242,75.314c0,0.894-0.474,2.481-2.974,2.481c-0.328,0-1.386-0.146-2.098-0.146c-0.036,0-0.09-0.055-0.09-0.091
		c-0.019-0.183-0.42-1.787-0.42-1.97c0-0.109,0.255-0.109,0.328-0.109c0.437,0,0.546,1.842,2.298,1.842
		c1.296,0,1.659-0.985,1.659-1.623c0-1.915-4.086-1.296-4.086-3.887c0-1.496,1.24-2.481,2.772-2.481c0.839,0,1.898,0.146,1.97,0.165
		c0.237,0.055,0.274,0.401,0.274,0.511c0.037,0.748,0.201,1.222,0.201,1.459c0,0.109-0.11,0.146-0.201,0.146
		c-0.164,0-0.274-0.018-0.365-0.255c-0.127-0.311-0.601-1.551-1.897-1.551c-0.858,0-1.459,0.493-1.459,1.369
		c0,0.638,0.455,1.022,0.857,1.222C130.929,73.307,132.242,73.253,132.242,75.314z"/>
	<path d="M136.18,75.844c0,1.04,0.037,1.259,0.839,1.259c0.401,0,0.437,0.018,0.437,0.237c0,0.109,0,0.237-0.183,0.237
		c-0.091,0-0.328-0.037-1.514-0.037c-1.715,0-2.189,0.037-2.463,0.037c-0.146,0-0.146-0.11-0.146-0.201
		c0-0.237,0.018-0.273,0.693-0.273c0.474,0,0.639-0.183,0.748-0.439c0.072-0.164,0.109-1.459,0.109-2.627v-2.5
		c0-0.638-0.164-1.003-1.076-1.094c-0.146-0.018-0.164-0.091-0.164-0.219c0-0.146,0.055-0.237,0.146-0.255
		c2.079-0.42,2.335-0.894,2.554-0.894c0.072,0,0.109,0.091,0.109,0.2c0,0.073-0.091,0.256-0.091,2.627v3.942H136.18z
		 M134.484,65.573c0-0.493,0.401-0.967,0.948-0.967c0.548,0,0.948,0.474,0.948,0.967c0,0.492-0.401,0.966-0.948,0.966
		C134.884,66.539,134.484,66.065,134.484,65.573z"/>
	<path d="M141.122,74.329c0,1.934,0.165,2.628,1.606,2.628c0.62,0,1.168-0.42,1.24-0.42c0.073,0,0.2,0.181,0.2,0.292
		c0,0.109-0.766,0.966-2.426,0.966c-2.097,0-2.097-1.805-2.097-2.262v-4.798c0-0.146-0.056-0.237-0.183-0.237h-0.913
		c-0.055,0-0.109-0.055-0.109-0.164c0-0.073,0.018-0.183,0.109-0.256c1.696-1.277,2.043-2.244,2.408-2.244
		c0.109,0,0.218,0.073,0.218,0.237c0,0.328-0.055,0.639-0.055,1.678h2.809c0.128,0,0.183,0.128,0.183,0.383
		c0,0.237-0.109,0.456-0.492,0.456c-0.128,0-0.985-0.091-2.5-0.091v3.832L141.122,74.329L141.122,74.329z"/>
	<path d="M151.024,70.735c0-0.602-0.857-0.62-1.405-0.62c-0.164,0-0.183-0.091-0.183-0.237c0-0.128,0.073-0.237,0.165-0.237
		c0.583,0,1.185,0.037,1.77,0.037c0.565,0,1.131-0.037,1.696-0.037c0.128,0,0.128,0.164,0.128,0.237
		c0,0.164-0.055,0.219-0.311,0.237c-0.62,0.055-0.876,0.165-1.15,0.802c-0.657,1.515-3.174,6.805-3.575,7.826
		c-1.405,3.52-2.007,3.757-2.609,3.757c-0.583,0-1.022-0.511-1.022-1.076c0-0.548,0.529-0.985,1.058-0.985
		c0.456,0,0.693,0.311,0.912,0.311c0.328,0,1.186-1.752,1.186-2.609c0-0.456-0.439-1.533-0.639-2.043
		c-1.15-2.955-1.496-4.542-1.879-5.564c-0.165-0.42-1.076-0.42-1.313-0.42c-0.128,0-0.165-0.128-0.165-0.255
		c0-0.147,0.091-0.219,0.2-0.219c0.219,0,1.369,0.037,2.026,0.037c0.62,0,1.259-0.037,1.806-0.037c0.181,0,0.218,0.109,0.218,0.237
		c0,0.091-0.055,0.237-0.183,0.237c-0.109,0-0.894,0-0.894,0.402c0,0.875,0.62,2.681,1.806,5.727
		C149.51,74.511,151.024,71.3,151.024,70.735z"/>
	<path d="M162.438,77.795c-2.5,0-4.233-1.805-4.233-4.232c0-2.408,1.806-4.233,4.233-4.233c2.444,0,4.25,1.77,4.25,4.233
		C166.689,76.117,164.992,77.795,162.438,77.795z M162.438,69.805c-1.898,0-2.5,1.971-2.5,3.759c0,1.55,0.365,3.757,2.5,3.757
		c2.152,0,2.518-2.207,2.518-3.757C164.956,71.776,164.354,69.805,162.438,69.805z"/>
	<path d="M170.844,76.026c0,0.674,0,1.076,0.913,1.076c0.674,0,0.748,0.018,0.748,0.218c0,0.237-0.073,0.256-0.274,0.256
		c-0.657,0-1.241-0.037-2.08-0.037c-1.459,0-1.77,0.037-1.933,0.037c-0.128,0-0.165-0.11-0.165-0.237
		c0-0.183,0.037-0.237,0.383-0.237c0.785,0,0.93-0.146,0.93-0.93v-5.09c0-0.219,0-0.584-0.346-0.584h-1.004
		c-0.127,0-0.218,0-0.218-0.237c0-0.146,0.128-0.219,0.565-0.309c0.711-0.165,0.894-0.201,0.948-1.022
		c0.183-2.774,1.004-4.305,3.156-4.87c0.292-0.073,0.785-0.147,1.113-0.147c0.474,0,1.149,0.183,1.149,0.785
		c0,0.529-0.309,0.894-0.857,0.894c-0.165,0-0.565-0.055-1.004-0.42c-0.309-0.255-0.638-0.42-0.802-0.42
		c-1.04,0-1.222,1.515-1.222,2.646v2.353h2.262c0.128,0,0.183,0.128,0.183,0.383c0,0.237-0.109,0.456-0.492,0.456
		c-0.128,0-1.533-0.091-1.952-0.091L170.844,76.026L170.844,76.026z"/>
	<path d="M190.522,64.734c0.055-0.147,0.11-0.2,0.219-0.2c0.091,0,1.422,0.072,1.842,0.072c0.311,0,1.861-0.072,1.989-0.072
		c0.183,0,0.2,0.145,0.2,0.309c0,0.165-0.072,0.237-0.218,0.237c-1.643,0-1.843,0.128-1.843,0.967c0,1.185,0.2,5.016,0.383,10.125
		c0.019,0.62,0.53,0.857,1.004,0.857c1.022,0,1.04,0.109,1.04,0.237c0,0.274-0.091,0.311-0.2,0.311c-0.165,0-0.365-0.037-2.9-0.037
		c-2.372,0-2.481,0.037-2.628,0.037c-0.2,0-0.2-0.128-0.2-0.292c0-0.128,0.037-0.256,0.876-0.256c1.204,0,1.222-0.292,1.222-1.022
		c0-1.094-0.274-6.986-0.42-10.397h-0.037c-1.331,3.411-3.009,7.333-4.214,10.269c-0.693,1.678-0.693,1.88-0.93,1.88
		s-0.274-0.165-0.657-1.423c-0.402-1.313-3.375-9.377-3.448-9.377c-0.309,1.332-1.514,7.389-1.514,9.213
		c0,0.565,0.309,0.857,0.912,0.857c0.456,0,0.985,0.037,0.985,0.146c0,0.347,0,0.402-0.2,0.402c-0.146,0-0.328-0.037-2.207-0.037
		c-1.661,0-1.787,0.037-1.898,0.037c-0.146,0-0.2-0.019-0.2-0.311c0-0.183,0.091-0.237,0.967-0.237c0.638,0,0.766-0.237,0.966-1.277
		c0.493-2.628,0.93-5.272,1.496-7.899c0.183-0.821,0.237-1.332,0.237-1.715c0-0.109-0.255-0.785-0.474-0.913
		c-0.146-0.091-1.003-0.146-1.568-0.146c-0.219,0-0.219-0.146-0.219-0.273c0-0.147,0.037-0.274,0.2-0.274
		c0.347,0,1.915,0.072,2.117,0.072c0.474,0,1.24-0.072,1.477-0.072c0.201,0,0.256,0.2,0.439,0.857
		c0.383,1.368,3.028,8.756,3.357,9.431C187.841,71.593,189.228,68.254,190.522,64.734z"/>
	<path d="M198.634,75.844c0,1.04,0.037,1.259,0.839,1.259c0.401,0,0.437,0.018,0.437,0.237c0,0.109,0,0.237-0.183,0.237
		c-0.091,0-0.328-0.037-1.514-0.037c-1.715,0-2.189,0.037-2.463,0.037c-0.146,0-0.146-0.11-0.146-0.201
		c0-0.237,0.018-0.273,0.693-0.273c0.474,0,0.639-0.183,0.748-0.439c0.072-0.164,0.109-1.459,0.109-2.627v-2.5
		c0-0.638-0.164-1.003-1.076-1.094c-0.146-0.018-0.164-0.091-0.164-0.219c0-0.146,0.055-0.237,0.146-0.255
		c2.079-0.42,2.335-0.894,2.554-0.894c0.072,0,0.109,0.091,0.109,0.2c0,0.073-0.091,0.256-0.091,2.627v3.942H198.634z
		 M196.937,65.573c0-0.493,0.401-0.967,0.948-0.967c0.548,0,0.948,0.474,0.948,0.967c0,0.492-0.401,0.966-0.948,0.966
		S196.937,66.065,196.937,65.573z"/>
	<path d="M206.512,75.314c0,0.894-0.474,2.481-2.974,2.481c-0.328,0-1.386-0.146-2.098-0.146c-0.036,0-0.09-0.055-0.09-0.091
		c-0.019-0.183-0.42-1.787-0.42-1.97c0-0.109,0.255-0.109,0.328-0.109c0.437,0,0.546,1.842,2.298,1.842
		c1.296,0,1.659-0.985,1.659-1.623c0-1.915-4.086-1.296-4.086-3.887c0-1.496,1.24-2.481,2.772-2.481c0.839,0,1.898,0.146,1.97,0.165
		c0.237,0.055,0.274,0.401,0.274,0.511c0.037,0.748,0.201,1.222,0.201,1.459c0,0.109-0.11,0.146-0.201,0.146
		c-0.164,0-0.274-0.018-0.365-0.255c-0.127-0.311-0.601-1.551-1.897-1.551c-0.858,0-1.459,0.493-1.459,1.369
		c0,0.638,0.455,1.022,0.857,1.222C205.199,73.307,206.512,73.253,206.512,75.314z"/>
	<path d="M213.259,75.314c0,0.894-0.474,2.481-2.974,2.481c-0.328,0-1.386-0.146-2.098-0.146c-0.036,0-0.09-0.055-0.09-0.091
		c-0.019-0.183-0.42-1.787-0.42-1.97c0-0.109,0.255-0.109,0.328-0.109c0.437,0,0.546,1.842,2.298,1.842
		c1.296,0,1.659-0.985,1.659-1.623c0-1.915-4.086-1.296-4.086-3.887c0-1.496,1.24-2.481,2.772-2.481c0.839,0,1.898,0.146,1.97,0.165
		c0.237,0.055,0.274,0.401,0.274,0.511c0.037,0.748,0.201,1.222,0.201,1.459c0,0.109-0.11,0.146-0.201,0.146
		c-0.164,0-0.274-0.018-0.365-0.255c-0.127-0.311-0.601-1.551-1.897-1.551c-0.858,0-1.459,0.493-1.459,1.369
		c0,0.638,0.455,1.022,0.857,1.222C211.946,73.307,213.259,73.253,213.259,75.314z"/>
	<path d="M218.821,77.795c-2.5,0-4.233-1.805-4.233-4.232c0-2.408,1.806-4.233,4.233-4.233c2.444,0,4.25,1.77,4.25,4.233
		C223.071,76.117,221.374,77.795,218.821,77.795z M218.821,69.805c-1.898,0-2.5,1.971-2.5,3.759c0,1.55,0.365,3.757,2.5,3.757
		c2.153,0,2.518-2.207,2.518-3.757C221.338,71.776,220.736,69.805,218.821,69.805z"/>
	<path d="M225.347,71.885c0-1.605-0.183-1.715-1.131-1.715c-0.147,0-0.402,0-0.402-0.183c0-0.146,0-0.365,0.2-0.365
		c0.183,0,0.474,0.056,1.076,0.056c0.639,0,1.332-0.056,1.587-0.056c0.11,0,0.146,0,0.146,0.256v4.925
		c0,1.369,0.439,2.154,1.789,2.154c0.657,0,1.805-0.402,1.805-0.967v-4.725c0-0.985-0.183-1.095-1.131-1.095
		c-0.328,0-0.583,0-0.583-0.183c0-0.274,0-0.365,0.127-0.365c0.256,0,0.475,0.056,1.587,0.056c0.456,0,0.93-0.056,1.387-0.056
		c0.165,0,0.256,0.073,0.256,0.256c0,0.073-0.165,1.478-0.165,2.772v3.43c0,0.292,0,0.674,0.456,0.674
		c0.255,0,0.657-0.072,0.785-0.072c0.072,0,0.109,0,0.109,0.346c0,0.109-0.018,0.146-0.602,0.237
		c-1.55,0.256-1.989,0.474-2.098,0.474c-0.128,0-0.219-0.127-0.219-0.255c0-0.219,0.037-0.511,0.056-0.693
		c-0.913,0.674-2.026,1.003-2.719,1.003c-1.805,0-2.316-1.168-2.316-3.064L225.347,71.885L225.347,71.885z"/>
	<path d="M235.303,71.538c0-0.638-0.164-1.003-1.076-1.094c-0.146-0.018-0.164-0.091-0.164-0.219c0-0.146,0.055-0.237,0.146-0.255
		c2.079-0.42,2.335-0.894,2.554-0.894c0.036,0,0.072,0.109,0.072,0.183c0,0.218-0.091,0.674-0.091,1.659
		c0.602-0.674,1.587-1.587,2.554-1.587c0.639,0,1.168,0.347,1.168,1.022c0,0.474-0.365,0.913-0.894,0.913
		c-0.748,0-0.858-0.693-1.405-0.693c-0.311,0-0.804,0.274-1.259,0.785c-0.128,0.146-0.128,0.346-0.128,0.529v4.141
		c0,0.674,0,1.076,0.912,1.076c0.676,0,0.748,0.018,0.748,0.218c0,0.237-0.072,0.256-0.273,0.256c-0.657,0-1.241-0.037-2.08-0.037
		c-1.459,0-1.77,0.037-2.116,0.037c-0.128,0-0.165-0.11-0.165-0.237c0-0.183,0.219-0.237,0.565-0.237c0.785,0,0.93-0.146,0.93-0.93
		v-4.636L235.303,71.538L235.303,71.538z"/>
	<path d="M243.874,75.844c0,1.04,0.037,1.259,0.839,1.259c0.401,0,0.437,0.018,0.437,0.237c0,0.109,0,0.237-0.183,0.237
		c-0.091,0-0.328-0.037-1.514-0.037c-1.715,0-2.189,0.037-2.463,0.037c-0.146,0-0.146-0.11-0.146-0.201
		c0-0.237,0.018-0.273,0.693-0.273c0.474,0,0.639-0.183,0.748-0.439c0.072-0.164,0.109-1.459,0.109-2.627v-2.5
		c0-0.638-0.164-1.003-1.076-1.094c-0.146-0.018-0.164-0.091-0.164-0.219c0-0.146,0.055-0.237,0.146-0.255
		c2.079-0.42,2.335-0.894,2.554-0.894c0.072,0,0.109,0.091,0.109,0.2c0,0.073-0.091,0.256-0.091,2.627v3.942H243.874z
		 M242.178,65.573c0-0.493,0.401-0.967,0.948-0.967c0.548,0,0.948,0.474,0.948,0.967c0,0.492-0.401,0.966-0.948,0.966
		C242.578,66.539,242.178,66.065,242.178,65.573z"/>
</g>
<g>
	<path fill="#F1B82D" d="M326.096,72.176c0,2.445,1.022,4.578,4.087,4.578c2.133,0,3.976-1.185,3.976-5.527v-3.611
		c0-2.536-0.529-2.536-2.408-2.536c-0.146,0-0.146-0.109-0.146-0.273c0-0.22,0.055-0.274,0.146-0.274
		c0.31,0,1.496,0.072,2.682,0.072c0.565,0,2.116-0.072,2.37-0.072c0.183,0,0.256,0.036,0.256,0.309c0,0.073-0.018,0.237-0.165,0.237
		c-1.751,0-2.116,0-2.116,2.152v4.324c0,4.925-3.137,6.238-5.253,6.238c-4.087,0-5.235-2.736-5.235-4.742v-4.178
		c0-1.294-0.019-1.733-0.037-2.572c-0.019-1.076-0.328-1.222-1.915-1.222c-0.201,0-0.201-0.146-0.201-0.31
		c0-0.109,0.037-0.236,0.165-0.236c0.146,0,1.733,0.072,2.882,0.072c1.167,0,2.754-0.072,2.9-0.072c0.128,0,0.164,0.127,0.164,0.236
		c0,0.165,0,0.31-0.2,0.31c-1.587,0-1.897,0.146-1.915,1.222c-0.018,0.839-0.037,1.278-0.037,2.572
		C326.096,68.873,326.096,72.176,326.096,72.176z"/>
	<path fill="#F1B82D" d="M340.154,75.843c0,1.039,0.037,1.259,0.839,1.259c0.492,0,0.529,0.018,0.529,0.237
		c0,0.109,0,0.237-0.183,0.237c-0.091,0-0.328-0.037-1.605-0.037c-1.715,0-2.189,0.037-2.463,0.037c-0.146,0-0.146-0.11-0.146-0.201
		c0-0.237,0.019-0.273,0.693-0.273c0.474,0,0.639-0.183,0.748-0.438c0.073-0.164,0.109-1.459,0.109-2.626v-2.5
		c0-0.638-0.164-1.003-1.076-1.094c-0.146-0.018-0.164-0.091-0.164-0.219c0-0.146,0.055-0.237,0.146-0.255
		c2.079-0.42,2.335-0.894,2.554-0.894c0.036,0,0.055,0.055,0.055,0.2c0,0.109-0.037,0.511-0.037,1.313
		c0.948-0.638,1.879-1.259,2.863-1.259c0.621,0,2.408,0.128,2.408,2.737v4.378c0,0.309,0.055,0.657,1.185,0.657
		c0.183,0,0.183,0.109,0.183,0.237c0,0.109,0,0.237-0.255,0.237c-0.548,0-0.876-0.037-1.843-0.037c-1.477,0-1.769,0.037-1.915,0.037
		c-0.109,0-0.128-0.128-0.128-0.219s0.037-0.255,0.256-0.255c0.876,0,1.039-0.073,1.039-0.676v-3.265
		c0-1.696-0.146-2.827-2.043-2.827c-0.692,0-1.677,0.62-1.751,0.839v4.67H340.154z"/>
	<path fill="#F1B82D" d="M350.382,75.843c0,1.039,0.037,1.259,0.839,1.259c0.401,0,0.437,0.018,0.437,0.237
		c0,0.109,0,0.237-0.183,0.237c-0.091,0-0.328-0.037-1.514-0.037c-1.715,0-2.189,0.037-2.463,0.037c-0.146,0-0.146-0.11-0.146-0.201
		c0-0.237,0.018-0.273,0.693-0.273c0.474,0,0.639-0.183,0.748-0.438c0.072-0.164,0.109-1.459,0.109-2.626v-2.5
		c0-0.638-0.164-1.003-1.076-1.094c-0.146-0.018-0.164-0.091-0.164-0.219c0-0.146,0.055-0.237,0.146-0.255
		c2.079-0.42,2.335-0.894,2.554-0.894c0.072,0,0.109,0.091,0.109,0.2c0,0.073-0.091,0.256-0.091,2.626v3.941H350.382z
		 M348.686,65.573c0-0.493,0.401-0.967,0.948-0.967s0.948,0.474,0.948,0.967c0,0.492-0.401,0.966-0.948,0.966
		S348.686,66.065,348.686,65.573z"/>
	<path fill="#F1B82D" d="M358.753,70.643c0-0.529-0.949-0.529-1.223-0.529c-0.109,0-0.164-0.109-0.164-0.255
		c0-0.091,0.072-0.219,0.237-0.219c0.493,0,1.058,0.037,1.569,0.037c0.529,0,1.076-0.037,1.605-0.037
		c0.128,0,0.165,0.128,0.165,0.219c0,0.109-0.019,0.181-0.183,0.2c-1.058,0.164-1.113,0.237-1.697,1.659
		c-0.638,1.569-1.733,3.867-2.061,4.634c-0.511,1.222-0.674,1.44-0.82,1.44c-0.201,0-0.328-0.383-0.693-1.167
		c-0.639-1.368-2.152-5.818-2.408-6.183c-0.183-0.274-0.365-0.292-0.639-0.292c-0.492,0-0.565-0.055-0.565-0.31
		c0-0.128,0.091-0.2,0.201-0.2c0.583,0,1.149,0.037,1.733,0.037c0.365,0,1.805-0.037,2.17-0.037c0.128,0,0.146,0.164,0.146,0.255
		s-0.072,0.219-0.183,0.219c-0.546,0-1.057,0.055-1.057,0.437c0,0.602,1.477,4.287,1.861,5.089
		C358.461,71.83,358.753,71.136,358.753,70.643z"/>
	<path fill="#F1B82D" d="M362.89,72.614c-0.055,0.346-0.072,0.692-0.072,1.039c0,1.185,1.003,3.009,2.991,3.009
		c0.839,0,1.55-0.255,2.135-1.094c0.109-0.146,0.183-0.311,0.273-0.311c0.128,0,0.293,0.165,0.293,0.219s-0.73,2.316-3.137,2.316
		c-2.609,0-3.977-1.605-3.977-4.159c0-2.608,1.769-4.377,3.649-4.377c3.027,0,3.264,2.609,3.264,3.155
		c0,0.182-0.072,0.201-0.218,0.201h-5.201L362.89,72.614L362.89,72.614z M366.028,72.067c0.364,0,0.62-0.11,0.62-0.602
		c0-1.423-0.985-1.733-1.605-1.733c-1.314,0-1.861,1.094-2.043,2.335H366.028z"/>
	<path fill="#F1B82D" d="M370.858,71.537c0-0.638-0.164-1.003-1.076-1.094c-0.146-0.018-0.164-0.091-0.164-0.219
		c0-0.146,0.055-0.237,0.146-0.255c2.079-0.42,2.335-0.894,2.554-0.894c0.036,0,0.072,0.109,0.072,0.182
		c0,0.218-0.091,0.674-0.091,1.659c0.602-0.674,1.587-1.587,2.554-1.587c0.639,0,1.167,0.347,1.167,1.022
		c0,0.474-0.365,0.913-0.894,0.913c-0.748,0-0.858-0.693-1.404-0.693c-0.31,0-0.804,0.274-1.259,0.785
		c-0.128,0.146-0.128,0.346-0.128,0.529v4.141c0,0.674,0,1.076,0.911,1.076c0.676,0,0.748,0.018,0.748,0.218
		c0,0.237-0.072,0.256-0.273,0.256c-0.657,0-1.241-0.037-2.08-0.037c-1.459,0-1.769,0.037-2.116,0.037
		c-0.128,0-0.165-0.11-0.165-0.237c0-0.183,0.219-0.237,0.565-0.237c0.785,0,0.93-0.146,0.93-0.93v-4.635L370.858,71.537
		L370.858,71.537z"/>
	<path fill="#F1B82D" d="M382.238,75.313c0,0.894-0.474,2.481-2.974,2.481c-0.328,0-1.386-0.146-2.098-0.146
		c-0.036,0-0.09-0.055-0.09-0.091c-0.019-0.183-0.42-1.787-0.42-1.97c0-0.109,0.255-0.109,0.328-0.109
		c0.437,0,0.546,1.842,2.298,1.842c1.295,0,1.659-0.985,1.659-1.623c0-1.915-4.085-1.295-4.085-3.886
		c0-1.496,1.24-2.481,2.772-2.481c0.839,0,1.897,0.146,1.97,0.165c0.237,0.055,0.274,0.401,0.274,0.511
		c0.037,0.748,0.201,1.222,0.201,1.459c0,0.109-0.11,0.146-0.201,0.146c-0.164,0-0.274-0.018-0.365-0.255
		c-0.127-0.311-0.601-1.551-1.896-1.551c-0.858,0-1.459,0.493-1.459,1.369c0,0.638,0.455,1.022,0.857,1.222
		C380.924,73.306,382.238,73.252,382.238,75.313z"/>
	<path fill="#F1B82D" d="M386.175,75.843c0,1.039,0.037,1.259,0.839,1.259c0.401,0,0.437,0.018,0.437,0.237
		c0,0.109,0,0.237-0.183,0.237c-0.091,0-0.328-0.037-1.514-0.037c-1.715,0-2.189,0.037-2.463,0.037c-0.146,0-0.146-0.11-0.146-0.201
		c0-0.237,0.018-0.273,0.693-0.273c0.474,0,0.639-0.183,0.748-0.438c0.072-0.164,0.109-1.459,0.109-2.626v-2.5
		c0-0.638-0.164-1.003-1.076-1.094c-0.146-0.018-0.164-0.091-0.164-0.219c0-0.146,0.055-0.237,0.146-0.255
		c2.079-0.42,2.335-0.894,2.554-0.894c0.072,0,0.109,0.091,0.109,0.2c0,0.073-0.091,0.256-0.091,2.626v3.941H386.175z
		 M384.479,65.573c0-0.493,0.401-0.967,0.948-0.967s0.948,0.474,0.948,0.967c0,0.492-0.401,0.966-0.948,0.966
		S384.479,66.065,384.479,65.573z"/>
	<path fill="#F1B82D" d="M391.116,74.328c0,1.934,0.165,2.628,1.606,2.628c0.62,0,1.167-0.42,1.24-0.42s0.2,0.181,0.2,0.292
		c0,0.109-0.766,0.966-2.426,0.966c-2.097,0-2.097-1.805-2.097-2.261v-4.798c0-0.146-0.056-0.237-0.183-0.237h-0.913
		c-0.055,0-0.109-0.055-0.109-0.164c0-0.073,0.018-0.183,0.109-0.256c1.696-1.276,2.043-2.244,2.408-2.244
		c0.109,0,0.218,0.073,0.218,0.237c0,0.328-0.055,0.639-0.055,1.678h2.809c0.128,0,0.183,0.128,0.183,0.383
		c0,0.237-0.109,0.456-0.492,0.456c-0.128,0-0.985-0.091-2.5-0.091v3.831L391.116,74.328L391.116,74.328z"/>
	<path fill="#F1B82D" d="M401.018,70.735c0-0.602-0.857-0.62-1.404-0.62c-0.164,0-0.183-0.091-0.183-0.237
		c0-0.128,0.073-0.237,0.165-0.237c0.583,0,1.185,0.037,1.769,0.037c0.565,0,1.131-0.037,1.696-0.037
		c0.128,0,0.128,0.164,0.128,0.237c0,0.164-0.055,0.219-0.31,0.237c-0.62,0.055-0.876,0.165-1.15,0.802
		c-0.657,1.515-3.174,6.804-3.575,7.826c-1.404,3.52-2.007,3.757-2.609,3.757c-0.583,0-1.022-0.511-1.022-1.076
		c0-0.548,0.529-0.985,1.058-0.985c0.456,0,0.693,0.311,0.911,0.311c0.328,0,1.186-1.752,1.186-2.609
		c0-0.456-0.438-1.532-0.639-2.043c-1.15-2.955-1.496-4.542-1.879-5.563c-0.165-0.42-1.076-0.42-1.313-0.42
		c-0.128,0-0.165-0.128-0.165-0.255c0-0.147,0.091-0.219,0.2-0.219c0.219,0,1.369,0.037,2.025,0.037c0.62,0,1.259-0.037,1.806-0.037
		c0.181,0,0.218,0.109,0.218,0.237c0,0.091-0.055,0.237-0.183,0.237c-0.109,0-0.894,0-0.894,0.402c0,0.875,0.62,2.681,1.806,5.727
		C399.504,74.511,401.018,71.3,401.018,70.735z"/>
	<path fill="#F1B82D" d="M412.431,77.794c-2.5,0-4.232-1.805-4.232-4.231c0-2.408,1.806-4.232,4.232-4.232
		c2.444,0,4.25,1.77,4.25,4.232C416.682,76.117,414.984,77.794,412.431,77.794z M412.431,69.804c-1.897,0-2.5,1.971-2.5,3.758
		c0,1.55,0.365,3.757,2.5,3.757c2.152,0,2.517-2.207,2.517-3.757C414.949,71.775,414.347,69.804,412.431,69.804z"/>
	<path fill="#F1B82D" d="M420.836,76.025c0,0.674,0,1.076,0.913,1.076c0.674,0,0.748,0.018,0.748,0.218
		c0,0.237-0.073,0.256-0.274,0.256c-0.657,0-1.241-0.037-2.08-0.037c-1.459,0-1.77,0.037-1.933,0.037
		c-0.128,0-0.165-0.11-0.165-0.237c0-0.183,0.037-0.237,0.383-0.237c0.785,0,0.93-0.146,0.93-0.93v-5.089
		c0-0.219,0-0.584-0.346-0.584h-1.004c-0.127,0-0.218,0-0.218-0.237c0-0.146,0.128-0.219,0.565-0.309
		c0.711-0.165,0.894-0.201,0.948-1.022c0.183-2.773,1.004-4.305,3.156-4.87c0.292-0.073,0.785-0.147,1.113-0.147
		c0.474,0,1.148,0.183,1.148,0.785c0,0.529-0.309,0.894-0.857,0.894c-0.165,0-0.565-0.055-1.004-0.42
		c-0.309-0.255-0.638-0.42-0.802-0.42c-1.039,0-1.222,1.515-1.222,2.645v2.353h2.261c0.128,0,0.183,0.128,0.183,0.383
		c0,0.237-0.109,0.456-0.492,0.456c-0.128,0-1.532-0.091-1.952-0.091L420.836,76.025L420.836,76.025z"/>
	<path fill="#F1B82D" d="M440.513,64.734c0.055-0.147,0.11-0.2,0.219-0.2c0.091,0,1.422,0.072,1.842,0.072
		c0.311,0,1.861-0.072,1.989-0.072c0.183,0,0.2,0.145,0.2,0.309s-0.072,0.237-0.218,0.237c-1.643,0-1.843,0.128-1.843,0.967
		c0,1.185,0.2,5.016,0.383,10.124c0.019,0.62,0.53,0.857,1.004,0.857c1.022,0,1.039,0.109,1.039,0.237c0,0.274-0.091,0.31-0.2,0.31
		c-0.165,0-0.365-0.037-2.9-0.037c-2.372,0-2.481,0.037-2.628,0.037c-0.2,0-0.2-0.128-0.2-0.292c0-0.128,0.037-0.256,0.876-0.256
		c1.204,0,1.222-0.292,1.222-1.022c0-1.094-0.274-6.986-0.42-10.397h-0.037c-1.331,3.411-3.009,7.333-4.213,10.269
		c-0.693,1.678-0.693,1.88-0.93,1.88s-0.274-0.165-0.657-1.423c-0.402-1.313-3.374-9.376-3.448-9.376
		c-0.309,1.332-1.514,7.388-1.514,9.212c0,0.565,0.309,0.857,0.911,0.857c0.456,0,0.985,0.037,0.985,0.146
		c0,0.347,0,0.402-0.2,0.402c-0.146,0-0.328-0.037-2.207-0.037c-1.66,0-1.787,0.037-1.897,0.037c-0.146,0-0.2-0.019-0.2-0.31
		c0-0.183,0.091-0.237,0.967-0.237c0.638,0,0.766-0.237,0.966-1.276c0.493-2.628,0.93-5.272,1.496-7.898
		c0.183-0.821,0.237-1.332,0.237-1.715c0-0.109-0.255-0.785-0.474-0.913c-0.146-0.091-1.003-0.146-1.568-0.146
		c-0.219,0-0.219-0.146-0.219-0.273c0-0.147,0.037-0.274,0.2-0.274c0.347,0,1.915,0.072,2.117,0.072c0.474,0,1.24-0.072,1.477-0.072
		c0.201,0,0.256,0.2,0.438,0.857c0.383,1.368,3.028,8.755,3.356,9.431C437.832,71.593,439.219,68.254,440.513,64.734z"/>
	<path fill="#F1B82D" d="M448.624,75.843c0,1.039,0.037,1.259,0.839,1.259c0.401,0,0.437,0.018,0.437,0.237
		c0,0.109,0,0.237-0.183,0.237c-0.091,0-0.328-0.037-1.514-0.037c-1.715,0-2.189,0.037-2.463,0.037c-0.146,0-0.146-0.11-0.146-0.201
		c0-0.237,0.018-0.273,0.693-0.273c0.474,0,0.639-0.183,0.748-0.438c0.072-0.164,0.109-1.459,0.109-2.626v-2.5
		c0-0.638-0.164-1.003-1.076-1.094c-0.146-0.018-0.164-0.091-0.164-0.219c0-0.146,0.055-0.237,0.146-0.255
		c2.079-0.42,2.335-0.894,2.554-0.894c0.072,0,0.109,0.091,0.109,0.2c0,0.073-0.091,0.256-0.091,2.626v3.941H448.624z
		 M446.928,65.573c0-0.493,0.401-0.967,0.948-0.967c0.548,0,0.948,0.474,0.948,0.967c0,0.492-0.401,0.966-0.948,0.966
		C447.328,66.539,446.928,66.065,446.928,65.573z"/>
	<path fill="#F1B82D" d="M456.502,75.313c0,0.894-0.474,2.481-2.974,2.481c-0.328,0-1.386-0.146-2.098-0.146
		c-0.036,0-0.09-0.055-0.09-0.091c-0.019-0.183-0.42-1.787-0.42-1.97c0-0.109,0.255-0.109,0.328-0.109
		c0.437,0,0.546,1.842,2.298,1.842c1.295,0,1.659-0.985,1.659-1.623c0-1.915-4.085-1.295-4.085-3.886
		c0-1.496,1.24-2.481,2.772-2.481c0.839,0,1.897,0.146,1.97,0.165c0.237,0.055,0.274,0.401,0.274,0.511
		c0.037,0.748,0.201,1.222,0.201,1.459c0,0.109-0.11,0.146-0.201,0.146c-0.164,0-0.274-0.018-0.365-0.255
		c-0.127-0.311-0.601-1.551-1.896-1.551c-0.858,0-1.459,0.493-1.459,1.369c0,0.638,0.455,1.022,0.857,1.222
		C455.189,73.306,456.502,73.252,456.502,75.313z"/>
	<path fill="#F1B82D" d="M463.248,75.313c0,0.894-0.474,2.481-2.974,2.481c-0.328,0-1.386-0.146-2.098-0.146
		c-0.036,0-0.09-0.055-0.09-0.091c-0.019-0.183-0.42-1.787-0.42-1.97c0-0.109,0.255-0.109,0.328-0.109
		c0.437,0,0.546,1.842,2.298,1.842c1.295,0,1.659-0.985,1.659-1.623c0-1.915-4.085-1.295-4.085-3.886
		c0-1.496,1.24-2.481,2.772-2.481c0.839,0,1.897,0.146,1.97,0.165c0.237,0.055,0.274,0.401,0.274,0.511
		c0.037,0.748,0.201,1.222,0.201,1.459c0,0.109-0.11,0.146-0.201,0.146c-0.164,0-0.274-0.018-0.365-0.255
		c-0.127-0.311-0.601-1.551-1.896-1.551c-0.858,0-1.459,0.493-1.459,1.369c0,0.638,0.455,1.022,0.857,1.222
		C461.935,73.306,463.248,73.252,463.248,75.313z"/>
	<path fill="#F1B82D" d="M468.809,77.794c-2.5,0-4.232-1.805-4.232-4.231c0-2.408,1.806-4.232,4.232-4.232
		c2.444,0,4.25,1.77,4.25,4.232C473.059,76.117,471.362,77.794,468.809,77.794z M468.809,69.804c-1.897,0-2.5,1.971-2.5,3.758
		c0,1.55,0.365,3.757,2.5,3.757c2.152,0,2.517-2.207,2.517-3.757C471.327,71.775,470.725,69.804,468.809,69.804z"/>
	<path fill="#F1B82D" d="M475.335,71.884c0-1.605-0.183-1.715-1.131-1.715c-0.147,0-0.402,0-0.402-0.183c0-0.146,0-0.365,0.2-0.365
		c0.183,0,0.474,0.056,1.076,0.056c0.639,0,1.332-0.056,1.587-0.056c0.11,0,0.146,0,0.146,0.256v4.925
		c0,1.369,0.438,2.153,1.788,2.153c0.657,0,1.805-0.402,1.805-0.967v-4.724c0-0.985-0.183-1.095-1.131-1.095
		c-0.328,0-0.583,0-0.583-0.183c0-0.274,0-0.365,0.127-0.365c0.256,0,0.475,0.056,1.587,0.056c0.456,0,0.93-0.056,1.387-0.056
		c0.165,0,0.256,0.073,0.256,0.256c0,0.073-0.165,1.478-0.165,2.772v3.43c0,0.292,0,0.674,0.456,0.674
		c0.255,0,0.657-0.072,0.785-0.072c0.072,0,0.109,0,0.109,0.346c0,0.109-0.018,0.146-0.602,0.237
		c-1.55,0.256-1.989,0.474-2.098,0.474c-0.128,0-0.219-0.127-0.219-0.255c0-0.219,0.037-0.511,0.056-0.693
		c-0.913,0.674-2.025,1.003-2.719,1.003c-1.805,0-2.316-1.167-2.316-3.064L475.335,71.884L475.335,71.884z"/>
	<path fill="#F1B82D" d="M485.29,71.537c0-0.638-0.164-1.003-1.076-1.094c-0.146-0.018-0.164-0.091-0.164-0.219
		c0-0.146,0.055-0.237,0.146-0.255c2.079-0.42,2.335-0.894,2.554-0.894c0.036,0,0.072,0.109,0.072,0.182
		c0,0.218-0.091,0.674-0.091,1.659c0.602-0.674,1.587-1.587,2.554-1.587c0.639,0,1.167,0.347,1.167,1.022
		c0,0.474-0.365,0.913-0.894,0.913c-0.748,0-0.858-0.693-1.404-0.693c-0.31,0-0.803,0.274-1.259,0.785
		c-0.128,0.146-0.128,0.346-0.128,0.529v4.141c0,0.674,0,1.076,0.911,1.076c0.676,0,0.748,0.018,0.748,0.218
		c0,0.237-0.072,0.256-0.273,0.256c-0.657,0-1.241-0.037-2.08-0.037c-1.459,0-1.77,0.037-2.116,0.037
		c-0.128,0-0.165-0.11-0.165-0.237c0-0.183,0.219-0.237,0.565-0.237c0.785,0,0.93-0.146,0.93-0.93v-4.635L485.29,71.537
		L485.29,71.537z"/>
	<path fill="#F1B82D" d="M493.861,75.843c0,1.039,0.037,1.259,0.839,1.259c0.401,0,0.437,0.018,0.437,0.237
		c0,0.109,0,0.237-0.183,0.237c-0.091,0-0.328-0.037-1.514-0.037c-1.715,0-2.189,0.037-2.463,0.037c-0.146,0-0.146-0.11-0.146-0.201
		c0-0.237,0.018-0.273,0.693-0.273c0.474,0,0.639-0.183,0.748-0.438c0.072-0.164,0.109-1.459,0.109-2.626v-2.5
		c0-0.638-0.164-1.003-1.076-1.094c-0.146-0.018-0.164-0.091-0.164-0.219c0-0.146,0.055-0.237,0.146-0.255
		c2.079-0.42,2.335-0.894,2.554-0.894c0.072,0,0.109,0.091,0.109,0.2c0,0.073-0.091,0.256-0.091,2.626v3.941H493.861z
		 M492.164,65.573c0-0.493,0.401-0.967,0.948-0.967c0.548,0,0.948,0.474,0.948,0.967c0,0.492-0.401,0.966-0.948,0.966
		S492.164,66.065,492.164,65.573z"/>
</g>
</svg>
