<?xml version="1.0" encoding="utf-8"?>
<!-- Generator: Adobe Illustrator 17.0.0, SVG Export Plug-In . SVG Version: 6.00 Build 0)  -->
<!DOCTYPE svg PUBLIC "-//W3C//DTD SVG 1.1//EN" "http://www.w3.org/Graphics/SVG/1.1/DTD/svg11.dtd">
<svg version="1.1" id="Layer_1" xmlns:sketch="http://www.bohemiancoding.com/sketch/ns"
	 xmlns="http://www.w3.org/2000/svg" xmlns:xlink="http://www.w3.org/1999/xlink" x="0px" y="0px" width="560px" height="44px"
	 viewBox="-159.5 63.875 560 44" enable-background="new -159.5 63.875 560 44" xml:space="preserve">
<g>
	<g>
		<g>
			<path d="M-140.258,106.023c-6.9,0-11.911-1.307-14.894-3.883c-2.571-2.221-2.849-4.733-2.849-5.71V64.375h15.971l1.987,4.654
				l1.988-4.654h15.971V96.43c0,0.977-0.277,3.49-2.849,5.71c-2.982,2.576-7.994,3.883-14.895,3.883
				C-139.827,106.023-140.258,106.023-140.258,106.023z"/>
			<path fill="#CACACA" d="M-122.583,64.875V96.43c0,2.094-1.386,9.093-17.245,9.093c-0.07,0-0.143,0-0.213,0
				c-0.073,0-0.145,0-0.216,0c-15.855,0-17.242-6.999-17.242-9.093V64.875h15.141l2.317,5.428l2.318-5.428H-122.583
				 M-121.583,63.875h-1h-15.141h-0.66l-0.259,0.607l-1.398,3.274l-1.397-3.274l-0.259-0.607h-0.66H-157.5h-1v1V96.43
				c0,1.046,0.294,3.733,3.022,6.089c3.076,2.657,8.197,4.005,15.22,4.005l0.22,0l0.209,0c7.025,0,12.147-1.347,15.224-4.005
				c2.727-2.356,3.022-5.043,3.022-6.089V64.875V63.875L-121.583,63.875z"/>
		</g>
		<path stroke="#CACACA" d="M-140.025,105.523c-0.006,0-0.011,0-0.017,0c-0.006,0-0.011,0-0.016,0H-140.025z"/>
	</g>
	<g>
		<g id="Footer_Brand">
			<path id="Shape_1_" fill="#F1B82E" d="M-140.047,95.819c5.203,0,5.111-1.9,5.145-2.375v-3.018c0-0.61-0.4-1.086-1.133-1.493
				v-2.121h8.937v2.104c-0.733,0.407-1.134,0.882-1.134,1.493v2.694c-0.033,1.968,0.859,6.922-11.814,6.922
				c-12.673,0-11.781-4.954-11.814-6.922v-2.694c0-0.611-0.4-1.086-1.134-1.493v-2.104h8.938v2.121
				c-0.734,0.407-1.134,0.882-1.134,1.493v3.018C-145.159,93.919-145.25,95.819-140.047,95.819L-140.047,95.819L-140.047,95.819
				L-140.047,95.819"/>
			<path id="Shape_2_" fill="#F1B82E" d="M-140.056,77.258l4.319-8.067h8.621v2.104c-0.734,0.407-1.134,0.89-1.134,1.501v6.406
				c0,0.611,0.4,1.086,1.134,1.493v2.104h-8.163v-2.121c0.734-0.407,1.134-0.882,1.134-1.493v-4.879l-4.902,8.493h-2.018
				l-4.902-8.493v4.878c0,0.611,0.4,1.086,1.134,1.493v2.121h-8.162v-2.104c0.733-0.407,1.134-0.882,1.134-1.493v-6.405
				c0-0.611-0.4-1.094-1.134-1.501v-2.104h8.621L-140.056,77.258"/>
		</g>
		<path id="University_of_Missou" fill="#CACACA" d="M-102.836,85.819c0,3.216,1.344,6.024,5.376,6.024
			c2.808,0,5.232-1.56,5.232-7.272v-4.752c0-3.336-0.696-3.336-3.168-3.336c-0.192,0-0.192-0.144-0.192-0.36
			c0-0.288,0.072-0.36,0.192-0.36c0.408,0,1.968,0.096,3.528,0.096c0.744,0,2.784-0.096,3.12-0.096c0.24,0,0.336,0.048,0.336,0.408
			c0,0.096-0.024,0.312-0.216,0.312c-2.304,0-2.784,0-2.784,2.832v5.688c0,6.48-4.128,8.208-6.912,8.208
			c-5.376,0-6.888-3.6-6.888-6.24v-5.496c0-1.704-0.024-2.28-0.048-3.384c-0.024-1.416-0.432-1.608-2.52-1.608
			c-0.264,0-0.264-0.192-0.264-0.408c0-0.144,0.048-0.312,0.216-0.312c0.192,0,2.28,0.096,3.792,0.096
			c1.536,0,3.624-0.096,3.816-0.096c0.168,0,0.216,0.168,0.216,0.312c0,0.216,0,0.408-0.264,0.408c-2.088,0-2.496,0.192-2.52,1.608
			c-0.024,1.104-0.048,1.68-0.048,3.384C-102.836,81.475-102.836,85.819-102.836,85.819z M-84.332,90.643
			c0,1.368,0.048,1.656,1.104,1.656c0.648,0,0.696,0.024,0.696,0.312c0,0.144,0,0.312-0.24,0.312c-0.12,0-0.432-0.048-2.112-0.048
			c-2.256,0-2.88,0.048-3.24,0.048c-0.192,0-0.192-0.144-0.192-0.264c0-0.312,0.024-0.36,0.912-0.36c0.624,0,0.84-0.24,0.984-0.576
			c0.096-0.216,0.144-1.92,0.144-3.456v-3.288c0-0.84-0.216-1.32-1.416-1.44c-0.192-0.024-0.216-0.12-0.216-0.288
			c0-0.192,0.072-0.312,0.192-0.336c2.736-0.552,3.072-1.176,3.36-1.176c0.048,0,0.072,0.072,0.072,0.264
			c0,0.144-0.048,0.672-0.048,1.728c1.248-0.84,2.472-1.656,3.768-1.656c0.816,0,3.168,0.168,3.168,3.6v5.76
			c0,0.408,0.072,0.864,1.56,0.864c0.24,0,0.24,0.144,0.24,0.312c0,0.144,0,0.312-0.336,0.312c-0.72,0-1.152-0.048-2.424-0.048
			c-1.944,0-2.328,0.048-2.52,0.048c-0.144,0-0.168-0.168-0.168-0.288s0.048-0.336,0.336-0.336c1.152,0,1.368-0.096,1.368-0.888
			v-4.296c0-2.232-0.192-3.72-2.688-3.72c-0.912,0-2.208,0.816-2.304,1.104L-84.332,90.643L-84.332,90.643z M-70.868,85.459v5.184
			c0,1.368,0.048,1.656,1.104,1.656c0.528,0,0.576,0.024,0.576,0.312c0,0.144,0,0.312-0.24,0.312c-0.12,0-0.432-0.048-1.992-0.048
			c-2.256,0-2.88,0.048-3.24,0.048c-0.192,0-0.192-0.144-0.192-0.264c0-0.312,0.024-0.36,0.912-0.36c0.624,0,0.84-0.24,0.984-0.576
			c0.096-0.216,0.144-1.92,0.144-3.456v-3.288c0-0.84-0.216-1.32-1.416-1.44c-0.192-0.024-0.216-0.12-0.216-0.288
			c0-0.192,0.072-0.312,0.192-0.336c2.736-0.552,3.072-1.176,3.36-1.176c0.096,0,0.144,0.12,0.144,0.264
			C-70.748,82.099-70.868,82.339-70.868,85.459z M-71.852,78.403c-0.72,0-1.248-0.624-1.248-1.272c0-0.648,0.528-1.272,1.248-1.272
			s1.248,0.624,1.248,1.272C-70.604,77.779-71.132,78.403-71.852,78.403z M-62.492,90.379c2.256-5.016,2.64-5.928,2.64-6.576
			c0-0.696-1.248-0.696-1.608-0.696c-0.144,0-0.216-0.144-0.216-0.336c0-0.12,0.096-0.288,0.312-0.288
			c0.648,0,1.392,0.048,2.064,0.048c0.696,0,1.416-0.048,2.112-0.048c0.168,0,0.216,0.168,0.216,0.288
			c0,0.144-0.024,0.24-0.24,0.264c-1.392,0.216-1.464,0.312-2.232,2.184c-0.84,2.064-2.28,5.088-2.712,6.096
			c-0.672,1.608-0.888,1.896-1.08,1.896c-0.264,0-0.432-0.504-0.912-1.536c-0.84-1.8-2.832-7.656-3.168-8.136
			c-0.24-0.36-0.48-0.384-0.84-0.384c-0.648,0-0.744-0.072-0.744-0.408c0-0.168,0.12-0.264,0.264-0.264
			c0.768,0,1.512,0.048,2.28,0.048c0.48,0,2.376-0.048,2.856-0.048c0.168,0,0.192,0.216,0.192,0.336c0,0.12-0.096,0.288-0.24,0.288
			c-0.72,0-1.392,0.072-1.392,0.576C-64.94,84.475-62.996,89.323-62.492,90.379z M-54.404,86.395
			c-0.072,0.456-0.096,0.912-0.096,1.368c0,1.56,1.32,3.96,3.936,3.96c1.104,0,2.04-0.336,2.808-1.44
			c0.144-0.192,0.24-0.408,0.36-0.408c0.168,0,0.384,0.216,0.384,0.288s-0.96,3.048-4.128,3.048c-3.432,0-5.232-2.112-5.232-5.472
			c0-3.432,2.328-5.76,4.8-5.76c3.984,0,4.296,3.432,4.296,4.152c0,0.24-0.096,0.264-0.288,0.264H-54.404z M-54.26,85.675h3.984
			c0.48,0,0.816-0.144,0.816-0.792c0-1.872-1.296-2.28-2.112-2.28C-53.3,82.603-54.02,84.043-54.26,85.675z M-43.916,84.979
			c0-0.84-0.216-1.32-1.416-1.44c-0.192-0.024-0.216-0.12-0.216-0.288c0-0.192,0.072-0.312,0.192-0.336
			c2.736-0.552,3.072-1.176,3.36-1.176c0.048,0,0.096,0.144,0.096,0.24c0,0.288-0.12,0.888-0.12,2.184
			c0.792-0.888,2.088-2.088,3.36-2.088c0.84,0,1.536,0.456,1.536,1.344c0,0.624-0.48,1.2-1.176,1.2
			c-0.984,0-1.128-0.912-1.848-0.912c-0.408,0-1.056,0.36-1.656,1.032c-0.168,0.192-0.168,0.456-0.168,0.696v5.448
			c0,0.888,0,1.416,1.2,1.416c0.888,0,0.984,0.024,0.984,0.288c0,0.312-0.096,0.336-0.36,0.336c-0.864,0-1.632-0.048-2.736-0.048
			c-1.92,0-2.328,0.048-2.784,0.048c-0.168,0-0.216-0.144-0.216-0.312c0-0.24,0.288-0.312,0.744-0.312
			c1.032,0,1.224-0.192,1.224-1.224V84.979z M-33.188,86.107c2.52,1.2,4.248,1.128,4.248,3.84c0,1.176-0.624,3.264-3.912,3.264
			c-0.432,0-1.824-0.192-2.76-0.192c-0.048,0-0.12-0.072-0.12-0.12c-0.024-0.24-0.552-2.352-0.552-2.592
			c0-0.144,0.336-0.144,0.432-0.144c0.576,0,0.72,2.424,3.024,2.424c1.704,0,2.184-1.296,2.184-2.136
			c0-2.52-5.376-1.704-5.376-5.112c0-1.968,1.632-3.264,3.648-3.264c1.104,0,2.496,0.192,2.592,0.216
			c0.312,0.072,0.36,0.528,0.36,0.672c0.048,0.984,0.264,1.608,0.264,1.92c0,0.144-0.144,0.192-0.264,0.192
			c-0.216,0-0.36-0.024-0.48-0.336c-0.168-0.408-0.792-2.04-2.496-2.04c-1.128,0-1.92,0.648-1.92,1.8
			C-34.316,85.339-33.716,85.843-33.188,86.107z M-23.756,85.459v5.184c0,1.368,0.048,1.656,1.104,1.656
			c0.528,0,0.576,0.024,0.576,0.312c0,0.144,0,0.312-0.24,0.312c-0.12,0-0.432-0.048-1.992-0.048c-2.256,0-2.88,0.048-3.24,0.048
			c-0.192,0-0.192-0.144-0.192-0.264c0-0.312,0.024-0.36,0.912-0.36c0.624,0,0.84-0.24,0.984-0.576
			c0.096-0.216,0.144-1.92,0.144-3.456v-3.288c0-0.84-0.216-1.32-1.416-1.44c-0.192-0.024-0.216-0.12-0.216-0.288
			c0-0.192,0.072-0.312,0.192-0.336c2.736-0.552,3.072-1.176,3.36-1.176c0.096,0,0.144,0.12,0.144,0.264
			C-23.636,82.099-23.756,82.339-23.756,85.459z M-24.74,78.403c-0.72,0-1.248-0.624-1.248-1.272c0-0.648,0.528-1.272,1.248-1.272
			s1.248,0.624,1.248,1.272C-23.492,77.779-24.02,78.403-24.74,78.403z M-17.252,83.611v5.04c0,2.544,0.216,3.456,2.111,3.456
			c0.816,0,1.537-0.552,1.633-0.552s0.264,0.24,0.264,0.384c0,0.144-1.008,1.272-3.191,1.272c-2.76,0-2.76-2.376-2.76-2.976v-6.312
			c0-0.192-0.072-0.312-0.24-0.312h-1.2c-0.072,0-0.144-0.072-0.144-0.216c0-0.096,0.024-0.24,0.144-0.336
			c2.232-1.68,2.688-2.952,3.168-2.952c0.144,0,0.288,0.096,0.288,0.312c0,0.432-0.072,0.84-0.072,2.208h3.412
			c0.045-0.096,0.134-0.144,0.236-0.144c0.287,0,1.799,0.048,2.664,0.048c0.815,0,1.655-0.048,2.375-0.048
			c0.24,0,0.289,0.144,0.289,0.312c0,0.12-0.072,0.312-0.24,0.312c-0.145,0-1.176,0-1.176,0.528c0,1.152,0.815,3.528,2.375,7.536
			c1.104-2.28,3.096-6.504,3.096-7.248c0-0.792-1.127-0.816-1.848-0.816c-0.216,0-0.24-0.12-0.24-0.312
			c0-0.168,0.097-0.312,0.217-0.312c0.768,0,1.56,0.048,2.328,0.048c0.744,0,1.488-0.048,2.231-0.048
			c0.169,0,0.169,0.216,0.169,0.312c0,0.216-0.072,0.288-0.408,0.312c-0.816,0.072-1.152,0.216-1.513,1.056
			c-0.864,1.992-4.176,8.952-4.704,10.296c-1.848,4.632-2.64,4.944-3.432,4.944c-0.768,0-1.344-0.672-1.344-1.416
			c0-0.72,0.695-1.296,1.392-1.296c0.601,0,0.912,0.408,1.2,0.408c0.432,0,1.561-2.304,1.561-3.432c0-0.6-0.576-2.016-0.841-2.688
			c-1.512-3.888-1.968-5.976-2.472-7.32c-0.166-0.424-0.914-0.522-1.393-0.545v0.017c0,0.312-0.144,0.6-0.647,0.6
			C-14.132,83.731-15.26,83.611-17.252,83.611z M14.116,87.643c0-2.352-0.792-4.944-3.312-4.944c-2.496,0-3.289,2.592-3.289,4.944
			c0,2.04,0.48,4.944,3.289,4.944C13.637,92.587,14.116,89.683,14.116,87.643z M16.396,87.643c0,3.36-2.232,5.568-5.592,5.568
			c-3.289,0-5.568-2.376-5.568-5.568c0-3.168,2.375-5.568,5.568-5.568C14.02,82.075,16.396,84.403,16.396,87.643z M21.868,90.883
			c0,0.888,0,1.416,1.2,1.416c0.888,0,0.983,0.024,0.983,0.288c0,0.312-0.096,0.336-0.36,0.336c-0.863,0-1.631-0.048-2.735-0.048
			c-1.92,0-2.328,0.048-2.544,0.048c-0.168,0-0.217-0.144-0.217-0.312c0-0.24,0.049-0.312,0.505-0.312
			c1.032,0,1.224-0.192,1.224-1.224v-6.696c0-0.288,0-0.768-0.456-0.768h-1.319c-0.168,0-0.289,0-0.289-0.312
			c0-0.192,0.168-0.288,0.744-0.408c0.937-0.216,1.176-0.264,1.248-1.344c0.24-3.648,1.32-5.664,4.152-6.408
			c0.385-0.096,1.032-0.192,1.464-0.192c0.624,0,1.513,0.24,1.513,1.032c0,0.696-0.408,1.176-1.129,1.176
			c-0.216,0-0.744-0.072-1.319-0.552c-0.408-0.336-0.841-0.552-1.056-0.552c-1.369,0-1.608,1.992-1.608,3.48v3.096h2.976
			c0.168,0,0.24,0.168,0.24,0.504c0,0.312-0.145,0.6-0.648,0.6c-0.168,0-2.016-0.12-2.567-0.12v7.272H21.868z M42.436,89.299
			c1.801-4.248,3.625-8.64,5.328-13.272c0.072-0.192,0.145-0.264,0.288-0.264c0.12,0,1.872,0.096,2.425,0.096
			c0.407,0,2.447-0.096,2.615-0.096c0.24,0,0.264,0.192,0.264,0.408c0,0.216-0.096,0.312-0.287,0.312
			c-2.16,0-2.424,0.168-2.424,1.272c0,1.56,0.264,6.6,0.504,13.32c0.023,0.816,0.695,1.128,1.319,1.128
			c1.345,0,1.368,0.144,1.368,0.312c0,0.36-0.12,0.408-0.264,0.408c-0.217,0-0.48-0.048-3.816-0.048
			c-3.12,0-3.264,0.048-3.456,0.048c-0.264,0-0.264-0.168-0.264-0.384c0-0.168,0.048-0.336,1.151-0.336
			c1.584,0,1.608-0.384,1.608-1.344c0-1.44-0.36-9.192-0.552-13.68h-0.049c-1.752,4.488-3.959,9.648-5.543,13.512
			c-0.912,2.208-0.912,2.472-1.225,2.472c-0.312,0-0.359-0.216-0.863-1.872c-0.528-1.728-4.44-12.336-4.537-12.336
			c-0.407,1.752-1.991,9.72-1.991,12.12c0,0.744,0.407,1.128,1.2,1.128c0.6,0,1.296,0.048,1.296,0.192c0,0.456,0,0.528-0.265,0.528
			c-0.191,0-0.432-0.048-2.903-0.048c-2.185,0-2.353,0.048-2.496,0.048c-0.192,0-0.265-0.024-0.265-0.408
			c0-0.24,0.121-0.312,1.272-0.312c0.84,0,1.008-0.312,1.272-1.68c0.647-3.456,1.224-6.936,1.968-10.392
			c0.239-1.08,0.312-1.752,0.312-2.256c0-0.144-0.336-1.032-0.623-1.2c-0.193-0.12-1.32-0.192-2.064-0.192
			c-0.288,0-0.288-0.192-0.288-0.36c0-0.192,0.048-0.36,0.264-0.36c0.456,0,2.521,0.096,2.784,0.096
			c0.624,0,1.632-0.096,1.943-0.096c0.265,0,0.336,0.264,0.576,1.128C38.523,78.691,42.004,88.411,42.436,89.299z M58.443,85.459
			v5.184c0,1.368,0.049,1.656,1.104,1.656c0.528,0,0.576,0.024,0.576,0.312c0,0.144,0,0.312-0.24,0.312
			c-0.12,0-0.432-0.048-1.991-0.048c-2.257,0-2.881,0.048-3.24,0.048c-0.192,0-0.192-0.144-0.192-0.264
			c0-0.312,0.024-0.36,0.912-0.36c0.624,0,0.84-0.24,0.983-0.576c0.097-0.216,0.145-1.92,0.145-3.456v-3.288
			c0-0.84-0.216-1.32-1.416-1.44c-0.191-0.024-0.216-0.12-0.216-0.288c0-0.192,0.071-0.312,0.192-0.336
			c2.735-0.552,3.071-1.176,3.359-1.176c0.096,0,0.145,0.12,0.145,0.264C58.564,82.099,58.443,82.339,58.443,85.459z M57.46,78.403
			c-0.72,0-1.248-0.624-1.248-1.272c0-0.648,0.528-1.272,1.248-1.272s1.248,0.624,1.248,1.272
			C58.708,77.779,58.18,78.403,57.46,78.403z M64.564,86.107c2.52,1.2,4.248,1.128,4.248,3.84c0,1.176-0.625,3.264-3.912,3.264
			c-0.433,0-1.824-0.192-2.76-0.192c-0.049,0-0.121-0.072-0.121-0.12c-0.023-0.24-0.552-2.352-0.552-2.592
			c0-0.144,0.337-0.144,0.433-0.144c0.576,0,0.72,2.424,3.023,2.424c1.704,0,2.184-1.296,2.184-2.136
			c0-2.52-5.375-1.704-5.375-5.112c0-1.968,1.632-3.264,3.647-3.264c1.104,0,2.496,0.192,2.593,0.216
			c0.312,0.072,0.359,0.528,0.359,0.672c0.048,0.984,0.264,1.608,0.264,1.92c0,0.144-0.144,0.192-0.264,0.192
			c-0.216,0-0.359-0.024-0.48-0.336c-0.168-0.408-0.791-2.04-2.496-2.04c-1.127,0-1.92,0.648-1.92,1.8
			C63.436,85.339,64.036,85.843,64.564,86.107z M73.443,86.107c2.521,1.2,4.248,1.128,4.248,3.84c0,1.176-0.623,3.264-3.912,3.264
			c-0.432,0-1.823-0.192-2.76-0.192c-0.047,0-0.119-0.072-0.119-0.12c-0.024-0.24-0.553-2.352-0.553-2.592
			c0-0.144,0.336-0.144,0.432-0.144c0.576,0,0.721,2.424,3.025,2.424c1.703,0,2.184-1.296,2.184-2.136
			c0-2.52-5.377-1.704-5.377-5.112c0-1.968,1.633-3.264,3.648-3.264c1.104,0,2.496,0.192,2.592,0.216
			c0.312,0.072,0.36,0.528,0.36,0.672c0.048,0.984,0.265,1.608,0.265,1.92c0,0.144-0.145,0.192-0.265,0.192
			c-0.216,0-0.36-0.024-0.479-0.336c-0.168-0.408-0.793-2.04-2.496-2.04c-1.129,0-1.92,0.648-1.92,1.8
			C72.316,85.339,72.916,85.843,73.443,86.107z M88.324,87.643c0-2.352-0.792-4.944-3.312-4.944c-2.496,0-3.287,2.592-3.287,4.944
			c0,2.04,0.479,4.944,3.287,4.944C87.844,92.587,88.324,89.683,88.324,87.643z M90.604,87.643c0,3.36-2.231,5.568-5.592,5.568
			c-3.287,0-5.568-2.376-5.568-5.568c0-3.168,2.377-5.568,5.568-5.568C88.229,82.075,90.604,84.403,90.604,87.643z M93.604,85.435
			c0-2.112-0.239-2.256-1.487-2.256c-0.192,0-0.528,0-0.528-0.24c0-0.192,0-0.48,0.264-0.48c0.24,0,0.625,0.072,1.416,0.072
			c0.84,0,1.752-0.072,2.088-0.072c0.145,0,0.192,0,0.192,0.336v6.48c0,1.8,0.576,2.832,2.353,2.832
			c0.863,0,2.375-0.528,2.375-1.272v-6.216c0-1.296-0.239-1.44-1.487-1.44c-0.433,0-0.769,0-0.769-0.24c0-0.36,0-0.48,0.168-0.48
			c0.336,0,0.625,0.072,2.088,0.072c0.601,0,1.225-0.072,1.824-0.072c0.217,0,0.336,0.096,0.336,0.336
			c0,0.096-0.215,1.944-0.215,3.648v4.512c0,0.384,0,0.888,0.6,0.888c0.336,0,0.863-0.096,1.031-0.096c0.097,0,0.145,0,0.145,0.456
			c0,0.144-0.023,0.192-0.792,0.312c-2.04,0.336-2.616,0.624-2.761,0.624c-0.168,0-0.287-0.168-0.287-0.336
			c0-0.288,0.048-0.672,0.072-0.912c-1.201,0.888-2.664,1.32-3.576,1.32c-2.377,0-3.049-1.536-3.049-4.032v-3.744H93.604z
			 M106.708,91.075v-6.096c0-0.84-0.216-1.32-1.416-1.44c-0.192-0.024-0.216-0.12-0.216-0.288c0-0.192,0.072-0.312,0.191-0.336
			c2.736-0.552,3.072-1.176,3.36-1.176c0.048,0,0.097,0.144,0.097,0.24c0,0.288-0.121,0.888-0.121,2.184
			c0.793-0.888,2.088-2.088,3.36-2.088c0.841,0,1.536,0.456,1.536,1.344c0,0.624-0.48,1.2-1.176,1.2
			c-0.984,0-1.129-0.912-1.848-0.912c-0.408,0-1.057,0.36-1.656,1.032c-0.168,0.192-0.168,0.456-0.168,0.696v5.448
			c0,0.888,0,1.416,1.199,1.416c0.889,0,0.984,0.024,0.984,0.288c0,0.312-0.096,0.336-0.359,0.336c-0.865,0-1.633-0.048-2.736-0.048
			c-1.92,0-2.328,0.048-2.784,0.048c-0.168,0-0.216-0.144-0.216-0.312c0-0.24,0.287-0.312,0.744-0.312
			C106.516,92.299,106.708,92.107,106.708,91.075z M117.988,85.459v5.184c0,1.368,0.048,1.656,1.104,1.656
			c0.528,0,0.576,0.024,0.576,0.312c0,0.144,0,0.312-0.24,0.312c-0.119,0-0.432-0.048-1.992-0.048c-2.256,0-2.879,0.048-3.24,0.048
			c-0.191,0-0.191-0.144-0.191-0.264c0-0.312,0.023-0.36,0.912-0.36c0.624,0,0.84-0.24,0.984-0.576
			c0.096-0.216,0.144-1.92,0.144-3.456v-3.288c0-0.84-0.216-1.32-1.416-1.44c-0.192-0.024-0.216-0.12-0.216-0.288
			c0-0.192,0.072-0.312,0.191-0.336c2.736-0.552,3.072-1.176,3.36-1.176c0.097,0,0.144,0.12,0.144,0.264
			C118.107,82.099,117.988,82.339,117.988,85.459z M117.004,78.403c-0.72,0-1.248-0.624-1.248-1.272
			c0-0.648,0.528-1.272,1.248-1.272c0.721,0,1.248,0.624,1.248,1.272C118.252,77.779,117.725,78.403,117.004,78.403z"/>
	</g>
</g>
<g>
	<g>
		<g>
			<path d="M139.746,106.024c-16.891,0-17.746-7.992-17.746-9.594V64.375h15.971l1.987,4.656l1.988-4.656h15.971v32.054
				c0,0.978-0.277,3.49-2.849,5.711c-2.983,2.576-7.995,3.883-14.896,3.883L139.746,106.024z"/>
			<path fill="#F1B82D" d="M157.417,64.875v31.554c0,2.095-1.386,9.094-17.245,9.094c-0.076,0-0.153,0-0.23,0v0.001
				c-0.067,0-0.13,0-0.196,0c-15.856,0-17.246-6.999-17.246-9.094V64.875h15.141l2.317,5.429l2.318-5.429H157.417 M158.417,63.875
				h-1h-15.141h-0.66l-0.259,0.607l-1.398,3.275l-1.397-3.274l-0.259-0.607h-0.66H122.5h-1v1V96.43c0,1.046,0.295,3.733,3.024,6.089
				c3.077,2.657,8.199,4.005,15.222,4.005l0.2,0l0.17,0l0.057,0c7.025,0,12.147-1.347,15.223-4.005
				c2.727-2.356,3.022-5.043,3.022-6.09V64.875V63.875L158.417,63.875z"/>
		</g>
		<g>
			<path d="M139.975,105.524c-0.011,0-0.022,0-0.033,0v0H139.975z"/>
			<path fill="#F1B82D" d="M139.944,105.524c0.009,0,0.017,0,0.026,0h-0.028v0C139.943,105.524,139.944,105.524,139.944,105.524
				 M139.975,105.524c-0.001,0-0.002,0-0.002,0c-0.001,0-0.002,0-0.002,0H139.975"/>
		</g>
	</g>
	<g>
		<g id="Footer_Brand_Hover">
			<path id="Shape_4_" fill="#F1B82E" d="M139.953,95.819c5.203,0,5.111-1.9,5.145-2.375v-3.018c0-0.61-0.4-1.087-1.133-1.493v-2.12
				h8.937v2.104c-0.733,0.406-1.134,0.882-1.134,1.492v2.695c-0.033,1.967,0.859,6.922-11.814,6.922s-11.781-4.955-11.814-6.922
				v-2.695c0-0.61-0.4-1.086-1.134-1.492v-2.104h8.938v2.12c-0.734,0.407-1.134,0.883-1.134,1.493v3.018
				C134.841,93.919,134.75,95.819,139.953,95.819L139.953,95.819L139.953,95.819L139.953,95.819"/>
			<path id="Shape_5_" fill="#F1B82E" d="M139.944,77.258l4.319-8.066h8.621v2.104c-0.734,0.407-1.134,0.891-1.134,1.502v6.405
				c0,0.61,0.4,1.086,1.134,1.493V82.8h-8.163v-2.12c0.734-0.407,1.134-0.882,1.134-1.493v-4.879l-4.902,8.492h-2.018l-4.902-8.492
				v4.878c0,0.611,0.4,1.087,1.134,1.493V82.8h-8.162v-2.104c0.733-0.407,1.134-0.882,1.134-1.493v-6.404
				c0-0.611-0.4-1.095-1.134-1.502v-2.104h8.621L139.944,77.258"/>
		</g>
		<path id="University_of_Missou_1_" fill="#F1B82D" d="M195.668,90.643c0,1.368,0.048,1.656,1.104,1.656
			c0.648,0,0.696,0.024,0.696,0.312c0,0.144,0,0.312-0.24,0.312c-0.12,0-0.432-0.048-2.112-0.048c-2.256,0-2.88,0.048-3.24,0.048
			c-0.192,0-0.192-0.144-0.192-0.264c0-0.312,0.024-0.36,0.912-0.36c0.624,0,0.84-0.24,0.984-0.576
			c0.096-0.216,0.144-1.92,0.144-3.455v-3.289c0-0.84-0.216-1.319-1.416-1.439c-0.192-0.023-0.216-0.12-0.216-0.288
			c0-0.192,0.072-0.312,0.192-0.336c2.736-0.552,3.072-1.176,3.36-1.176c0.048,0,0.072,0.071,0.072,0.264
			c0,0.144-0.048,0.672-0.048,1.728c1.248-0.84,2.472-1.655,3.768-1.655c0.816,0,3.168,0.168,3.168,3.6v5.761
			c0,0.407,0.072,0.863,1.56,0.863c0.24,0,0.24,0.145,0.24,0.312c0,0.144,0,0.312-0.336,0.312c-0.72,0-1.152-0.048-2.424-0.048
			c-1.944,0-2.328,0.048-2.52,0.048c-0.144,0-0.168-0.168-0.168-0.288c0-0.119,0.048-0.336,0.336-0.336
			c1.152,0,1.368-0.096,1.368-0.888v-4.298c0-2.232-0.192-3.721-2.688-3.721c-0.912,0-2.208,0.816-2.304,1.104L195.668,90.643
			L195.668,90.643z M177.164,81.475v4.344c0,3.217,1.344,6.024,5.376,6.024c2.808,0,5.232-1.56,5.232-7.272v-4.752
			c0-3.336-0.696-3.336-3.168-3.336c-0.192,0-0.192-0.144-0.192-0.359c0-0.288,0.072-0.359,0.192-0.359
			c0.408,0,1.968,0.096,3.528,0.096c0.744,0,2.784-0.096,3.12-0.096c0.24,0,0.336,0.047,0.336,0.407
			c0,0.097-0.024,0.312-0.216,0.312c-2.304,0-2.784,0-2.784,2.832v5.688c0,6.479-4.128,8.208-6.912,8.208
			c-5.376,0-6.888-3.6-6.888-6.24v-5.497c0-1.703-0.024-2.279-0.048-3.384c-0.024-1.416-0.432-1.608-2.52-1.608
			c-0.264,0-0.264-0.191-0.264-0.407c0-0.144,0.048-0.312,0.216-0.312c0.192,0,2.28,0.096,3.792,0.096
			c1.536,0,3.624-0.096,3.816-0.096c0.168,0,0.216,0.168,0.216,0.312c0,0.216,0,0.407-0.264,0.407c-2.088,0-2.496,0.192-2.52,1.608
			C177.188,79.195,177.164,79.771,177.164,81.475z M209.132,90.643c0,1.368,0.048,1.656,1.104,1.656
			c0.528,0,0.576,0.024,0.576,0.312c0,0.144,0,0.312-0.24,0.312c-0.12,0-0.432-0.048-1.992-0.048c-2.256,0-2.88,0.048-3.24,0.048
			c-0.192,0-0.192-0.144-0.192-0.264c0-0.312,0.024-0.36,0.912-0.36c0.624,0,0.84-0.24,0.984-0.576
			c0.096-0.216,0.144-1.92,0.144-3.455v-3.289c0-0.84-0.216-1.319-1.416-1.439c-0.192-0.023-0.216-0.12-0.216-0.288
			c0-0.192,0.072-0.312,0.192-0.336c2.736-0.552,3.072-1.176,3.36-1.176c0.096,0,0.144,0.12,0.144,0.264
			c0,0.097-0.12,0.336-0.12,3.456C209.132,85.46,209.132,90.643,209.132,90.643z M208.148,78.402c-0.72,0-1.248-0.623-1.248-1.271
			c0-0.648,0.528-1.271,1.248-1.271s1.248,0.623,1.248,1.271C209.396,77.779,208.868,78.402,208.148,78.402z M217.508,90.379
			c2.256-5.016,2.64-5.928,2.64-6.576c0-0.695-1.248-0.695-1.608-0.695c-0.144,0-0.216-0.145-0.216-0.336
			c0-0.121,0.096-0.289,0.312-0.289c0.648,0,1.392,0.049,2.064,0.049c0.696,0,1.416-0.049,2.112-0.049
			c0.168,0,0.216,0.168,0.216,0.289c0,0.144-0.024,0.239-0.24,0.264c-1.392,0.216-1.464,0.312-2.232,2.184
			c-0.84,2.064-2.28,5.088-2.712,6.096c-0.672,1.608-0.888,1.896-1.08,1.896c-0.264,0-0.432-0.504-0.912-1.536
			c-0.84-1.8-2.832-7.655-3.168-8.136c-0.24-0.359-0.48-0.384-0.84-0.384c-0.648,0-0.744-0.072-0.744-0.408
			c0-0.168,0.12-0.265,0.264-0.265c0.768,0,1.512,0.049,2.28,0.049c0.48,0,2.376-0.049,2.856-0.049c0.168,0,0.192,0.217,0.192,0.336
			c0,0.121-0.096,0.289-0.24,0.289c-0.72,0-1.392,0.072-1.392,0.576C215.06,84.475,217.004,89.323,217.508,90.379z M225.596,86.395
			c-0.072,0.457-0.096,0.912-0.096,1.369c0,1.56,1.32,3.959,3.936,3.959c1.104,0,2.04-0.336,2.808-1.439
			c0.144-0.192,0.24-0.408,0.36-0.408c0.168,0,0.384,0.216,0.384,0.288c0,0.071-0.96,3.048-4.128,3.048
			c-3.432,0-5.232-2.111-5.232-5.472c0-3.433,2.328-5.761,4.8-5.761c3.984,0,4.296,3.433,4.296,4.152
			c0,0.24-0.096,0.264-0.288,0.264H225.596z M225.74,85.675h3.984c0.48,0,0.816-0.144,0.816-0.792c0-1.872-1.296-2.279-2.112-2.279
			C226.7,82.604,225.98,84.043,225.74,85.675z M236.084,91.075v-6.097c0-0.84-0.216-1.319-1.416-1.439
			c-0.192-0.023-0.216-0.12-0.216-0.288c0-0.192,0.072-0.312,0.192-0.336c2.736-0.552,3.072-1.176,3.36-1.176
			c0.048,0,0.096,0.144,0.096,0.239c0,0.289-0.12,0.889-0.12,2.185c0.792-0.888,2.088-2.088,3.36-2.088
			c0.84,0,1.536,0.456,1.536,1.344c0,0.624-0.48,1.2-1.176,1.2c-0.984,0-1.128-0.912-1.848-0.912c-0.408,0-1.056,0.359-1.656,1.032
			c-0.168,0.192-0.168,0.456-0.168,0.696v5.447c0,0.889,0,1.416,1.2,1.416c0.888,0,0.984,0.024,0.984,0.288
			c0,0.312-0.096,0.336-0.36,0.336c-0.864,0-1.632-0.048-2.736-0.048c-1.92,0-2.328,0.048-2.784,0.048
			c-0.168,0-0.216-0.144-0.216-0.312c0-0.24,0.288-0.312,0.744-0.312C235.892,92.299,236.084,92.107,236.084,91.075z
			 M246.812,86.107c2.52,1.199,4.248,1.127,4.248,3.84c0,1.176-0.624,3.264-3.912,3.264c-0.432,0-1.824-0.191-2.76-0.191
			c-0.048,0-0.12-0.072-0.12-0.121c-0.024-0.239-0.552-2.352-0.552-2.592c0-0.144,0.336-0.144,0.432-0.144
			c0.576,0,0.72,2.424,3.024,2.424c1.704,0,2.184-1.296,2.184-2.136c0-2.52-5.376-1.704-5.376-5.112
			c0-1.968,1.632-3.264,3.648-3.264c1.104,0,2.496,0.192,2.592,0.216c0.312,0.072,0.36,0.527,0.36,0.672
			c0.048,0.984,0.264,1.607,0.264,1.92c0,0.145-0.144,0.192-0.264,0.192c-0.216,0-0.36-0.024-0.48-0.336
			c-0.168-0.408-0.792-2.04-2.496-2.04c-1.128,0-1.92,0.648-1.92,1.8C245.684,85.339,246.284,85.843,246.812,86.107z
			 M256.244,85.459v5.184c0,1.368,0.048,1.656,1.104,1.656c0.528,0,0.576,0.024,0.576,0.312c0,0.144,0,0.312-0.24,0.312
			c-0.12,0-0.432-0.048-1.992-0.048c-2.256,0-2.88,0.048-3.24,0.048c-0.192,0-0.192-0.144-0.192-0.264
			c0-0.312,0.024-0.36,0.912-0.36c0.624,0,0.84-0.24,0.984-0.576c0.096-0.216,0.144-1.92,0.144-3.455v-3.289
			c0-0.84-0.216-1.319-1.416-1.439c-0.192-0.023-0.216-0.12-0.216-0.288c0-0.192,0.072-0.312,0.192-0.336
			c2.736-0.552,3.072-1.176,3.36-1.176c0.096,0,0.144,0.12,0.144,0.264C256.364,82.1,256.244,82.339,256.244,85.459z M255.26,78.402
			c-0.72,0-1.248-0.623-1.248-1.271c0-0.648,0.528-1.271,1.248-1.271s1.248,0.623,1.248,1.271
			C256.508,77.779,255.98,78.402,255.26,78.402z M262.748,83.611v5.039c0,2.545,0.216,3.457,2.111,3.457
			c0.816,0,1.537-0.553,1.633-0.553c0.096,0,0.264,0.24,0.264,0.385c0,0.144-1.008,1.271-3.191,1.271c-2.76,0-2.76-2.376-2.76-2.977
			v-6.312c0-0.192-0.072-0.312-0.24-0.312h-1.2c-0.072,0-0.144-0.072-0.144-0.217c0-0.096,0.024-0.239,0.144-0.336
			c2.232-1.68,2.688-2.951,3.168-2.951c0.144,0,0.288,0.096,0.288,0.312c0,0.433-0.072,0.84-0.072,2.208h3.412
			c0.045-0.096,0.134-0.145,0.236-0.145c0.287,0,1.799,0.049,2.664,0.049c0.815,0,1.655-0.049,2.375-0.049
			c0.24,0,0.289,0.145,0.289,0.312c0,0.12-0.072,0.312-0.24,0.312c-0.145,0-1.176,0-1.176,0.527c0,1.152,0.815,3.528,2.375,7.536
			c1.104-2.28,3.096-6.504,3.096-7.248c0-0.792-1.127-0.815-1.848-0.815c-0.216,0-0.24-0.121-0.24-0.312
			c0-0.168,0.097-0.312,0.217-0.312c0.768,0,1.56,0.049,2.328,0.049c0.744,0,1.488-0.049,2.231-0.049
			c0.169,0,0.169,0.217,0.169,0.312c0,0.216-0.072,0.288-0.408,0.312c-0.816,0.072-1.152,0.216-1.513,1.056
			c-0.864,1.992-4.176,8.952-4.704,10.296c-1.848,4.632-2.64,4.943-3.432,4.943c-0.768,0-1.344-0.672-1.344-1.416
			c0-0.719,0.695-1.295,1.392-1.295c0.601,0,0.912,0.408,1.2,0.408c0.432,0,1.561-2.305,1.561-3.433
			c0-0.601-0.576-2.017-0.841-2.688c-1.512-3.888-1.968-5.976-2.472-7.319c-0.166-0.425-0.914-0.522-1.393-0.546v0.018
			c0,0.312-0.144,0.6-0.647,0.6C265.868,83.73,264.74,83.611,262.748,83.611z M294.116,87.643c0-2.352-0.792-4.943-3.312-4.943
			c-2.496,0-3.289,2.592-3.289,4.943c0,2.041,0.48,4.944,3.289,4.944C293.637,92.587,294.116,89.684,294.116,87.643z
			 M296.396,87.643c0,3.36-2.232,5.568-5.592,5.568c-3.289,0-5.568-2.376-5.568-5.568c0-3.168,2.375-5.567,5.568-5.567
			C294.02,82.075,296.396,84.402,296.396,87.643z M301.868,90.883c0,0.889,0,1.416,1.2,1.416c0.888,0,0.983,0.024,0.983,0.288
			c0,0.312-0.096,0.336-0.36,0.336c-0.863,0-1.631-0.048-2.735-0.048c-1.92,0-2.328,0.048-2.544,0.048
			c-0.168,0-0.217-0.144-0.217-0.312c0-0.24,0.049-0.312,0.505-0.312c1.032,0,1.224-0.191,1.224-1.224v-6.696
			c0-0.288,0-0.768-0.456-0.768h-1.319c-0.168,0-0.289,0-0.289-0.312c0-0.191,0.168-0.288,0.744-0.408
			c0.937-0.216,1.176-0.264,1.248-1.344c0.24-3.648,1.32-5.664,4.152-6.408c0.385-0.096,1.032-0.191,1.464-0.191
			c0.624,0,1.513,0.24,1.513,1.031c0,0.696-0.408,1.177-1.129,1.177c-0.216,0-0.744-0.072-1.319-0.552
			c-0.408-0.336-0.841-0.553-1.056-0.553c-1.369,0-1.608,1.992-1.608,3.48v3.096h2.976c0.168,0,0.24,0.168,0.24,0.504
			c0,0.312-0.145,0.6-0.648,0.6c-0.168,0-2.016-0.119-2.567-0.119v7.271H301.868z M322.436,89.299
			c1.801-4.248,3.625-8.64,5.328-13.271c0.072-0.192,0.145-0.264,0.288-0.264c0.12,0,1.872,0.096,2.425,0.096
			c0.407,0,2.447-0.096,2.615-0.096c0.24,0,0.264,0.191,0.264,0.407s-0.096,0.312-0.287,0.312c-2.16,0-2.424,0.168-2.424,1.272
			c0,1.56,0.264,6.601,0.504,13.32c0.023,0.815,0.695,1.128,1.319,1.128c1.345,0,1.368,0.145,1.368,0.312
			c0,0.359-0.12,0.407-0.264,0.407c-0.217,0-0.48-0.048-3.816-0.048c-3.12,0-3.264,0.048-3.456,0.048
			c-0.264,0-0.264-0.168-0.264-0.384c0-0.168,0.048-0.336,1.151-0.336c1.584,0,1.608-0.385,1.608-1.344
			c0-1.44-0.36-9.192-0.552-13.68h-0.049c-1.752,4.487-3.959,9.647-5.543,13.512c-0.912,2.207-0.912,2.472-1.225,2.472
			c-0.312,0-0.359-0.216-0.863-1.872c-0.528-1.729-4.44-12.336-4.537-12.336c-0.407,1.752-1.991,9.72-1.991,12.12
			c0,0.743,0.407,1.128,1.2,1.128c0.6,0,1.296,0.048,1.296,0.191c0,0.457,0,0.528-0.265,0.528c-0.191,0-0.432-0.048-2.903-0.048
			c-2.185,0-2.353,0.048-2.496,0.048c-0.192,0-0.265-0.024-0.265-0.407c0-0.24,0.121-0.312,1.272-0.312
			c0.84,0,1.008-0.312,1.272-1.68c0.647-3.457,1.224-6.937,1.968-10.393c0.239-1.08,0.312-1.752,0.312-2.256
			c0-0.145-0.336-1.032-0.623-1.2c-0.193-0.12-1.32-0.192-2.064-0.192c-0.288,0-0.288-0.191-0.288-0.359
			c0-0.191,0.048-0.359,0.264-0.359c0.456,0,2.521,0.096,2.784,0.096c0.624,0,1.632-0.096,1.943-0.096
			c0.265,0,0.336,0.264,0.576,1.127C318.523,78.691,322.004,88.411,322.436,89.299z M338.443,85.459v5.184
			c0,1.368,0.049,1.656,1.104,1.656c0.528,0,0.576,0.024,0.576,0.312c0,0.144,0,0.312-0.24,0.312c-0.12,0-0.432-0.048-1.991-0.048
			c-2.257,0-2.881,0.048-3.24,0.048c-0.192,0-0.192-0.144-0.192-0.264c0-0.312,0.024-0.36,0.912-0.36c0.624,0,0.84-0.24,0.983-0.576
			c0.097-0.216,0.145-1.92,0.145-3.455v-3.289c0-0.84-0.216-1.319-1.416-1.439c-0.191-0.023-0.216-0.12-0.216-0.288
			c0-0.192,0.071-0.312,0.192-0.336c2.735-0.552,3.071-1.176,3.359-1.176c0.096,0,0.145,0.12,0.145,0.264
			C338.564,82.1,338.443,82.339,338.443,85.459z M337.46,78.402c-0.72,0-1.248-0.623-1.248-1.271c0-0.648,0.528-1.271,1.248-1.271
			s1.248,0.623,1.248,1.271C338.708,77.779,338.18,78.402,337.46,78.402z M344.564,86.107c2.52,1.199,4.248,1.127,4.248,3.84
			c0,1.176-0.625,3.264-3.912,3.264c-0.433,0-1.824-0.191-2.76-0.191c-0.049,0-0.121-0.072-0.121-0.121
			c-0.023-0.239-0.552-2.352-0.552-2.592c0-0.144,0.337-0.144,0.433-0.144c0.576,0,0.72,2.424,3.023,2.424
			c1.704,0,2.184-1.296,2.184-2.136c0-2.52-5.375-1.704-5.375-5.112c0-1.968,1.632-3.264,3.647-3.264
			c1.104,0,2.496,0.192,2.593,0.216c0.312,0.072,0.359,0.527,0.359,0.672c0.048,0.984,0.264,1.607,0.264,1.92
			c0,0.145-0.144,0.192-0.264,0.192c-0.216,0-0.359-0.024-0.48-0.336c-0.168-0.408-0.791-2.04-2.496-2.04
			c-1.127,0-1.92,0.648-1.92,1.8C343.436,85.339,344.036,85.843,344.564,86.107z M353.443,86.107
			c2.521,1.199,4.248,1.127,4.248,3.84c0,1.176-0.623,3.264-3.912,3.264c-0.432,0-1.823-0.191-2.76-0.191
			c-0.047,0-0.119-0.072-0.119-0.121c-0.024-0.239-0.553-2.352-0.553-2.592c0-0.144,0.336-0.144,0.432-0.144
			c0.576,0,0.721,2.424,3.025,2.424c1.703,0,2.184-1.296,2.184-2.136c0-2.52-5.377-1.704-5.377-5.112
			c0-1.968,1.633-3.264,3.648-3.264c1.104,0,2.496,0.192,2.592,0.216c0.312,0.072,0.36,0.527,0.36,0.672
			c0.048,0.984,0.265,1.607,0.265,1.92c0,0.145-0.145,0.192-0.265,0.192c-0.216,0-0.36-0.024-0.479-0.336
			c-0.168-0.408-0.793-2.04-2.496-2.04c-1.129,0-1.92,0.648-1.92,1.8C352.316,85.339,352.916,85.843,353.443,86.107z
			 M368.324,87.643c0-2.352-0.792-4.943-3.312-4.943c-2.496,0-3.287,2.592-3.287,4.943c0,2.041,0.479,4.944,3.287,4.944
			C367.844,92.587,368.324,89.684,368.324,87.643z M370.604,87.643c0,3.36-2.231,5.568-5.592,5.568
			c-3.287,0-5.568-2.376-5.568-5.568c0-3.168,2.377-5.567,5.568-5.567C368.229,82.075,370.604,84.402,370.604,87.643z
			 M373.604,85.436c0-2.112-0.239-2.256-1.487-2.256c-0.192,0-0.528,0-0.528-0.24c0-0.192,0-0.48,0.264-0.48
			c0.24,0,0.625,0.072,1.416,0.072c0.84,0,1.752-0.072,2.088-0.072c0.145,0,0.192,0,0.192,0.336v6.48c0,1.8,0.576,2.832,2.353,2.832
			c0.863,0,2.375-0.528,2.375-1.272V84.62c0-1.296-0.239-1.439-1.487-1.439c-0.433,0-0.769,0-0.769-0.24c0-0.36,0-0.48,0.168-0.48
			c0.336,0,0.625,0.072,2.088,0.072c0.601,0,1.225-0.072,1.824-0.072c0.217,0,0.336,0.096,0.336,0.336
			c0,0.096-0.215,1.944-0.215,3.648v4.512c0,0.384,0,0.888,0.6,0.888c0.336,0,0.863-0.096,1.031-0.096c0.097,0,0.145,0,0.145,0.456
			c0,0.145-0.023,0.191-0.792,0.312c-2.04,0.336-2.616,0.623-2.761,0.623c-0.168,0-0.287-0.168-0.287-0.336
			c0-0.287,0.048-0.672,0.072-0.912c-1.201,0.889-2.664,1.32-3.576,1.32c-2.377,0-3.049-1.536-3.049-4.031v-3.745H373.604z
			 M386.708,91.075v-6.097c0-0.84-0.216-1.319-1.416-1.439c-0.192-0.023-0.216-0.12-0.216-0.288c0-0.192,0.072-0.312,0.191-0.336
			c2.736-0.552,3.072-1.176,3.36-1.176c0.048,0,0.097,0.144,0.097,0.239c0,0.289-0.121,0.889-0.121,2.185
			c0.793-0.888,2.088-2.088,3.36-2.088c0.841,0,1.536,0.456,1.536,1.344c0,0.624-0.48,1.2-1.176,1.2
			c-0.984,0-1.129-0.912-1.848-0.912c-0.408,0-1.057,0.359-1.656,1.032c-0.168,0.192-0.168,0.456-0.168,0.696v5.447
			c0,0.889,0,1.416,1.199,1.416c0.889,0,0.984,0.024,0.984,0.288c0,0.312-0.096,0.336-0.359,0.336c-0.865,0-1.633-0.048-2.736-0.048
			c-1.92,0-2.328,0.048-2.784,0.048c-0.168,0-0.216-0.144-0.216-0.312c0-0.24,0.287-0.312,0.744-0.312
			C386.516,92.299,386.708,92.107,386.708,91.075z M397.988,85.459v5.184c0,1.368,0.048,1.656,1.104,1.656
			c0.528,0,0.576,0.024,0.576,0.312c0,0.144,0,0.312-0.24,0.312c-0.119,0-0.432-0.048-1.992-0.048c-2.256,0-2.879,0.048-3.24,0.048
			c-0.191,0-0.191-0.144-0.191-0.264c0-0.312,0.023-0.36,0.912-0.36c0.624,0,0.84-0.24,0.984-0.576
			c0.096-0.216,0.144-1.92,0.144-3.455v-3.289c0-0.84-0.216-1.319-1.416-1.439c-0.192-0.023-0.216-0.12-0.216-0.288
			c0-0.192,0.072-0.312,0.191-0.336c2.736-0.552,3.072-1.176,3.36-1.176c0.097,0,0.144,0.12,0.144,0.264
			C398.107,82.1,397.988,82.339,397.988,85.459z M397.004,78.402c-0.72,0-1.248-0.623-1.248-1.271c0-0.648,0.528-1.271,1.248-1.271
			c0.721,0,1.248,0.623,1.248,1.271C398.252,77.779,397.725,78.402,397.004,78.402z"/>
	</g>
</g>
</svg>
