<?xml version="1.0" encoding="utf-8"?>
<!-- Generator: Adobe Illustrator 17.0.0, SVG Export Plug-In . SVG Version: 6.00 Build 0)  -->
<!DOCTYPE svg PUBLIC "-//W3C//DTD SVG 1.1//EN" "http://www.w3.org/Graphics/SVG/1.1/DTD/svg11.dtd">
<svg version="1.1" id="Layer_1" xmlns="http://www.w3.org/2000/svg" xmlns:xlink="http://www.w3.org/1999/xlink" x="0px" y="0px"
	 width="24px" height="24px" viewBox="0 0 24 24" enable-background="new 0 0 24 24" xml:space="preserve">
<g>
	<path fill="#FEEDC2" d="M12,23.5C5.659,23.5,0.5,18.341,0.5,12C0.5,5.659,5.659,0.5,12,0.5c6.341,0,11.5,5.159,11.5,11.5
		C23.5,18.341,18.341,23.5,12,23.5z"/>
	<path d="M12,1c6.065,0,11,4.935,11,11s-4.935,11-11,11S1,18.065,1,12S5.935,1,12,1 M12,0C5.373,0,0,5.373,0,12s5.373,12,12,12
		s12-5.373,12-12S18.627,0,12,0L12,0z"/>
</g>
<text transform="matrix(1 0 0 1 8.6206 20.106)" font-family="'HelveticaNeue-Bold'" font-size="22.702">!</text>
</svg>
