<?xml version="1.0" encoding="utf-8"?>
<!-- Generator: Adobe Illustrator 17.0.0, SVG Export Plug-In . SVG Version: 6.00 Build 0)  -->
<!DOCTYPE svg PUBLIC "-//W3C//DTD SVG 1.1//EN" "http://www.w3.org/Graphics/SVG/1.1/DTD/svg11.dtd">
<svg version="1.1" id="Layer_1" xmlns:sketch="http://www.bohemiancoding.com/sketch/ns"
	 xmlns="http://www.w3.org/2000/svg" xmlns:xlink="http://www.w3.org/1999/xlink" x="0px" y="0px" width="820px" height="90px"
	 viewBox="106.5 189.5 820 90" enable-background="new 106.5 189.5 820 90" xml:space="preserve">
<g>
	<g>
		<g>
			<g>
				<path d="M133.179,250.44c-10.349,0-17.844-1.895-22.277-5.629c-3.748-3.157-4.152-6.707-4.152-8.087V189.75h23.396l3.354,7.664
					l3.354-7.664h23.396v46.974c0,1.38-0.404,4.931-4.15,8.087c-4.433,3.734-11.927,5.629-22.275,5.629
					C133.824,250.44,133.179,250.44,133.179,250.44z"/>
				<path fill="#B38218" d="M160,190.001v46.724c0,3.101-2.105,13.465-26.179,13.465c-0.106,0-0.214,0-0.321-0.001
					c-0.109,0-0.213,0.001-0.321,0.001c-24.071,0-26.179-10.365-26.179-13.465v-46.724h22.982l3.517,8.038l3.518-8.038H160
					 M160.5,189.501H160h-22.983h-0.327l-0.131,0.299l-3.06,6.991l-3.059-6.991l-0.131-0.3h-0.327H107h-0.5v0.5v46.724
					c0,1.415,0.413,5.053,4.241,8.278c4.48,3.774,12.029,5.688,22.438,5.688l0.323-0.001l0.319,0.001
					c10.41,0,17.96-1.914,22.439-5.688c3.827-3.224,4.24-6.863,4.24-8.278V190V189.501L160.5,189.501z"/>
			</g>
		</g>
		<g>
			<path id="Shape_4_" fill="#F1B82D" d="M133.491,236.414c8.196,0,8.05-2.92,8.103-3.649v-4.637c0-0.938-0.631-1.669-1.785-2.294
				v-3.259h14.078v3.233c-1.154,0.625-1.786,1.355-1.786,2.294v4.14c-0.052,3.024,1.354,10.636-18.608,10.636
				s-18.558-7.612-18.61-10.636v-4.14c0-0.939-0.629-1.669-1.786-2.294v-3.233h14.079v3.258c-1.156,0.625-1.786,1.355-1.786,2.294
				v4.637C125.44,233.494,125.296,236.414,133.491,236.414L133.491,236.414L133.491,236.414L133.491,236.414"/>
			<path id="Shape_5_" fill="#F1B82D" d="M133.478,207.893l6.802-12.396h13.58v3.232c-1.155,0.626-1.785,1.369-1.785,2.308v9.843
				c0,0.939,0.631,1.669,1.785,2.294v3.233h-12.857v-3.258c1.155-0.626,1.785-1.355,1.785-2.294v-7.498l-7.721,13.05h-3.179
				l-7.721-13.05v7.497c0,0.938,0.629,1.669,1.786,2.294v3.258h-12.857v-3.233c1.155-0.626,1.786-1.355,1.786-2.294v-9.842
				c0-0.939-0.631-1.681-1.786-2.308v-3.232h13.579L133.478,207.893"/>
		</g>
	</g>
	<g>
		<path d="M183.112,263.582c0,3.157,1.32,5.913,5.277,5.913c2.755,0,5.135-1.53,5.135-7.137v-4.664c0-3.275-0.683-3.275-3.111-3.275
			c-0.189,0-0.189-0.141-0.189-0.352c0-0.284,0.071-0.354,0.189-0.354c0.402,0,1.932,0.093,3.463,0.093
			c0.73,0,2.732-0.093,3.062-0.093c0.236,0,0.331,0.046,0.331,0.399c0,0.094-0.023,0.306-0.213,0.306c-2.261,0-2.732,0-2.732,2.779
			v5.583c0,6.359-4.051,8.055-6.783,8.055c-5.277,0-6.76-3.533-6.76-6.123v-5.395c0-1.671-0.025-2.238-0.048-3.321
			c-0.025-1.389-0.424-1.578-2.473-1.578c-0.26,0-0.26-0.189-0.26-0.402c0-0.141,0.048-0.305,0.213-0.305
			c0.189,0,2.238,0.093,3.723,0.093c1.508,0,3.557-0.093,3.745-0.093c0.165,0,0.212,0.164,0.212,0.305c0,0.213,0,0.402-0.258,0.402
			c-2.049,0-2.451,0.189-2.473,1.578c-0.023,1.083-0.048,1.65-0.048,3.321v4.265H183.112z"/>
		<path d="M201.265,268.319c0,1.343,0.048,1.626,1.083,1.626c0.635,0,0.683,0.023,0.683,0.306c0,0.141,0,0.306-0.236,0.306
			c-0.118,0-0.424-0.048-2.072-0.048c-2.214,0-2.826,0.048-3.18,0.048c-0.189,0-0.189-0.142-0.189-0.26
			c0-0.306,0.025-0.353,0.895-0.353c0.612,0,0.825-0.236,0.966-0.567c0.094-0.212,0.141-1.884,0.141-3.392v-3.228
			c0-0.824-0.212-1.295-1.389-1.413c-0.189-0.023-0.212-0.117-0.212-0.283c0-0.189,0.071-0.306,0.189-0.329
			c2.684-0.542,3.015-1.154,3.298-1.154c0.046,0,0.071,0.071,0.071,0.258c0,0.141-0.048,0.66-0.048,1.695
			c1.224-0.824,2.426-1.626,3.698-1.626c0.802,0,3.109,0.165,3.109,3.534v5.653c0,0.399,0.071,0.848,1.53,0.848
			c0.236,0,0.236,0.141,0.236,0.306c0,0.141,0,0.306-0.329,0.306c-0.708,0-1.131-0.048-2.38-0.048c-1.907,0-2.285,0.048-2.473,0.048
			c-0.141,0-0.165-0.165-0.165-0.283c0-0.117,0.048-0.329,0.331-0.329c1.131,0,1.343-0.094,1.343-0.873v-4.216
			c0-2.19-0.189-3.65-2.638-3.65c-0.894,0-2.165,0.801-2.261,1.083L201.265,268.319L201.265,268.319z"/>
		<path d="M214.473,268.319c0,1.343,0.048,1.626,1.083,1.626c0.518,0,0.564,0.023,0.564,0.306c0,0.141,0,0.306-0.236,0.306
			c-0.118,0-0.424-0.048-1.955-0.048c-2.214,0-2.826,0.048-3.18,0.048c-0.189,0-0.189-0.142-0.189-0.26
			c0-0.306,0.023-0.353,0.895-0.353c0.612,0,0.825-0.236,0.966-0.567c0.093-0.212,0.141-1.884,0.141-3.392v-3.228
			c0-0.824-0.212-1.295-1.389-1.413c-0.189-0.023-0.212-0.117-0.212-0.283c0-0.189,0.071-0.306,0.189-0.329
			c2.684-0.542,3.015-1.154,3.298-1.154c0.093,0,0.141,0.118,0.141,0.258c0,0.094-0.118,0.331-0.118,3.392v5.09H214.473z
			 M212.283,255.056c0-0.637,0.518-1.249,1.224-1.249c0.708,0,1.224,0.612,1.224,1.249c0,0.635-0.518,1.247-1.224,1.247
			S212.283,255.692,212.283,255.056z"/>
		<path d="M225.283,261.604c0-0.683-1.225-0.683-1.579-0.683c-0.141,0-0.212-0.141-0.212-0.329c0-0.117,0.093-0.283,0.306-0.283
			c0.637,0,1.366,0.048,2.026,0.048c0.683,0,1.389-0.048,2.072-0.048c0.165,0,0.213,0.165,0.213,0.283
			c0,0.141-0.025,0.234-0.236,0.258c-1.366,0.212-1.437,0.306-2.191,2.142c-0.824,2.026-2.238,4.994-2.661,5.984
			c-0.66,1.578-0.87,1.859-1.059,1.859c-0.26,0-0.424-0.495-0.895-1.508c-0.825-1.766-2.779-7.514-3.109-7.985
			c-0.236-0.354-0.471-0.377-0.825-0.377c-0.635,0-0.73-0.071-0.73-0.402c0-0.165,0.118-0.258,0.26-0.258
			c0.753,0,1.484,0.048,2.238,0.048c0.471,0,2.331-0.048,2.802-0.048c0.165,0,0.189,0.212,0.189,0.329
			c0,0.118-0.093,0.283-0.236,0.283c-0.705,0-1.365,0.071-1.365,0.564c0,0.777,1.907,5.535,2.403,6.572
			C224.905,263.136,225.283,262.241,225.283,261.604z"/>
		<path d="M230.625,264.149c-0.071,0.447-0.093,0.894-0.093,1.343c0,1.53,1.295,3.885,3.863,3.885c1.083,0,2.001-0.329,2.757-1.413
			c0.141-0.189,0.236-0.402,0.352-0.402c0.165,0,0.378,0.213,0.378,0.283s-0.943,2.99-4.051,2.99c-3.369,0-5.136-2.072-5.136-5.37
			c0-3.368,2.285-5.652,4.712-5.652c3.909,0,4.215,3.369,4.215,4.074c0,0.236-0.093,0.26-0.281,0.26L230.625,264.149
			L230.625,264.149z M234.678,263.442c0.47,0,0.801-0.142,0.801-0.777c0-1.837-1.272-2.238-2.072-2.238
			c-1.697,0-2.403,1.413-2.638,3.015H234.678z"/>
		<path d="M240.915,262.759c0-0.824-0.212-1.295-1.389-1.413c-0.189-0.023-0.212-0.118-0.212-0.283c0-0.189,0.071-0.306,0.189-0.329
			c2.684-0.542,3.015-1.154,3.298-1.154c0.046,0,0.093,0.141,0.093,0.236c0,0.281-0.118,0.87-0.118,2.142
			c0.777-0.87,2.049-2.049,3.298-2.049c0.825,0,1.508,0.448,1.508,1.32c0,0.612-0.471,1.179-1.154,1.179
			c-0.966,0-1.108-0.895-1.814-0.895c-0.402,0-1.038,0.354-1.626,1.014c-0.165,0.189-0.165,0.447-0.165,0.683v5.347
			c0,0.87,0,1.389,1.178,1.389c0.873,0,0.966,0.023,0.966,0.281c0,0.306-0.093,0.331-0.352,0.331c-0.848,0-1.602-0.048-2.686-0.048
			c-1.884,0-2.285,0.048-2.732,0.048c-0.165,0-0.213-0.142-0.213-0.306c0-0.236,0.283-0.306,0.73-0.306
			c1.014,0,1.201-0.189,1.201-1.201v-5.986H240.915L240.915,262.759z"/>
		<path d="M255.609,267.634c0,1.154-0.612,3.204-3.84,3.204c-0.424,0-1.79-0.189-2.709-0.189c-0.046,0-0.116-0.071-0.116-0.117
			c-0.025-0.236-0.542-2.307-0.542-2.544c0-0.141,0.329-0.141,0.424-0.141c0.564,0,0.705,2.378,2.967,2.378
			c1.673,0,2.142-1.272,2.142-2.096c0-2.473-5.276-1.673-5.276-5.019c0-1.932,1.601-3.204,3.579-3.204
			c1.083,0,2.451,0.189,2.544,0.213c0.306,0.071,0.354,0.518,0.354,0.66c0.048,0.966,0.26,1.578,0.26,1.884
			c0,0.141-0.142,0.189-0.26,0.189c-0.212,0-0.354-0.023-0.471-0.329c-0.164-0.402-0.776-2.003-2.449-2.003
			c-1.108,0-1.884,0.637-1.884,1.768c0,0.824,0.588,1.32,1.107,1.578C253.914,265.043,255.609,264.973,255.609,267.634z"/>
		<path d="M260.694,268.319c0,1.343,0.048,1.626,1.083,1.626c0.518,0,0.564,0.023,0.564,0.306c0,0.141,0,0.306-0.236,0.306
			c-0.117,0-0.424-0.048-1.955-0.048c-2.214,0-2.826,0.048-3.18,0.048c-0.189,0-0.189-0.142-0.189-0.26
			c0-0.306,0.023-0.353,0.895-0.353c0.612,0,0.825-0.236,0.966-0.567c0.093-0.212,0.141-1.884,0.141-3.392v-3.228
			c0-0.824-0.212-1.295-1.389-1.413c-0.189-0.023-0.212-0.117-0.212-0.283c0-0.189,0.071-0.306,0.189-0.329
			c2.684-0.542,3.015-1.154,3.298-1.154c0.093,0,0.141,0.118,0.141,0.258c0,0.094-0.117,0.331-0.117,3.392v5.09H260.694z
			 M258.504,255.056c0-0.637,0.518-1.249,1.224-1.249c0.708,0,1.224,0.612,1.224,1.249c0,0.635-0.518,1.247-1.224,1.247
			C259.02,256.304,258.504,255.692,258.504,255.056z"/>
		<path d="M267.075,266.362c0,2.497,0.213,3.393,2.074,3.393c0.801,0,1.508-0.542,1.601-0.542c0.094,0,0.258,0.234,0.258,0.377
			c0,0.141-0.989,1.247-3.133,1.247c-2.708,0-2.708-2.331-2.708-2.921v-6.195c0-0.189-0.072-0.306-0.236-0.306h-1.179
			c-0.071,0-0.141-0.071-0.141-0.212c0-0.094,0.023-0.236,0.141-0.331c2.19-1.649,2.638-2.898,3.109-2.898
			c0.141,0,0.281,0.094,0.281,0.306c0,0.424-0.071,0.825-0.071,2.167h3.627c0.165,0,0.236,0.165,0.236,0.495
			c0,0.306-0.141,0.589-0.635,0.589c-0.165,0-1.272-0.118-3.228-0.118v4.948L267.075,266.362L267.075,266.362z"/>
		<path d="M279.861,261.722c0-0.777-1.107-0.801-1.814-0.801c-0.212,0-0.236-0.117-0.236-0.306c0-0.165,0.094-0.306,0.213-0.306
			c0.753,0,1.53,0.048,2.285,0.048c0.73,0,1.46-0.048,2.19-0.048c0.165,0,0.165,0.212,0.165,0.306c0,0.212-0.071,0.283-0.402,0.306
			c-0.801,0.071-1.131,0.213-1.485,1.036c-0.848,1.956-4.098,8.787-4.616,10.105c-1.814,4.545-2.591,4.851-3.369,4.851
			c-0.753,0-1.32-0.66-1.32-1.389c0-0.708,0.683-1.272,1.366-1.272c0.589,0,0.895,0.402,1.178,0.402
			c0.424,0,1.531-2.262,1.531-3.369c0-0.589-0.567-1.979-0.825-2.638c-1.485-3.816-1.932-5.865-2.426-7.184
			c-0.213-0.542-1.389-0.542-1.695-0.542c-0.165,0-0.213-0.165-0.213-0.329c0-0.19,0.117-0.283,0.258-0.283
			c0.283,0,1.768,0.048,2.616,0.048c0.801,0,1.626-0.048,2.332-0.048c0.234,0,0.281,0.141,0.281,0.306
			c0,0.117-0.071,0.306-0.236,0.306c-0.141,0-1.154,0-1.154,0.519c0,1.13,0.801,3.462,2.332,7.395
			C277.906,266.597,279.861,262.451,279.861,261.722z"/>
		<path d="M294.599,270.838c-3.228,0-5.466-2.331-5.466-5.464c0-3.109,2.332-5.466,5.466-5.466c3.156,0,5.488,2.285,5.488,5.466
			C300.088,268.671,297.897,270.838,294.599,270.838z M294.599,260.521c-2.451,0-3.228,2.545-3.228,4.854
			c0,2.001,0.471,4.851,3.228,4.851c2.779,0,3.251-2.85,3.251-4.851C297.85,263.066,297.073,260.521,294.599,260.521z"/>
		<path d="M305.453,268.554c0,0.87,0,1.389,1.179,1.389c0.87,0,0.966,0.023,0.966,0.281c0,0.306-0.094,0.331-0.354,0.331
			c-0.848,0-1.602-0.048-2.686-0.048c-1.884,0-2.285,0.048-2.496,0.048c-0.165,0-0.213-0.142-0.213-0.306
			c0-0.236,0.048-0.306,0.495-0.306c1.014,0,1.201-0.189,1.201-1.201v-6.572c0-0.283,0-0.754-0.447-0.754h-1.296
			c-0.164,0-0.281,0-0.281-0.306c0-0.189,0.165-0.283,0.73-0.399c0.918-0.213,1.154-0.26,1.224-1.32
			c0.236-3.582,1.296-5.559,4.075-6.288c0.377-0.094,1.014-0.19,1.437-0.19c0.612,0,1.484,0.236,1.484,1.014
			c0,0.683-0.399,1.154-1.107,1.154c-0.213,0-0.73-0.071-1.296-0.542c-0.399-0.329-0.824-0.542-1.036-0.542
			c-1.343,0-1.578,1.956-1.578,3.417v3.038h2.921c0.165,0,0.236,0.165,0.236,0.495c0,0.306-0.141,0.589-0.635,0.589
			c-0.165,0-1.979-0.117-2.52-0.117L305.453,268.554L305.453,268.554z"/>
		<path d="M330.862,253.973c0.071-0.19,0.142-0.258,0.283-0.258c0.117,0,1.836,0.093,2.378,0.093c0.402,0,2.403-0.093,2.568-0.093
			c0.236,0,0.258,0.187,0.258,0.399c0,0.213-0.093,0.306-0.281,0.306c-2.121,0-2.38,0.165-2.38,1.249
			c0,1.53,0.258,6.477,0.495,13.074c0.025,0.801,0.684,1.107,1.296,1.107c1.32,0,1.343,0.141,1.343,0.306
			c0,0.354-0.118,0.402-0.258,0.402c-0.213,0-0.471-0.048-3.745-0.048c-3.063,0-3.203,0.048-3.393,0.048
			c-0.258,0-0.258-0.165-0.258-0.377c0-0.165,0.048-0.331,1.131-0.331c1.555,0,1.578-0.377,1.578-1.32
			c0-1.413-0.354-9.021-0.542-13.425h-0.048c-1.719,4.404-3.885,9.469-5.441,13.26c-0.895,2.167-0.895,2.427-1.201,2.427
			c-0.306,0-0.354-0.213-0.848-1.837c-0.519-1.695-4.358-12.108-4.452-12.108c-0.399,1.72-1.955,9.541-1.955,11.896
			c0,0.73,0.399,1.107,1.178,1.107c0.589,0,1.272,0.048,1.272,0.189c0,0.448,0,0.519-0.258,0.519c-0.189,0-0.424-0.048-2.85-0.048
			c-2.145,0-2.307,0.048-2.451,0.048c-0.189,0-0.258-0.025-0.258-0.402c0-0.236,0.117-0.306,1.249-0.306
			c0.824,0,0.989-0.306,1.247-1.649c0.637-3.393,1.201-6.807,1.932-10.199c0.236-1.06,0.306-1.72,0.306-2.214
			c0-0.141-0.329-1.014-0.612-1.179c-0.189-0.118-1.295-0.189-2.025-0.189c-0.283,0-0.283-0.189-0.283-0.352
			c0-0.19,0.048-0.354,0.258-0.354c0.448,0,2.473,0.093,2.734,0.093c0.612,0,1.601-0.093,1.907-0.093
			c0.26,0,0.331,0.258,0.567,1.107c0.495,1.766,3.91,11.306,4.335,12.178C327.4,262.83,329.191,258.518,330.862,253.973z"/>
		<path d="M341.336,268.319c0,1.343,0.048,1.626,1.083,1.626c0.518,0,0.564,0.023,0.564,0.306c0,0.141,0,0.306-0.236,0.306
			c-0.117,0-0.424-0.048-1.955-0.048c-2.214,0-2.826,0.048-3.18,0.048c-0.189,0-0.189-0.142-0.189-0.26
			c0-0.306,0.023-0.353,0.895-0.353c0.612,0,0.825-0.236,0.966-0.567c0.093-0.212,0.141-1.884,0.141-3.392v-3.228
			c0-0.824-0.212-1.295-1.389-1.413c-0.189-0.023-0.212-0.117-0.212-0.283c0-0.189,0.071-0.306,0.189-0.329
			c2.684-0.542,3.015-1.154,3.298-1.154c0.093,0,0.141,0.118,0.141,0.258c0,0.094-0.118,0.331-0.118,3.392v5.09H341.336z
			 M339.145,255.056c0-0.637,0.518-1.249,1.224-1.249c0.708,0,1.224,0.612,1.224,1.249c0,0.635-0.518,1.247-1.224,1.247
			S339.145,255.692,339.145,255.056z"/>
		<path d="M351.508,267.634c0,1.154-0.612,3.204-3.84,3.204c-0.424,0-1.79-0.189-2.709-0.189c-0.046,0-0.116-0.071-0.116-0.117
			c-0.025-0.236-0.542-2.307-0.542-2.544c0-0.141,0.329-0.141,0.424-0.141c0.564,0,0.705,2.378,2.967,2.378
			c1.673,0,2.142-1.272,2.142-2.096c0-2.473-5.276-1.673-5.276-5.019c0-1.932,1.601-3.204,3.579-3.204
			c1.083,0,2.451,0.189,2.544,0.213c0.306,0.071,0.354,0.518,0.354,0.66c0.048,0.966,0.26,1.578,0.26,1.884
			c0,0.141-0.142,0.189-0.26,0.189c-0.212,0-0.354-0.023-0.471-0.329c-0.164-0.402-0.776-2.003-2.449-2.003
			c-1.108,0-1.884,0.637-1.884,1.768c0,0.824,0.587,1.32,1.107,1.578C349.813,265.043,351.508,264.973,351.508,267.634z"/>
		<path d="M360.22,267.634c0,1.154-0.612,3.204-3.84,3.204c-0.424,0-1.79-0.189-2.709-0.189c-0.047,0-0.116-0.071-0.116-0.117
			c-0.025-0.236-0.542-2.307-0.542-2.544c0-0.141,0.329-0.141,0.424-0.141c0.564,0,0.705,2.378,2.967,2.378
			c1.673,0,2.142-1.272,2.142-2.096c0-2.473-5.276-1.673-5.276-5.019c0-1.932,1.601-3.204,3.579-3.204
			c1.083,0,2.451,0.189,2.544,0.213c0.306,0.071,0.354,0.518,0.354,0.66c0.048,0.966,0.26,1.578,0.26,1.884
			c0,0.141-0.142,0.189-0.26,0.189c-0.212,0-0.354-0.023-0.471-0.329c-0.164-0.402-0.776-2.003-2.449-2.003
			c-1.108,0-1.884,0.637-1.884,1.768c0,0.824,0.587,1.32,1.107,1.578C358.525,265.043,360.22,264.973,360.22,267.634z"/>
		<path d="M367.402,270.838c-3.228,0-5.466-2.331-5.466-5.464c0-3.109,2.332-5.466,5.466-5.466c3.156,0,5.488,2.285,5.488,5.466
			C372.89,268.671,370.699,270.838,367.402,270.838z M367.402,260.521c-2.451,0-3.228,2.545-3.228,4.854
			c0,2.001,0.471,4.851,3.228,4.851c2.78,0,3.251-2.85,3.251-4.851C370.652,263.066,369.875,260.521,367.402,260.521z"/>
		<path d="M375.829,263.207c0-2.072-0.236-2.214-1.46-2.214c-0.19,0-0.519,0-0.519-0.236c0-0.189,0-0.471,0.258-0.471
			c0.236,0,0.612,0.072,1.389,0.072c0.825,0,1.72-0.072,2.049-0.072c0.142,0,0.189,0,0.189,0.331v6.359
			c0,1.768,0.567,2.781,2.31,2.781c0.848,0,2.331-0.519,2.331-1.249v-6.101c0-1.272-0.236-1.414-1.46-1.414
			c-0.424,0-0.753,0-0.753-0.236c0-0.354,0-0.471,0.164-0.471c0.331,0,0.613,0.072,2.049,0.072c0.589,0,1.201-0.072,1.791-0.072
			c0.213,0,0.331,0.094,0.331,0.331c0,0.094-0.213,1.908-0.213,3.579v4.429c0,0.377,0,0.87,0.589,0.87
			c0.329,0,0.848-0.093,1.014-0.093c0.093,0,0.141,0,0.141,0.447c0,0.141-0.023,0.189-0.777,0.306
			c-2.001,0.331-2.568,0.612-2.709,0.612c-0.165,0-0.283-0.164-0.283-0.329c0-0.283,0.048-0.66,0.072-0.895
			c-1.179,0.87-2.616,1.295-3.511,1.295c-2.331,0-2.99-1.508-2.99-3.956V263.207L375.829,263.207z"/>
		<path d="M388.684,262.759c0-0.824-0.212-1.295-1.389-1.413c-0.189-0.023-0.212-0.118-0.212-0.283c0-0.189,0.071-0.306,0.189-0.329
			c2.684-0.542,3.015-1.154,3.298-1.154c0.046,0,0.093,0.141,0.093,0.236c0,0.281-0.118,0.87-0.118,2.142
			c0.777-0.87,2.049-2.049,3.298-2.049c0.825,0,1.508,0.448,1.508,1.32c0,0.612-0.471,1.179-1.154,1.179
			c-0.966,0-1.108-0.895-1.814-0.895c-0.402,0-1.038,0.354-1.626,1.014c-0.165,0.189-0.165,0.447-0.165,0.683v5.347
			c0,0.87,0,1.389,1.178,1.389c0.873,0,0.966,0.023,0.966,0.281c0,0.306-0.093,0.331-0.353,0.331c-0.848,0-1.602-0.048-2.686-0.048
			c-1.884,0-2.285,0.048-2.732,0.048c-0.165,0-0.213-0.142-0.213-0.306c0-0.236,0.283-0.306,0.73-0.306
			c1.014,0,1.201-0.189,1.201-1.201v-5.986H388.684L388.684,262.759z"/>
		<path d="M399.751,268.319c0,1.343,0.048,1.626,1.083,1.626c0.518,0,0.564,0.023,0.564,0.306c0,0.141,0,0.306-0.236,0.306
			c-0.118,0-0.424-0.048-1.955-0.048c-2.214,0-2.827,0.048-3.18,0.048c-0.189,0-0.189-0.142-0.189-0.26
			c0-0.306,0.023-0.353,0.895-0.353c0.612,0,0.825-0.236,0.966-0.567c0.093-0.212,0.141-1.884,0.141-3.392v-3.228
			c0-0.824-0.212-1.295-1.389-1.413c-0.189-0.023-0.212-0.117-0.212-0.283c0-0.189,0.071-0.306,0.189-0.329
			c2.684-0.542,3.015-1.154,3.298-1.154c0.093,0,0.141,0.118,0.141,0.258c0,0.094-0.117,0.331-0.117,3.392v5.09H399.751z
			 M397.561,255.056c0-0.637,0.518-1.249,1.224-1.249c0.708,0,1.224,0.612,1.224,1.249c0,0.635-0.518,1.247-1.224,1.247
			C398.078,256.304,397.561,255.692,397.561,255.056z"/>
	</g>
</g>
<g>
	<g>
		<g>
			<path d="M733.179,250.44c-10.349,0-17.844-1.895-22.277-5.629c-3.748-3.157-4.152-6.707-4.152-8.087V189.75h23.396l3.354,7.664
				l3.354-7.664h23.396v46.974c0,1.38-0.404,4.931-4.15,8.087c-4.433,3.734-11.927,5.629-22.275,5.629
				C733.824,250.44,733.179,250.44,733.179,250.44z"/>
			<path fill="#B38218" d="M760,190.001v46.724c0,3.101-2.105,13.465-26.179,13.465c-0.106,0-0.214,0-0.321-0.001
				c-0.109,0-0.213,0.001-0.321,0.001c-24.071,0-26.179-10.365-26.179-13.465v-46.724h22.982l3.517,8.038l3.518-8.038H760
				 M760.5,189.501H760h-22.983h-0.327l-0.131,0.299l-3.06,6.991l-3.059-6.991l-0.131-0.3h-0.327H707h-0.5v0.5v46.724
				c0,1.415,0.413,5.053,4.241,8.278c4.48,3.774,12.029,5.688,22.438,5.688l0.323-0.001l0.319,0.001
				c10.41,0,17.96-1.914,22.439-5.688c3.827-3.224,4.24-6.863,4.24-8.278V190V189.501L760.5,189.501z"/>
		</g>
	</g>
	<g>
		<path id="Shape_6_" fill="#F1B82D" d="M733.491,236.414c8.196,0,8.05-2.92,8.103-3.649v-4.637c0-0.938-0.631-1.669-1.785-2.294
			v-3.259h14.078v3.233c-1.154,0.625-1.786,1.355-1.786,2.294v4.14c-0.052,3.024,1.354,10.636-18.608,10.636
			c-19.962,0-18.558-7.612-18.61-10.636v-4.14c0-0.939-0.629-1.669-1.786-2.294v-3.233h14.079v3.258
			c-1.156,0.625-1.786,1.355-1.786,2.294v4.637C725.44,233.494,725.296,236.414,733.491,236.414L733.491,236.414L733.491,236.414
			L733.491,236.414"/>
		<path id="Shape_3_" fill="#F1B82D" d="M733.478,207.893l6.802-12.396h13.58v3.232c-1.155,0.626-1.785,1.369-1.785,2.308v9.843
			c0,0.939,0.631,1.669,1.785,2.294v3.233h-12.857v-3.258c1.155-0.626,1.785-1.355,1.785-2.294v-7.498l-7.721,13.05h-3.179
			l-7.721-13.05v7.497c0,0.938,0.629,1.669,1.786,2.294v3.258h-12.857v-3.233c1.155-0.626,1.786-1.355,1.786-2.294v-9.842
			c0-0.939-0.631-1.681-1.786-2.308v-3.232h13.579L733.478,207.893"/>
	</g>
</g>
<g>
	<path d="M779.889,268.575c0,2.094,0.875,3.921,3.5,3.921c1.827,0,3.405-1.015,3.405-4.733v-3.093c0-2.171-0.453-2.171-2.063-2.171
		c-0.125,0-0.125-0.093-0.125-0.234c0-0.188,0.047-0.235,0.125-0.235c0.266,0,1.281,0.062,2.297,0.062
		c0.484,0,1.812-0.062,2.03-0.062c0.157,0,0.219,0.031,0.219,0.265c0,0.063-0.015,0.203-0.141,0.203c-1.499,0-1.812,0-1.812,1.843
		v3.702c0,4.217-2.686,5.341-4.498,5.341c-3.5,0-4.483-2.343-4.483-4.06v-3.577c0-1.108-0.016-1.484-0.032-2.202
		c-0.016-0.921-0.281-1.046-1.64-1.046c-0.172,0-0.172-0.125-0.172-0.266c0-0.093,0.032-0.202,0.141-0.202
		c0.125,0,1.484,0.062,2.469,0.062c1,0,2.359-0.062,2.483-0.062c0.11,0,0.14,0.109,0.14,0.202c0,0.141,0,0.266-0.171,0.266
		c-1.359,0-1.625,0.125-1.64,1.046c-0.015,0.718-0.032,1.094-0.032,2.202v2.828H779.889z"/>
	<path d="M791.927,271.716c0,0.891,0.032,1.078,0.718,1.078c0.421,0,0.453,0.015,0.453,0.203c0,0.093,0,0.203-0.157,0.203
		c-0.078,0-0.281-0.032-1.374-0.032c-1.469,0-1.874,0.032-2.109,0.032c-0.125,0-0.125-0.094-0.125-0.172
		c0-0.203,0.016-0.234,0.593-0.234c0.406,0,0.547-0.157,0.641-0.376c0.062-0.14,0.093-1.249,0.093-2.249v-2.141
		c0-0.546-0.14-0.859-0.921-0.937c-0.125-0.015-0.14-0.078-0.14-0.188c0-0.125,0.047-0.203,0.125-0.218
		c1.78-0.36,1.999-0.766,2.187-0.766c0.031,0,0.047,0.047,0.047,0.171c0,0.093-0.032,0.438-0.032,1.124
		c0.812-0.546,1.609-1.078,2.452-1.078c0.532,0,2.062,0.11,2.062,2.344v3.749c0,0.265,0.047,0.563,1.015,0.563
		c0.157,0,0.157,0.093,0.157,0.203c0,0.093,0,0.203-0.218,0.203c-0.469,0-0.75-0.032-1.578-0.032c-1.265,0-1.516,0.032-1.64,0.032
		c-0.093,0-0.11-0.11-0.11-0.188c0-0.078,0.032-0.218,0.219-0.218c0.75,0,0.891-0.062,0.891-0.579v-2.796
		c0-1.452-0.125-2.421-1.749-2.421c-0.593,0-1.436,0.531-1.499,0.718L791.927,271.716L791.927,271.716z"/>
	<path d="M800.686,271.716c0,0.891,0.032,1.078,0.718,1.078c0.343,0,0.374,0.015,0.374,0.203c0,0.093,0,0.203-0.157,0.203
		c-0.078,0-0.281-0.032-1.296-0.032c-1.468,0-1.874,0.032-2.109,0.032c-0.125,0-0.125-0.094-0.125-0.172
		c0-0.203,0.015-0.234,0.593-0.234c0.406,0,0.547-0.157,0.64-0.376c0.062-0.14,0.093-1.249,0.093-2.249v-2.141
		c0-0.546-0.14-0.859-0.921-0.937c-0.125-0.015-0.14-0.078-0.14-0.188c0-0.125,0.047-0.203,0.125-0.218
		c1.78-0.36,1.999-0.766,2.187-0.766c0.062,0,0.093,0.078,0.093,0.171c0,0.062-0.078,0.219-0.078,2.249v3.375H800.686z
		 M799.234,262.921c0-0.422,0.343-0.828,0.812-0.828c0.469,0,0.812,0.406,0.812,0.828c0,0.421-0.343,0.827-0.812,0.827
		S799.234,263.343,799.234,262.921z"/>
	<path d="M807.855,267.264c0-0.453-0.813-0.453-1.047-0.453c-0.093,0-0.14-0.093-0.14-0.218c0-0.078,0.062-0.188,0.203-0.188
		c0.422,0,0.906,0.032,1.344,0.032c0.453,0,0.921-0.032,1.374-0.032c0.11,0,0.141,0.11,0.141,0.188c0,0.093-0.016,0.155-0.157,0.171
		c-0.906,0.14-0.953,0.203-1.453,1.421c-0.546,1.343-1.484,3.312-1.765,3.968c-0.438,1.046-0.577,1.233-0.702,1.233
		c-0.172,0-0.281-0.328-0.593-1c-0.547-1.171-1.843-4.983-2.062-5.295c-0.157-0.235-0.313-0.25-0.547-0.25
		c-0.421,0-0.484-0.047-0.484-0.266c0-0.11,0.078-0.171,0.172-0.171c0.499,0,0.984,0.032,1.484,0.032
		c0.312,0,1.546-0.032,1.858-0.032c0.11,0,0.125,0.14,0.125,0.218s-0.062,0.188-0.157,0.188c-0.468,0-0.905,0.047-0.905,0.374
		c0,0.515,1.265,3.671,1.594,4.358C807.604,268.279,807.855,267.686,807.855,267.264z"/>
	<path d="M811.397,268.951c-0.047,0.296-0.062,0.593-0.062,0.891c0,1.015,0.859,2.577,2.562,2.577c0.718,0,1.327-0.218,1.828-0.937
		c0.093-0.125,0.157-0.266,0.234-0.266c0.11,0,0.251,0.141,0.251,0.188c0,0.046-0.625,1.983-2.686,1.983
		c-2.234,0-3.406-1.374-3.406-3.561c0-2.233,1.516-3.748,3.125-3.748c2.592,0,2.795,2.234,2.795,2.702
		c0,0.157-0.062,0.172-0.187,0.172L811.397,268.951L811.397,268.951z M814.085,268.482c0.312,0,0.531-0.094,0.531-0.515
		c0-1.218-0.843-1.484-1.374-1.484c-1.125,0-1.594,0.937-1.749,1.999H814.085z"/>
	<path d="M818.221,268.029c0-0.546-0.14-0.859-0.921-0.937c-0.125-0.015-0.14-0.078-0.14-0.188c0-0.125,0.047-0.203,0.125-0.218
		c1.78-0.36,1.999-0.766,2.187-0.766c0.031,0,0.062,0.093,0.062,0.157c0,0.187-0.078,0.577-0.078,1.421
		c0.516-0.577,1.359-1.359,2.187-1.359c0.547,0,1,0.297,1,0.875c0,0.406-0.313,0.782-0.766,0.782c-0.641,0-0.735-0.593-1.203-0.593
		c-0.266,0-0.688,0.235-1.078,0.672c-0.11,0.125-0.11,0.296-0.11,0.453v3.546c0,0.577,0,0.921,0.781,0.921
		c0.579,0,0.641,0.015,0.641,0.187c0,0.203-0.062,0.219-0.234,0.219c-0.563,0-1.063-0.032-1.781-0.032
		c-1.249,0-1.516,0.032-1.812,0.032c-0.11,0-0.141-0.094-0.141-0.203c0-0.157,0.188-0.203,0.484-0.203
		c0.672,0,0.796-0.125,0.796-0.796v-3.97H818.221L818.221,268.029z"/>
	<path d="M827.965,271.262c0,0.766-0.406,2.124-2.547,2.124c-0.281,0-1.187-0.125-1.796-0.125c-0.031,0-0.077-0.047-0.077-0.078
		c-0.016-0.157-0.36-1.53-0.36-1.687c0-0.093,0.218-0.093,0.281-0.093c0.374,0,0.468,1.577,1.968,1.577
		c1.11,0,1.421-0.843,1.421-1.39c0-1.64-3.499-1.11-3.499-3.328c0-1.281,1.062-2.124,2.374-2.124c0.718,0,1.625,0.125,1.687,0.141
		c0.203,0.047,0.235,0.343,0.235,0.438c0.032,0.64,0.172,1.046,0.172,1.249c0,0.093-0.094,0.125-0.172,0.125
		c-0.14,0-0.235-0.015-0.313-0.218c-0.109-0.266-0.515-1.328-1.624-1.328c-0.735,0-1.249,0.422-1.249,1.172
		c0,0.546,0.39,0.875,0.734,1.046C826.841,269.544,827.965,269.497,827.965,271.262z"/>
	<path d="M831.337,271.716c0,0.891,0.032,1.078,0.718,1.078c0.343,0,0.374,0.015,0.374,0.203c0,0.093,0,0.203-0.157,0.203
		c-0.078,0-0.281-0.032-1.296-0.032c-1.469,0-1.874,0.032-2.109,0.032c-0.125,0-0.125-0.094-0.125-0.172
		c0-0.203,0.015-0.234,0.593-0.234c0.406,0,0.547-0.157,0.641-0.376c0.062-0.14,0.093-1.249,0.093-2.249v-2.141
		c0-0.546-0.14-0.859-0.921-0.937c-0.125-0.015-0.14-0.078-0.14-0.188c0-0.125,0.047-0.203,0.125-0.218
		c1.78-0.36,1.999-0.766,2.187-0.766c0.062,0,0.093,0.078,0.093,0.171c0,0.062-0.078,0.219-0.078,2.249v3.375H831.337z
		 M829.885,262.921c0-0.422,0.343-0.828,0.812-0.828c0.469,0,0.812,0.406,0.812,0.828c0,0.421-0.343,0.827-0.812,0.827
		C830.227,263.749,829.885,263.343,829.885,262.921z"/>
	<path d="M835.568,270.419c0,1.656,0.141,2.25,1.375,2.25c0.531,0,1-0.36,1.062-0.36c0.062,0,0.171,0.155,0.171,0.25
		c0,0.093-0.656,0.827-2.077,0.827c-1.796,0-1.796-1.546-1.796-1.937v-4.108c0-0.125-0.048-0.203-0.157-0.203h-0.782
		c-0.047,0-0.093-0.047-0.093-0.14c0-0.063,0.015-0.157,0.093-0.219c1.452-1.093,1.749-1.921,2.062-1.921
		c0.093,0,0.187,0.063,0.187,0.203c0,0.281-0.047,0.547-0.047,1.437h2.405c0.11,0,0.157,0.11,0.157,0.328
		c0,0.203-0.093,0.39-0.421,0.39c-0.11,0-0.843-0.078-2.141-0.078v3.281L835.568,270.419L835.568,270.419z"/>
	<path d="M844.047,267.341c0-0.515-0.734-0.531-1.203-0.531c-0.14,0-0.157-0.078-0.157-0.203c0-0.11,0.062-0.203,0.141-0.203
		c0.499,0,1.015,0.032,1.516,0.032c0.484,0,0.968-0.032,1.452-0.032c0.11,0,0.11,0.14,0.11,0.203c0,0.14-0.047,0.188-0.266,0.203
		c-0.531,0.047-0.75,0.141-0.985,0.687c-0.563,1.297-2.718,5.827-3.061,6.701c-1.203,3.014-1.719,3.217-2.234,3.217
		c-0.499,0-0.875-0.438-0.875-0.921c0-0.469,0.453-0.843,0.906-0.843c0.39,0,0.593,0.266,0.781,0.266c0.281,0,1.016-1.5,1.016-2.234
		c0-0.39-0.376-1.313-0.547-1.749c-0.985-2.53-1.281-3.889-1.609-4.764c-0.141-0.36-0.921-0.36-1.124-0.36
		c-0.11,0-0.141-0.11-0.141-0.218c0-0.126,0.078-0.188,0.171-0.188c0.188,0,1.172,0.032,1.735,0.032
		c0.531,0,1.078-0.032,1.546-0.032c0.155,0,0.187,0.093,0.187,0.203c0,0.078-0.047,0.203-0.157,0.203c-0.093,0-0.766,0-0.766,0.344
		c0,0.749,0.531,2.296,1.546,4.904C842.751,270.575,844.047,267.825,844.047,267.341z"/>
	<path d="M853.821,273.387c-2.141,0-3.625-1.546-3.625-3.624c0-2.062,1.546-3.625,3.625-3.625c2.093,0,3.639,1.516,3.639,3.625
		C857.461,271.95,856.008,273.387,853.821,273.387z M853.821,266.545c-1.625,0-2.141,1.688-2.141,3.219
		c0,1.327,0.313,3.217,2.141,3.217c1.843,0,2.156-1.89,2.156-3.217C855.977,268.233,855.461,266.545,853.821,266.545z"/>
	<path d="M861.018,271.872c0,0.577,0,0.921,0.782,0.921c0.577,0,0.64,0.015,0.64,0.187c0,0.203-0.062,0.219-0.235,0.219
		c-0.563,0-1.063-0.032-1.781-0.032c-1.249,0-1.516,0.032-1.655,0.032c-0.11,0-0.141-0.094-0.141-0.203
		c0-0.157,0.032-0.203,0.328-0.203c0.672,0,0.796-0.125,0.796-0.796v-4.358c0-0.188,0-0.5-0.296-0.5h-0.86
		c-0.109,0-0.187,0-0.187-0.203c0-0.125,0.11-0.188,0.484-0.265c0.609-0.141,0.766-0.172,0.812-0.875
		c0.157-2.375,0.86-3.686,2.702-4.17c0.25-0.063,0.672-0.126,0.953-0.126c0.406,0,0.984,0.157,0.984,0.672
		c0,0.453-0.265,0.766-0.734,0.766c-0.141,0-0.484-0.047-0.86-0.36c-0.265-0.218-0.546-0.36-0.687-0.36
		c-0.891,0-1.046,1.297-1.046,2.266v2.015h1.937c0.11,0,0.157,0.11,0.157,0.328c0,0.203-0.093,0.39-0.421,0.39
		c-0.11,0-1.313-0.078-1.671-0.078L861.018,271.872L861.018,271.872z"/>
	<path d="M877.868,262.203c0.047-0.126,0.094-0.171,0.188-0.171c0.078,0,1.218,0.062,1.577,0.062c0.266,0,1.594-0.062,1.703-0.062
		c0.157,0,0.171,0.124,0.171,0.265c0,0.141-0.062,0.203-0.187,0.203c-1.407,0-1.578,0.11-1.578,0.828
		c0,1.015,0.171,4.295,0.328,8.67c0.016,0.531,0.454,0.734,0.86,0.734c0.875,0,0.891,0.093,0.891,0.203
		c0,0.235-0.078,0.266-0.171,0.266c-0.141,0-0.312-0.032-2.483-0.032c-2.031,0-2.124,0.032-2.25,0.032
		c-0.171,0-0.171-0.11-0.171-0.25c0-0.11,0.032-0.219,0.75-0.219c1.031,0,1.046-0.25,1.046-0.875c0-0.937-0.235-5.982-0.36-8.903
		h-0.032c-1.14,2.921-2.577,6.279-3.608,8.793c-0.593,1.437-0.593,1.61-0.796,1.61c-0.203,0-0.235-0.141-0.563-1.218
		c-0.344-1.124-2.89-8.029-2.952-8.029c-0.265,1.141-1.296,6.327-1.296,7.889c0,0.484,0.265,0.734,0.781,0.734
		c0.391,0,0.843,0.032,0.843,0.125c0,0.297,0,0.344-0.171,0.344c-0.125,0-0.281-0.032-1.89-0.032c-1.422,0-1.53,0.032-1.625,0.032
		c-0.125,0-0.171-0.016-0.171-0.266c0-0.157,0.078-0.203,0.828-0.203c0.546,0,0.656-0.203,0.827-1.093
		c0.422-2.25,0.796-4.514,1.281-6.764c0.157-0.703,0.203-1.141,0.203-1.468c0-0.093-0.218-0.672-0.406-0.782
		c-0.125-0.078-0.859-0.125-1.343-0.125c-0.188,0-0.188-0.125-0.188-0.234c0-0.126,0.032-0.235,0.171-0.235
		c0.297,0,1.64,0.062,1.813,0.062c0.406,0,1.062-0.062,1.265-0.062c0.172,0,0.219,0.171,0.376,0.734
		c0.328,1.171,2.593,7.497,2.874,8.075C875.572,268.076,876.76,265.217,877.868,262.203z"/>
	<path d="M884.814,271.716c0,0.891,0.032,1.078,0.718,1.078c0.343,0,0.374,0.015,0.374,0.203c0,0.093,0,0.203-0.157,0.203
		c-0.078,0-0.281-0.032-1.296-0.032c-1.468,0-1.874,0.032-2.109,0.032c-0.125,0-0.125-0.094-0.125-0.172
		c0-0.203,0.015-0.234,0.593-0.234c0.406,0,0.547-0.157,0.64-0.376c0.062-0.14,0.093-1.249,0.093-2.249v-2.141
		c0-0.546-0.14-0.859-0.921-0.937c-0.125-0.015-0.14-0.078-0.14-0.188c0-0.125,0.047-0.203,0.125-0.218
		c1.78-0.36,1.999-0.766,2.187-0.766c0.062,0,0.093,0.078,0.093,0.171c0,0.062-0.078,0.219-0.078,2.249v3.375H884.814z
		 M883.361,262.921c0-0.422,0.343-0.828,0.812-0.828c0.469,0,0.812,0.406,0.812,0.828c0,0.421-0.343,0.827-0.812,0.827
		S883.361,263.343,883.361,262.921z"/>
	<path d="M891.56,271.262c0,0.766-0.406,2.124-2.547,2.124c-0.281,0-1.187-0.125-1.796-0.125c-0.031,0-0.077-0.047-0.077-0.078
		c-0.016-0.157-0.36-1.53-0.36-1.687c0-0.093,0.218-0.093,0.281-0.093c0.374,0,0.468,1.577,1.968,1.577
		c1.11,0,1.421-0.843,1.421-1.39c0-1.64-3.499-1.11-3.499-3.328c0-1.281,1.062-2.124,2.374-2.124c0.718,0,1.625,0.125,1.687,0.141
		c0.203,0.047,0.235,0.343,0.235,0.438c0.032,0.64,0.172,1.046,0.172,1.249c0,0.093-0.094,0.125-0.172,0.125
		c-0.14,0-0.235-0.015-0.313-0.218c-0.109-0.266-0.515-1.328-1.624-1.328c-0.735,0-1.249,0.422-1.249,1.172
		c0,0.546,0.39,0.875,0.734,1.046C890.435,269.544,891.56,269.497,891.56,271.262z"/>
	<path d="M897.337,271.262c0,0.766-0.406,2.124-2.547,2.124c-0.281,0-1.187-0.125-1.796-0.125c-0.031,0-0.077-0.047-0.077-0.078
		c-0.016-0.157-0.36-1.53-0.36-1.687c0-0.093,0.218-0.093,0.281-0.093c0.374,0,0.468,1.577,1.968,1.577
		c1.11,0,1.421-0.843,1.421-1.39c0-1.64-3.499-1.11-3.499-3.328c0-1.281,1.062-2.124,2.374-2.124c0.718,0,1.625,0.125,1.687,0.141
		c0.203,0.047,0.235,0.343,0.235,0.438c0.032,0.64,0.172,1.046,0.172,1.249c0,0.093-0.094,0.125-0.172,0.125
		c-0.14,0-0.235-0.015-0.313-0.218c-0.109-0.266-0.515-1.328-1.624-1.328c-0.735,0-1.249,0.422-1.249,1.172
		c0,0.546,0.39,0.875,0.734,1.046C896.213,269.544,897.337,269.497,897.337,271.262z"/>
	<path d="M902.099,273.387c-2.141,0-3.625-1.546-3.625-3.624c0-2.062,1.546-3.625,3.625-3.625c2.093,0,3.639,1.516,3.639,3.625
		C905.738,271.95,904.285,273.387,902.099,273.387z M902.099,266.545c-1.625,0-2.141,1.688-2.141,3.219
		c0,1.327,0.313,3.217,2.141,3.217c1.844,0,2.156-1.89,2.156-3.217C904.255,268.233,903.739,266.545,902.099,266.545z"/>
	<path d="M907.687,268.326c0-1.374-0.157-1.468-0.968-1.468c-0.126,0-0.344,0-0.344-0.157c0-0.125,0-0.313,0.171-0.313
		c0.157,0,0.406,0.048,0.921,0.048c0.547,0,1.141-0.048,1.359-0.048c0.094,0,0.125,0,0.125,0.219v4.217
		c0,1.172,0.376,1.844,1.532,1.844c0.563,0,1.546-0.344,1.546-0.828v-4.046c0-0.843-0.157-0.938-0.968-0.938
		c-0.281,0-0.499,0-0.499-0.157c0-0.235,0-0.313,0.109-0.313c0.219,0,0.407,0.048,1.359,0.048c0.39,0,0.796-0.048,1.188-0.048
		c0.141,0,0.219,0.062,0.219,0.219c0,0.062-0.141,1.266-0.141,2.374v2.937c0,0.25,0,0.577,0.39,0.577
		c0.218,0,0.563-0.062,0.672-0.062c0.062,0,0.093,0,0.093,0.296c0,0.093-0.015,0.125-0.515,0.203
		c-1.327,0.219-1.703,0.406-1.796,0.406c-0.11,0-0.188-0.109-0.188-0.218c0-0.188,0.032-0.438,0.048-0.593
		c-0.782,0.577-1.735,0.859-2.328,0.859c-1.546,0-1.983-1-1.983-2.624V268.326L907.687,268.326z"/>
	<path d="M916.212,268.029c0-0.546-0.14-0.859-0.921-0.937c-0.125-0.015-0.14-0.078-0.14-0.188c0-0.125,0.047-0.203,0.125-0.218
		c1.78-0.36,1.999-0.766,2.187-0.766c0.031,0,0.062,0.093,0.062,0.157c0,0.187-0.078,0.577-0.078,1.421
		c0.515-0.577,1.359-1.359,2.187-1.359c0.547,0,1,0.297,1,0.875c0,0.406-0.313,0.782-0.766,0.782c-0.64,0-0.735-0.593-1.203-0.593
		c-0.266,0-0.688,0.235-1.078,0.672c-0.11,0.125-0.11,0.296-0.11,0.453v3.546c0,0.577,0,0.921,0.781,0.921
		c0.579,0,0.64,0.015,0.64,0.187c0,0.203-0.062,0.219-0.234,0.219c-0.563,0-1.063-0.032-1.781-0.032
		c-1.249,0-1.516,0.032-1.812,0.032c-0.11,0-0.141-0.094-0.141-0.203c0-0.157,0.188-0.203,0.484-0.203
		c0.672,0,0.796-0.125,0.796-0.796v-3.97H916.212L916.212,268.029z"/>
	<path d="M923.551,271.716c0,0.891,0.032,1.078,0.718,1.078c0.343,0,0.374,0.015,0.374,0.203c0,0.093,0,0.203-0.157,0.203
		c-0.078,0-0.281-0.032-1.296-0.032c-1.469,0-1.874,0.032-2.109,0.032c-0.125,0-0.125-0.094-0.125-0.172
		c0-0.203,0.015-0.234,0.593-0.234c0.406,0,0.547-0.157,0.64-0.376c0.062-0.14,0.093-1.249,0.093-2.249v-2.141
		c0-0.546-0.14-0.859-0.921-0.937c-0.125-0.015-0.14-0.078-0.14-0.188c0-0.125,0.047-0.203,0.125-0.218
		c1.78-0.36,1.999-0.766,2.187-0.766c0.062,0,0.093,0.078,0.093,0.171c0,0.062-0.078,0.219-0.078,2.249v3.375H923.551z
		 M922.099,262.921c0-0.422,0.343-0.828,0.812-0.828c0.469,0,0.812,0.406,0.812,0.828c0,0.421-0.343,0.827-0.812,0.827
		C922.442,263.749,922.099,263.343,922.099,262.921z"/>
</g>
<g>
	<g>
		<g>
			<g>
				<path d="M433.179,250.44c-10.349,0-17.844-1.895-22.277-5.629c-3.748-3.157-4.152-6.707-4.152-8.087V189.75h23.396l3.354,7.664
					l3.354-7.664h23.396v46.974c0,1.38-0.404,4.931-4.15,8.087c-4.433,3.734-11.927,5.629-22.275,5.629
					C433.824,250.44,433.179,250.44,433.179,250.44z"/>
				<path fill="#FFFFFF" d="M460,190.001v46.724c0,3.101-2.105,13.465-26.179,13.465c-0.106,0-0.214,0-0.321-0.001
					c-0.109,0-0.213,0.001-0.321,0.001c-24.071,0-26.179-10.365-26.179-13.465v-46.724h22.982l3.517,8.038l3.518-8.038H460
					 M460.5,189.501H460h-22.983h-0.327l-0.131,0.299l-3.06,6.991l-3.059-6.991l-0.131-0.3h-0.327H407h-0.5v0.5v46.724
					c0,1.415,0.413,5.053,4.241,8.278c4.48,3.774,12.029,5.688,22.438,5.688l0.323-0.001l0.319,0.001
					c10.41,0,17.96-1.914,22.439-5.688c3.827-3.224,4.24-6.863,4.24-8.278V190V189.501L460.5,189.501z"/>
			</g>
		</g>
		<g>
			<path id="Shape_2_" fill="#FFFFFF" d="M433.491,236.414c8.196,0,8.05-2.92,8.103-3.649v-4.637c0-0.938-0.631-1.669-1.785-2.294
				v-3.259h14.078v3.233c-1.154,0.625-1.786,1.355-1.786,2.294v4.14c-0.052,3.024,1.354,10.636-18.608,10.636
				s-18.558-7.612-18.61-10.636v-4.14c0-0.939-0.629-1.669-1.786-2.294v-3.233h14.079v3.258c-1.156,0.625-1.786,1.355-1.786,2.294
				v4.637C425.44,233.494,425.296,236.414,433.491,236.414L433.491,236.414L433.491,236.414L433.491,236.414"/>
			<path id="Shape_1_" fill="#FFFFFF" d="M433.478,207.893l6.802-12.396h13.58v3.232c-1.155,0.626-1.785,1.369-1.785,2.308v9.843
				c0,0.939,0.631,1.669,1.785,2.294v3.233h-12.857v-3.258c1.155-0.626,1.785-1.355,1.785-2.294v-7.498l-7.721,13.05h-3.179
				l-7.721-13.05v7.497c0,0.938,0.629,1.669,1.786,2.294v3.258h-12.857v-3.233c1.155-0.626,1.786-1.355,1.786-2.294v-9.842
				c0-0.939-0.631-1.681-1.786-2.308v-3.232h13.579L433.478,207.893"/>
		</g>
	</g>
	<g>
		<path fill="#990000" d="M483.112,263.582c0,3.157,1.32,5.913,5.277,5.913c2.755,0,5.135-1.53,5.135-7.137v-4.664
			c0-3.275-0.683-3.275-3.111-3.275c-0.189,0-0.189-0.141-0.189-0.352c0-0.284,0.071-0.354,0.189-0.354
			c0.402,0,1.932,0.093,3.463,0.093c0.73,0,2.732-0.093,3.061-0.093c0.236,0,0.331,0.046,0.331,0.399
			c0,0.094-0.023,0.306-0.213,0.306c-2.261,0-2.732,0-2.732,2.779v5.583c0,6.359-4.051,8.055-6.783,8.055
			c-5.277,0-6.76-3.533-6.76-6.123v-5.395c0-1.671-0.025-2.238-0.048-3.321c-0.025-1.389-0.424-1.578-2.473-1.578
			c-0.26,0-0.26-0.189-0.26-0.402c0-0.141,0.048-0.305,0.213-0.305c0.189,0,2.238,0.093,3.723,0.093
			c1.508,0,3.557-0.093,3.745-0.093c0.165,0,0.212,0.164,0.212,0.305c0,0.213,0,0.402-0.258,0.402c-2.049,0-2.451,0.189-2.473,1.578
			c-0.023,1.083-0.048,1.65-0.048,3.321v4.265H483.112z"/>
		<path fill="#990000" d="M501.265,268.319c0,1.343,0.048,1.626,1.083,1.626c0.635,0,0.683,0.023,0.683,0.306
			c0,0.141,0,0.306-0.236,0.306c-0.118,0-0.424-0.048-2.072-0.048c-2.214,0-2.827,0.048-3.18,0.048c-0.189,0-0.189-0.142-0.189-0.26
			c0-0.306,0.025-0.353,0.895-0.353c0.612,0,0.825-0.236,0.966-0.567c0.094-0.212,0.141-1.884,0.141-3.392v-3.228
			c0-0.824-0.212-1.295-1.389-1.413c-0.189-0.023-0.212-0.117-0.212-0.283c0-0.189,0.071-0.306,0.189-0.329
			c2.684-0.542,3.015-1.154,3.298-1.154c0.046,0,0.071,0.071,0.071,0.258c0,0.141-0.048,0.66-0.048,1.695
			c1.224-0.824,2.426-1.626,3.698-1.626c0.802,0,3.109,0.165,3.109,3.534v5.653c0,0.399,0.071,0.848,1.53,0.848
			c0.236,0,0.236,0.141,0.236,0.306c0,0.141,0,0.306-0.329,0.306c-0.708,0-1.131-0.048-2.38-0.048c-1.907,0-2.285,0.048-2.473,0.048
			c-0.141,0-0.165-0.165-0.165-0.283c0-0.117,0.048-0.329,0.331-0.329c1.131,0,1.343-0.094,1.343-0.873v-4.216
			c0-2.19-0.189-3.65-2.638-3.65c-0.894,0-2.165,0.801-2.261,1.083L501.265,268.319L501.265,268.319z"/>
		<path fill="#990000" d="M514.473,268.319c0,1.343,0.048,1.626,1.083,1.626c0.518,0,0.564,0.023,0.564,0.306
			c0,0.141,0,0.306-0.236,0.306c-0.117,0-0.424-0.048-1.955-0.048c-2.214,0-2.827,0.048-3.18,0.048c-0.189,0-0.189-0.142-0.189-0.26
			c0-0.306,0.023-0.353,0.895-0.353c0.612,0,0.825-0.236,0.966-0.567c0.093-0.212,0.141-1.884,0.141-3.392v-3.228
			c0-0.824-0.212-1.295-1.389-1.413c-0.189-0.023-0.212-0.117-0.212-0.283c0-0.189,0.071-0.306,0.189-0.329
			c2.684-0.542,3.015-1.154,3.298-1.154c0.093,0,0.141,0.118,0.141,0.258c0,0.094-0.118,0.331-0.118,3.392v5.09H514.473z
			 M512.283,255.056c0-0.637,0.518-1.249,1.224-1.249c0.708,0,1.224,0.612,1.224,1.249c0,0.635-0.518,1.247-1.224,1.247
			S512.283,255.692,512.283,255.056z"/>
		<path fill="#990000" d="M525.283,261.604c0-0.683-1.225-0.683-1.579-0.683c-0.141,0-0.212-0.141-0.212-0.329
			c0-0.117,0.093-0.283,0.306-0.283c0.637,0,1.366,0.048,2.026,0.048c0.683,0,1.389-0.048,2.072-0.048
			c0.165,0,0.213,0.165,0.213,0.283c0,0.141-0.025,0.234-0.236,0.258c-1.366,0.212-1.437,0.306-2.191,2.142
			c-0.824,2.026-2.238,4.994-2.661,5.984c-0.66,1.578-0.87,1.859-1.059,1.859c-0.26,0-0.424-0.495-0.895-1.508
			c-0.825-1.766-2.779-7.514-3.109-7.985c-0.236-0.354-0.471-0.377-0.825-0.377c-0.635,0-0.73-0.071-0.73-0.402
			c0-0.165,0.117-0.258,0.26-0.258c0.753,0,1.484,0.048,2.238,0.048c0.471,0,2.331-0.048,2.802-0.048
			c0.165,0,0.189,0.212,0.189,0.329c0,0.118-0.093,0.283-0.236,0.283c-0.705,0-1.365,0.071-1.365,0.564
			c0,0.777,1.907,5.535,2.403,6.572C524.905,263.136,525.283,262.241,525.283,261.604z"/>
		<path fill="#990000" d="M530.625,264.149c-0.071,0.447-0.093,0.894-0.093,1.343c0,1.53,1.295,3.885,3.863,3.885
			c1.083,0,2.001-0.329,2.757-1.413c0.141-0.189,0.236-0.402,0.352-0.402c0.165,0,0.378,0.213,0.378,0.283s-0.943,2.99-4.051,2.99
			c-3.369,0-5.136-2.072-5.136-5.37c0-3.368,2.285-5.652,4.712-5.652c3.909,0,4.215,3.369,4.215,4.074
			c0,0.236-0.093,0.26-0.281,0.26L530.625,264.149L530.625,264.149z M534.678,263.442c0.47,0,0.801-0.142,0.801-0.777
			c0-1.837-1.272-2.238-2.072-2.238c-1.697,0-2.403,1.413-2.638,3.015H534.678z"/>
		<path fill="#990000" d="M540.915,262.759c0-0.824-0.212-1.295-1.389-1.413c-0.189-0.023-0.212-0.118-0.212-0.283
			c0-0.189,0.071-0.306,0.189-0.329c2.684-0.542,3.015-1.154,3.298-1.154c0.046,0,0.093,0.141,0.093,0.236
			c0,0.281-0.117,0.87-0.117,2.142c0.777-0.87,2.049-2.049,3.298-2.049c0.825,0,1.508,0.448,1.508,1.32
			c0,0.612-0.471,1.179-1.154,1.179c-0.966,0-1.108-0.895-1.814-0.895c-0.402,0-1.038,0.354-1.626,1.014
			c-0.165,0.189-0.165,0.447-0.165,0.683v5.347c0,0.87,0,1.389,1.178,1.389c0.873,0,0.966,0.023,0.966,0.281
			c0,0.306-0.093,0.331-0.353,0.331c-0.848,0-1.602-0.048-2.686-0.048c-1.884,0-2.285,0.048-2.732,0.048
			c-0.165,0-0.213-0.142-0.213-0.306c0-0.236,0.283-0.306,0.73-0.306c1.014,0,1.201-0.189,1.201-1.201v-5.986H540.915
			L540.915,262.759z"/>
		<path fill="#990000" d="M555.609,267.634c0,1.154-0.612,3.204-3.84,3.204c-0.424,0-1.79-0.189-2.709-0.189
			c-0.046,0-0.116-0.071-0.116-0.117c-0.024-0.236-0.542-2.307-0.542-2.544c0-0.141,0.329-0.141,0.424-0.141
			c0.564,0,0.705,2.378,2.967,2.378c1.673,0,2.142-1.272,2.142-2.096c0-2.473-5.276-1.673-5.276-5.019
			c0-1.932,1.601-3.204,3.579-3.204c1.083,0,2.451,0.189,2.544,0.213c0.306,0.071,0.354,0.518,0.354,0.66
			c0.048,0.966,0.26,1.578,0.26,1.884c0,0.141-0.142,0.189-0.26,0.189c-0.212,0-0.354-0.023-0.471-0.329
			c-0.164-0.402-0.776-2.003-2.449-2.003c-1.108,0-1.884,0.637-1.884,1.768c0,0.824,0.588,1.32,1.107,1.578
			C553.914,265.043,555.609,264.973,555.609,267.634z"/>
		<path fill="#990000" d="M560.694,268.319c0,1.343,0.048,1.626,1.083,1.626c0.518,0,0.564,0.023,0.564,0.306
			c0,0.141,0,0.306-0.236,0.306c-0.117,0-0.424-0.048-1.955-0.048c-2.214,0-2.827,0.048-3.18,0.048c-0.189,0-0.189-0.142-0.189-0.26
			c0-0.306,0.023-0.353,0.895-0.353c0.612,0,0.825-0.236,0.966-0.567c0.093-0.212,0.141-1.884,0.141-3.392v-3.228
			c0-0.824-0.212-1.295-1.389-1.413c-0.189-0.023-0.212-0.117-0.212-0.283c0-0.189,0.071-0.306,0.189-0.329
			c2.684-0.542,3.015-1.154,3.298-1.154c0.093,0,0.141,0.118,0.141,0.258c0,0.094-0.118,0.331-0.118,3.392v5.09H560.694z
			 M558.504,255.056c0-0.637,0.518-1.249,1.224-1.249c0.708,0,1.224,0.612,1.224,1.249c0,0.635-0.518,1.247-1.224,1.247
			C559.02,256.304,558.504,255.692,558.504,255.056z"/>
		<path fill="#990000" d="M567.075,266.362c0,2.497,0.213,3.393,2.074,3.393c0.801,0,1.508-0.542,1.601-0.542
			c0.094,0,0.258,0.234,0.258,0.377c0,0.141-0.989,1.247-3.133,1.247c-2.708,0-2.708-2.331-2.708-2.921v-6.195
			c0-0.189-0.072-0.306-0.236-0.306h-1.179c-0.071,0-0.141-0.071-0.141-0.212c0-0.094,0.023-0.236,0.141-0.331
			c2.19-1.649,2.638-2.898,3.109-2.898c0.141,0,0.281,0.094,0.281,0.306c0,0.424-0.071,0.825-0.071,2.167h3.627
			c0.165,0,0.236,0.165,0.236,0.495c0,0.306-0.141,0.589-0.635,0.589c-0.165,0-1.272-0.118-3.228-0.118v4.948L567.075,266.362
			L567.075,266.362z"/>
		<path fill="#990000" d="M579.861,261.722c0-0.777-1.107-0.801-1.814-0.801c-0.212,0-0.236-0.117-0.236-0.306
			c0-0.165,0.094-0.306,0.213-0.306c0.753,0,1.53,0.048,2.285,0.048c0.73,0,1.46-0.048,2.19-0.048c0.165,0,0.165,0.212,0.165,0.306
			c0,0.212-0.071,0.283-0.402,0.306c-0.801,0.071-1.131,0.213-1.485,1.036c-0.848,1.956-4.098,8.787-4.616,10.105
			c-1.814,4.545-2.591,4.851-3.369,4.851c-0.753,0-1.32-0.66-1.32-1.389c0-0.708,0.683-1.272,1.366-1.272
			c0.589,0,0.895,0.402,1.178,0.402c0.424,0,1.531-2.262,1.531-3.369c0-0.589-0.567-1.979-0.825-2.638
			c-1.485-3.816-1.932-5.865-2.426-7.184c-0.213-0.542-1.389-0.542-1.695-0.542c-0.165,0-0.213-0.165-0.213-0.329
			c0-0.19,0.118-0.283,0.258-0.283c0.283,0,1.768,0.048,2.616,0.048c0.801,0,1.626-0.048,2.332-0.048
			c0.234,0,0.281,0.141,0.281,0.306c0,0.117-0.071,0.306-0.236,0.306c-0.141,0-1.154,0-1.154,0.519c0,1.13,0.801,3.462,2.332,7.395
			C577.906,266.597,579.861,262.451,579.861,261.722z"/>
		<path fill="#990000" d="M594.599,270.838c-3.228,0-5.466-2.331-5.466-5.464c0-3.109,2.332-5.466,5.466-5.466
			c3.156,0,5.488,2.285,5.488,5.466C600.088,268.671,597.897,270.838,594.599,270.838z M594.599,260.521
			c-2.451,0-3.228,2.545-3.228,4.854c0,2.001,0.471,4.851,3.228,4.851c2.779,0,3.251-2.85,3.251-4.851
			C597.85,263.066,597.073,260.521,594.599,260.521z"/>
		<path fill="#990000" d="M605.453,268.554c0,0.87,0,1.389,1.179,1.389c0.87,0,0.966,0.023,0.966,0.281
			c0,0.306-0.094,0.331-0.354,0.331c-0.848,0-1.602-0.048-2.686-0.048c-1.884,0-2.285,0.048-2.496,0.048
			c-0.165,0-0.213-0.142-0.213-0.306c0-0.236,0.048-0.306,0.495-0.306c1.014,0,1.201-0.189,1.201-1.201v-6.572
			c0-0.283,0-0.754-0.447-0.754h-1.296c-0.164,0-0.281,0-0.281-0.306c0-0.189,0.165-0.283,0.73-0.399
			c0.918-0.213,1.154-0.26,1.224-1.32c0.236-3.582,1.296-5.559,4.075-6.288c0.377-0.094,1.014-0.19,1.437-0.19
			c0.612,0,1.484,0.236,1.484,1.014c0,0.683-0.399,1.154-1.107,1.154c-0.213,0-0.73-0.071-1.296-0.542
			c-0.399-0.329-0.824-0.542-1.036-0.542c-1.343,0-1.578,1.956-1.578,3.417v3.038h2.921c0.165,0,0.236,0.165,0.236,0.495
			c0,0.306-0.141,0.589-0.635,0.589c-0.165,0-1.979-0.117-2.521-0.117L605.453,268.554L605.453,268.554z"/>
		<path fill="#990000" d="M630.862,253.973c0.071-0.19,0.142-0.258,0.283-0.258c0.118,0,1.836,0.093,2.378,0.093
			c0.402,0,2.403-0.093,2.568-0.093c0.236,0,0.258,0.187,0.258,0.399c0,0.213-0.093,0.306-0.281,0.306
			c-2.121,0-2.38,0.165-2.38,1.249c0,1.53,0.258,6.477,0.495,13.074c0.025,0.801,0.684,1.107,1.296,1.107
			c1.32,0,1.343,0.141,1.343,0.306c0,0.354-0.117,0.402-0.258,0.402c-0.213,0-0.471-0.048-3.745-0.048
			c-3.063,0-3.203,0.048-3.393,0.048c-0.258,0-0.258-0.165-0.258-0.377c0-0.165,0.048-0.331,1.131-0.331
			c1.555,0,1.578-0.377,1.578-1.32c0-1.413-0.354-9.021-0.542-13.425h-0.048c-1.719,4.404-3.885,9.469-5.441,13.26
			c-0.895,2.167-0.895,2.427-1.201,2.427s-0.354-0.213-0.848-1.837c-0.519-1.695-4.358-12.108-4.452-12.108
			c-0.399,1.72-1.955,9.541-1.955,11.896c0,0.73,0.399,1.107,1.178,1.107c0.589,0,1.272,0.048,1.272,0.189
			c0,0.448,0,0.519-0.258,0.519c-0.188,0-0.424-0.048-2.85-0.048c-2.145,0-2.307,0.048-2.451,0.048
			c-0.189,0-0.258-0.025-0.258-0.402c0-0.236,0.118-0.306,1.249-0.306c0.824,0,0.989-0.306,1.247-1.649
			c0.637-3.393,1.201-6.807,1.932-10.199c0.236-1.06,0.306-1.72,0.306-2.214c0-0.141-0.329-1.014-0.612-1.179
			c-0.189-0.118-1.295-0.189-2.025-0.189c-0.283,0-0.283-0.189-0.283-0.352c0-0.19,0.048-0.354,0.258-0.354
			c0.448,0,2.473,0.093,2.734,0.093c0.612,0,1.601-0.093,1.907-0.093c0.26,0,0.331,0.258,0.567,1.107
			c0.495,1.766,3.91,11.306,4.335,12.178C627.4,262.83,629.191,258.518,630.862,253.973z"/>
		<path fill="#990000" d="M641.336,268.319c0,1.343,0.048,1.626,1.083,1.626c0.518,0,0.564,0.023,0.564,0.306
			c0,0.141,0,0.306-0.236,0.306c-0.117,0-0.424-0.048-1.955-0.048c-2.214,0-2.827,0.048-3.18,0.048c-0.188,0-0.188-0.142-0.188-0.26
			c0-0.306,0.023-0.353,0.895-0.353c0.612,0,0.825-0.236,0.966-0.567c0.093-0.212,0.141-1.884,0.141-3.392v-3.228
			c0-0.824-0.212-1.295-1.389-1.413c-0.189-0.023-0.212-0.117-0.212-0.283c0-0.189,0.071-0.306,0.189-0.329
			c2.684-0.542,3.015-1.154,3.298-1.154c0.093,0,0.141,0.118,0.141,0.258c0,0.094-0.117,0.331-0.117,3.392v5.09H641.336z
			 M639.145,255.056c0-0.637,0.518-1.249,1.224-1.249c0.708,0,1.224,0.612,1.224,1.249c0,0.635-0.518,1.247-1.224,1.247
			S639.145,255.692,639.145,255.056z"/>
		<path fill="#990000" d="M651.508,267.634c0,1.154-0.612,3.204-3.84,3.204c-0.424,0-1.79-0.189-2.709-0.189
			c-0.047,0-0.116-0.071-0.116-0.117c-0.025-0.236-0.542-2.307-0.542-2.544c0-0.141,0.329-0.141,0.424-0.141
			c0.564,0,0.705,2.378,2.967,2.378c1.673,0,2.142-1.272,2.142-2.096c0-2.473-5.276-1.673-5.276-5.019
			c0-1.932,1.601-3.204,3.579-3.204c1.083,0,2.451,0.189,2.544,0.213c0.306,0.071,0.354,0.518,0.354,0.66
			c0.048,0.966,0.26,1.578,0.26,1.884c0,0.141-0.142,0.189-0.26,0.189c-0.212,0-0.354-0.023-0.471-0.329
			c-0.164-0.402-0.776-2.003-2.449-2.003c-1.108,0-1.884,0.637-1.884,1.768c0,0.824,0.588,1.32,1.107,1.578
			C649.813,265.043,651.508,264.973,651.508,267.634z"/>
		<path fill="#990000" d="M660.22,267.634c0,1.154-0.612,3.204-3.84,3.204c-0.424,0-1.79-0.189-2.709-0.189
			c-0.047,0-0.116-0.071-0.116-0.117c-0.025-0.236-0.542-2.307-0.542-2.544c0-0.141,0.329-0.141,0.424-0.141
			c0.564,0,0.705,2.378,2.967,2.378c1.673,0,2.142-1.272,2.142-2.096c0-2.473-5.276-1.673-5.276-5.019
			c0-1.932,1.601-3.204,3.579-3.204c1.083,0,2.451,0.189,2.544,0.213c0.306,0.071,0.354,0.518,0.354,0.66
			c0.048,0.966,0.26,1.578,0.26,1.884c0,0.141-0.142,0.189-0.26,0.189c-0.212,0-0.354-0.023-0.471-0.329
			c-0.164-0.402-0.776-2.003-2.449-2.003c-1.108,0-1.884,0.637-1.884,1.768c0,0.824,0.588,1.32,1.107,1.578
			C658.525,265.043,660.22,264.973,660.22,267.634z"/>
		<path fill="#990000" d="M667.402,270.838c-3.228,0-5.466-2.331-5.466-5.464c0-3.109,2.332-5.466,5.466-5.466
			c3.156,0,5.488,2.285,5.488,5.466C672.89,268.671,670.698,270.838,667.402,270.838z M667.402,260.521
			c-2.451,0-3.228,2.545-3.228,4.854c0,2.001,0.471,4.851,3.228,4.851c2.78,0,3.251-2.85,3.251-4.851
			C670.652,263.066,669.875,260.521,667.402,260.521z"/>
		<path fill="#990000" d="M675.829,263.207c0-2.072-0.236-2.214-1.46-2.214c-0.19,0-0.519,0-0.519-0.236
			c0-0.189,0-0.471,0.258-0.471c0.236,0,0.612,0.072,1.389,0.072c0.825,0,1.72-0.072,2.049-0.072c0.142,0,0.189,0,0.189,0.331v6.359
			c0,1.768,0.567,2.781,2.31,2.781c0.848,0,2.331-0.519,2.331-1.249v-6.101c0-1.272-0.236-1.414-1.46-1.414
			c-0.424,0-0.753,0-0.753-0.236c0-0.354,0-0.471,0.164-0.471c0.331,0,0.613,0.072,2.049,0.072c0.589,0,1.201-0.072,1.791-0.072
			c0.213,0,0.331,0.094,0.331,0.331c0,0.094-0.213,1.908-0.213,3.579v4.429c0,0.377,0,0.87,0.589,0.87
			c0.329,0,0.848-0.093,1.014-0.093c0.093,0,0.141,0,0.141,0.447c0,0.141-0.023,0.189-0.777,0.306
			c-2.001,0.331-2.568,0.612-2.709,0.612c-0.165,0-0.283-0.164-0.283-0.329c0-0.283,0.048-0.66,0.072-0.895
			c-1.179,0.87-2.616,1.295-3.511,1.295c-2.331,0-2.99-1.508-2.99-3.956V263.207L675.829,263.207z"/>
		<path fill="#990000" d="M688.684,262.759c0-0.824-0.212-1.295-1.389-1.413c-0.188-0.023-0.212-0.118-0.212-0.283
			c0-0.189,0.071-0.306,0.189-0.329c2.684-0.542,3.015-1.154,3.298-1.154c0.047,0,0.093,0.141,0.093,0.236
			c0,0.281-0.117,0.87-0.117,2.142c0.777-0.87,2.049-2.049,3.298-2.049c0.825,0,1.508,0.448,1.508,1.32
			c0,0.612-0.471,1.179-1.154,1.179c-0.966,0-1.108-0.895-1.814-0.895c-0.402,0-1.038,0.354-1.626,1.014
			c-0.165,0.189-0.165,0.447-0.165,0.683v5.347c0,0.87,0,1.389,1.178,1.389c0.873,0,0.966,0.023,0.966,0.281
			c0,0.306-0.093,0.331-0.353,0.331c-0.848,0-1.602-0.048-2.686-0.048c-1.884,0-2.285,0.048-2.732,0.048
			c-0.165,0-0.213-0.142-0.213-0.306c0-0.236,0.283-0.306,0.73-0.306c1.014,0,1.201-0.189,1.201-1.201v-5.986H688.684
			L688.684,262.759z"/>
		<path fill="#990000" d="M699.751,268.319c0,1.343,0.048,1.626,1.083,1.626c0.518,0,0.564,0.023,0.564,0.306
			c0,0.141,0,0.306-0.236,0.306c-0.117,0-0.424-0.048-1.955-0.048c-2.214,0-2.826,0.048-3.18,0.048c-0.188,0-0.188-0.142-0.188-0.26
			c0-0.306,0.023-0.353,0.895-0.353c0.612,0,0.825-0.236,0.966-0.567c0.093-0.212,0.141-1.884,0.141-3.392v-3.228
			c0-0.824-0.212-1.295-1.389-1.413c-0.188-0.023-0.212-0.117-0.212-0.283c0-0.189,0.071-0.306,0.188-0.329
			c2.685-0.542,3.015-1.154,3.298-1.154c0.093,0,0.141,0.118,0.141,0.258c0,0.094-0.117,0.331-0.117,3.392v5.09H699.751z
			 M697.561,255.056c0-0.637,0.518-1.249,1.224-1.249c0.708,0,1.224,0.612,1.224,1.249c0,0.635-0.518,1.247-1.224,1.247
			C698.078,256.304,697.561,255.692,697.561,255.056z"/>
	</g>
</g>
</svg>
