<?xml version="1.0" encoding="utf-8"?>
<!-- Generator: Adobe Illustrator 17.1.0, SVG Export Plug-In . SVG Version: 6.00 Build 0)  -->
<!DOCTYPE svg PUBLIC "-//W3C//DTD SVG 1.1//EN" "http://www.w3.org/Graphics/SVG/1.1/DTD/svg11.dtd">
<svg version="1.1" id="Layer_1" xmlns:sketch="http://www.bohemiancoding.com/sketch/ns"
	 xmlns="http://www.w3.org/2000/svg" xmlns:xlink="http://www.w3.org/1999/xlink" x="0px" y="0px" viewBox="106.5 189.5 108 62"
	 enable-background="new 106.5 189.5 108 62" xml:space="preserve">
<g>
	<g>
		<g>
			<path d="M133.179,250.44c-10.349,0-17.844-1.895-22.277-5.629c-3.748-3.157-4.152-6.707-4.152-8.087V189.75h23.396l3.354,7.664
				l3.354-7.664h23.396v46.974c0,1.38-0.404,4.931-4.15,8.087c-4.433,3.734-11.927,5.629-22.275,5.629
				C133.824,250.44,133.179,250.44,133.179,250.44z"/>
			<path fill="#FFFFFF" d="M160,190.001v46.724c0,3.101-2.105,13.465-26.179,13.465c-0.106,0-0.214,0-0.321-0.001
				c-0.109,0-0.213,0.001-0.321,0.001c-24.071,0-26.179-10.365-26.179-13.465v-46.724h22.982l3.517,8.038l3.518-8.038H160
				 M160.5,189.501H160h-22.983h-0.327l-0.131,0.299l-3.06,6.991l-3.059-6.991l-0.131-0.3h-0.327H107h-0.5v0.5v46.724
				c0,1.415,0.413,5.053,4.241,8.278c4.48,3.774,12.029,5.688,22.438,5.688l0.323-0.001l0.319,0.001
				c10.41,0,17.96-1.914,22.439-5.688c3.827-3.224,4.24-6.863,4.24-8.278V190V189.501L160.5,189.501z"/>
		</g>
	</g>
	<g>
		<path id="Shape_4_" fill="#F1B82D" d="M133.491,236.414c8.196,0,8.05-2.92,8.103-3.649v-4.637c0-0.938-0.631-1.669-1.785-2.294
			v-3.259h14.078v3.233c-1.154,0.625-1.786,1.355-1.786,2.294v4.14c-0.052,3.024,1.354,10.636-18.608,10.636
			s-18.558-7.612-18.61-10.636v-4.14c0-0.939-0.629-1.669-1.786-2.294v-3.233h14.079v3.258c-1.156,0.625-1.786,1.355-1.786,2.294
			v4.637C125.44,233.494,125.296,236.414,133.491,236.414L133.491,236.414L133.491,236.414L133.491,236.414"/>
		<path id="Shape_5_" fill="#F1B82D" d="M133.478,207.893l6.802-12.396h13.58v3.232c-1.155,0.626-1.785,1.369-1.785,2.308v9.843
			c0,0.939,0.631,1.669,1.785,2.294v3.233h-12.857v-3.258c1.155-0.626,1.785-1.355,1.785-2.294v-7.498l-7.721,13.05h-3.179
			l-7.721-13.05v7.497c0,0.938,0.629,1.669,1.786,2.294v3.258h-12.857v-3.233c1.155-0.626,1.786-1.355,1.786-2.294v-9.842
			c0-0.939-0.631-1.681-1.786-2.308v-3.232h13.579L133.478,207.893"/>
	</g>
</g>
<g>
	<g>
		<g>
			<path d="M187.179,250.44c-10.349,0-17.844-1.895-22.277-5.629c-3.748-3.157-4.152-6.707-4.152-8.087V189.75h23.396l3.354,7.664
				l3.354-7.664h23.396v46.974c0,1.38-0.404,4.931-4.15,8.087c-4.433,3.734-11.927,5.629-22.275,5.629
				C187.824,250.44,187.179,250.44,187.179,250.44z"/>
			<path fill="#F1B82D" d="M214,190.001v46.724c0,3.101-2.105,13.465-26.179,13.465c-0.106,0-0.214,0-0.321-0.001
				c-0.109,0-0.213,0.001-0.321,0.001c-24.071,0-26.179-10.365-26.179-13.465v-46.724h22.982l3.517,8.038l3.518-8.038H214
				 M214.5,189.501H214h-22.983h-0.327l-0.131,0.299l-3.06,6.991l-3.059-6.991l-0.131-0.3h-0.327H161h-0.5v0.5v46.724
				c0,1.415,0.413,5.053,4.241,8.278c4.48,3.774,12.029,5.688,22.438,5.688l0.323-0.001l0.319,0.001
				c10.41,0,17.96-1.914,22.439-5.688c3.827-3.224,4.24-6.863,4.24-8.278V190V189.501L214.5,189.501z"/>
		</g>
	</g>
	<g>
		<path id="Shape_2_" fill="#FFFFFF" d="M187.491,236.414c8.196,0,8.05-2.92,8.103-3.649v-4.637c0-0.938-0.631-1.669-1.785-2.294
			v-3.259h14.078v3.233c-1.154,0.625-1.786,1.355-1.786,2.294v4.14c-0.052,3.024,1.354,10.636-18.608,10.636
			s-18.558-7.612-18.61-10.636v-4.14c0-0.939-0.629-1.669-1.786-2.294v-3.233h14.079v3.258c-1.156,0.625-1.786,1.355-1.786,2.294
			v4.637C179.44,233.494,179.296,236.414,187.491,236.414L187.491,236.414L187.491,236.414L187.491,236.414"/>
		<path id="Shape_1_" fill="#FFFFFF" d="M187.478,207.893l6.802-12.396h13.58v3.232c-1.155,0.626-1.785,1.369-1.785,2.308v9.843
			c0,0.939,0.631,1.669,1.785,2.294v3.233h-12.857v-3.258c1.155-0.626,1.785-1.355,1.785-2.294v-7.498l-7.721,13.05h-3.179
			l-7.721-13.05v7.497c0,0.938,0.629,1.669,1.786,2.294v3.258h-12.857v-3.233c1.155-0.626,1.786-1.355,1.786-2.294v-9.842
			c0-0.939-0.631-1.681-1.786-2.308v-3.232h13.579L187.478,207.893"/>
	</g>
</g>
</svg>
