<?xml version="1.0" encoding="utf-8"?>
<!-- Generator: Adobe Illustrator 17.0.0, SVG Export Plug-In . SVG Version: 6.00 Build 0)  -->
<!DOCTYPE svg PUBLIC "-//W3C//DTD SVG 1.1//EN" "http://www.w3.org/Graphics/SVG/1.1/DTD/svg11.dtd">
<svg version="1.1" id="Layer_1" xmlns="http://www.w3.org/2000/svg" xmlns:xlink="http://www.w3.org/1999/xlink" x="0px" y="0px"
	 width="860px" height="60px" viewBox="216.5 174.5 860 60" enable-background="new 216.5 174.5 860 60" xml:space="preserve">
<g>
	<path d="M221.679,183.828v2.696c0,1.025,0.024,2.576,0.072,3.769c0.024,0.644,0.167,1.049,2.051,1.049
		c0.668,0,0.668,0.143,0.668,0.405c0,0.215,0,0.31-0.191,0.31c-0.167,0-0.262-0.048-3.793-0.048c-3.507,0-3.603,0.048-3.769,0.048
		c-0.191,0-0.191-0.095-0.191-0.31c0-0.262,0-0.405,0.668-0.405c1.884,0,2.027-0.405,2.051-1.049
		c0.048-1.192,0.072-2.744,0.072-3.769v-5.846c0-1.693-0.024-2.266-0.048-3.364c-0.024-1.407-0.429-1.599-2.505-1.599
		c-0.262,0-0.262-0.191-0.262-0.405c0-0.143,0.048-0.31,0.215-0.31c0.192,0,2.267,0.095,3.769,0.095
		c1.526,0,3.603-0.095,3.793-0.095c0.167,0,0.215,0.167,0.215,0.31c0,0.215,0,0.405-0.262,0.405c-2.075,0-2.482,0.191-2.505,1.599
		c-0.024,1.097-0.048,1.669-0.048,3.364v2.434h9.471v-2.434c0-1.693-0.024-2.266-0.048-3.364c-0.024-1.407-0.429-1.599-2.505-1.599
		c-0.262,0-0.262-0.191-0.262-0.405c0-0.143,0.048-0.31,0.215-0.31c0.192,0,2.267,0.095,3.793,0.095
		c1.502,0,3.579-0.095,3.769-0.095c0.167,0,0.215,0.167,0.215,0.31c0,0.215,0,0.405-0.262,0.405c-2.075,0-2.482,0.191-2.505,1.599
		c-0.024,1.097-0.048,1.669-0.048,3.364v5.846c0,1.025,0.024,2.576,0.072,3.769c0.024,0.644,0.167,1.049,2.051,1.049
		c0.668,0,0.668,0.143,0.668,0.405c0,0.215,0,0.31-0.191,0.31c-0.167,0-0.262-0.048-3.769-0.048c-3.531,0-3.626,0.048-3.793,0.048
		c-0.191,0-0.191-0.095-0.191-0.31c0-0.262,0-0.405,0.668-0.405c1.884,0,2.027-0.405,2.051-1.049
		c0.048-1.192,0.072-2.744,0.072-3.769v-2.696L221.679,183.828L221.679,183.828z"/>
	<path d="M245.148,190.723c0,0.382,0.167,0.477,0.405,0.477c0.477,0,0.835-0.549,1.025-0.549c0.119,0,0.31,0.167,0.31,0.262
		c0,0.286-1.55,1.431-2.385,1.431c-0.859,0-1.049-0.549-1.313-1.383c-1.407,1.097-2.075,1.383-3.077,1.383
		c-1.862,0-2.291-1.359-2.291-2.124c0-1.216,0.715-2.218,5.391-3.96v-2.17c0-1.241-1.431-1.885-2.003-1.885
		c-0.549,0-1.693,0.859-1.693,1.098c0,0.334,0.31,0.668,0.31,1.192c0,0.262-0.215,0.908-1.169,0.908
		c-0.811,0-1.002-0.62-1.002-0.884c0-0.644,0.167-0.954,1.956-2.148c1.79-1.169,2.051-1.192,2.577-1.192
		c0.763,0,2.957,0.572,2.957,2.743L245.148,190.723z M243.215,187.192c0-0.119-0.072-0.238-0.167-0.238
		c-0.119,0-1.884,0.787-2.361,1.169c-0.668,0.501-0.787,0.859-0.787,1.741c0,0.739,0.31,1.48,1.121,1.48
		c0.906,0,2.194-0.835,2.194-1.265V187.192z"/>
	<path d="M249.724,184.161c0-0.835-0.215-1.312-1.407-1.431c-0.191-0.024-0.215-0.119-0.215-0.286c0-0.191,0.072-0.31,0.191-0.334
		c2.72-0.549,3.054-1.169,3.34-1.169c0.048,0,0.095,0.143,0.095,0.238c0,0.286-0.119,0.882-0.119,2.17
		c0.787-0.882,2.075-2.075,3.34-2.075c0.835,0,1.526,0.453,1.526,1.336c0,0.62-0.477,1.192-1.169,1.192
		c-0.978,0-1.122-0.906-1.838-0.906c-0.405,0-1.049,0.358-1.646,1.025c-0.167,0.191-0.167,0.453-0.167,0.692v5.415
		c0,0.884,0,1.407,1.192,1.407c0.884,0,0.978,0.024,0.978,0.286c0,0.31-0.095,0.334-0.358,0.334c-0.859,0-1.622-0.048-2.72-0.048
		c-1.908,0-2.313,0.048-2.766,0.048c-0.167,0-0.215-0.143-0.215-0.31c0-0.238,0.286-0.31,0.739-0.31
		c1.025,0,1.216-0.191,1.216-1.216L249.724,184.161z"/>
	<path d="M259.001,184.161c0-0.835-0.215-1.312-1.407-1.431c-0.191-0.024-0.215-0.119-0.215-0.286c0-0.191,0.072-0.31,0.191-0.334
		c2.72-0.549,3.054-1.169,3.34-1.169c0.048,0,0.095,0.143,0.095,0.238c0,0.286-0.119,0.882-0.119,2.17
		c0.787-0.882,2.075-2.075,3.34-2.075c0.835,0,1.526,0.453,1.526,1.336c0,0.62-0.477,1.192-1.169,1.192
		c-0.978,0-1.121-0.906-1.836-0.906c-0.405,0-1.049,0.358-1.646,1.025c-0.167,0.191-0.167,0.453-0.167,0.692v5.415
		c0,0.884,0,1.407,1.192,1.407c0.884,0,0.978,0.024,0.978,0.286c0,0.31-0.095,0.334-0.358,0.334c-0.859,0-1.622-0.048-2.72-0.048
		c-1.908,0-2.315,0.048-2.766,0.048c-0.167,0-0.215-0.143-0.215-0.31c0-0.238,0.286-0.31,0.739-0.31
		c1.026,0,1.216-0.191,1.216-1.216v-6.059H259.001z"/>
	<path d="M275.053,183.112c0-0.787-1.121-0.811-1.836-0.811c-0.215,0-0.238-0.119-0.238-0.31c0-0.167,0.095-0.31,0.215-0.31
		c0.763,0,1.55,0.048,2.315,0.048c0.739,0,1.479-0.048,2.218-0.048c0.167,0,0.167,0.215,0.167,0.31c0,0.215-0.072,0.286-0.405,0.31
		c-0.811,0.072-1.145,0.215-1.504,1.049c-0.859,1.981-4.151,8.898-4.676,10.235c-1.836,4.604-2.623,4.914-3.412,4.914
		c-0.763,0-1.336-0.668-1.336-1.407c0-0.715,0.692-1.288,1.383-1.288c0.596,0,0.906,0.405,1.192,0.405
		c0.429,0,1.55-2.291,1.55-3.412c0-0.596-0.572-2.005-0.835-2.672c-1.504-3.865-1.957-5.94-2.458-7.277
		c-0.215-0.549-1.407-0.549-1.717-0.549c-0.167,0-0.215-0.167-0.215-0.334c0-0.191,0.119-0.286,0.262-0.286
		c0.286,0,1.79,0.048,2.649,0.048c0.811,0,1.647-0.048,2.362-0.048c0.238,0,0.286,0.143,0.286,0.31c0,0.119-0.072,0.31-0.238,0.31
		c-0.143,0-1.169,0-1.169,0.525c0,1.145,0.811,3.507,2.361,7.491C273.074,188.05,275.053,183.851,275.053,183.112z"/>
	<path d="M293.202,188.432c0-1.79-0.954-2.577-4.294-4.342c-1.979-1.049-3.626-1.957-3.626-4.461c0-2.504,1.669-4.843,5.2-4.843
		c1.693,0,2.672,0.429,3.221,0.429c0.262,0,0.453-0.429,0.644-0.429c0.143,0,0.215,0.119,0.215,0.31c0,1.86,0.358,3.722,0.358,3.889
		c0,0.119-0.119,0.238-0.238,0.238c-0.262,0-0.358,0-0.405-0.143c-0.668-1.86-1.646-3.674-3.913-3.674
		c-1.671,0-3.149,1.169-3.149,3.03c0,1.599,0.978,2.291,1.86,2.863c2.744,1.741,6.394,2.505,6.394,6.083
		c0,3.507-2.529,4.962-5.773,4.962c-1.717,0-3.173-0.191-4.199-0.334c-0.167-0.024-0.191-0.048-0.215-0.286
		c-0.167-2.553-0.334-3.507-0.334-3.626c0-0.191,0.191-0.238,0.477-0.238c0.191,0,0.215,0.072,0.262,0.31
		c0.549,1.884,1.741,3.555,4.199,3.555C292.057,191.724,293.202,190.341,293.202,188.432z"/>
	<path d="M317.863,175.096c0.882,0,1.097-0.596,1.479-0.596c0.143,0,0.167,0.095,0.405,0.906c0.787,2.72,1.049,3.173,1.049,3.245
		s-0.215,0.191-0.358,0.191c-0.167,0-0.238-0.024-0.334-0.167c-1.145-2.075-2.291-2.863-4.032-2.863h-2.911
		c-0.405,0-0.572,0.262-0.572,1.502v9.208c0,1.025,0.024,2.576,0.072,3.769c0.024,0.644,0.167,1.049,2.051,1.049
		c0.668,0,0.668,0.143,0.668,0.405c0,0.215,0,0.31-0.191,0.31c-0.167,0-0.262-0.048-3.793-0.048c-3.506,0-3.603,0.048-3.769,0.048
		c-0.191,0-0.191-0.095-0.191-0.31c0-0.262,0-0.405,0.668-0.405c1.884,0,2.027-0.405,2.051-1.049
		c0.048-1.192,0.072-2.744,0.072-3.769v-9.208c0-1.502-0.238-1.502-1.049-1.502h-2.6c-1.766,0-2.959,1.455-3.889,2.863
		c-0.095,0.143-0.191,0.143-0.405,0.143s-0.334-0.095-0.334-0.167s0.119-0.167,1.145-3.197c0.095-0.262,0.143-0.954,0.358-0.954
		c0.501,0,0.596,0.596,1.574,0.596H317.863z"/>
	<path d="M319.696,184.161c0-0.835-0.215-1.312-1.407-1.431c-0.191-0.024-0.215-0.119-0.215-0.286c0-0.191,0.072-0.31,0.191-0.334
		c2.72-0.549,3.054-1.169,3.34-1.169c0.048,0,0.095,0.143,0.095,0.238c0,0.286-0.119,0.882-0.119,2.17
		c0.787-0.882,2.075-2.075,3.34-2.075c0.835,0,1.526,0.453,1.526,1.336c0,0.62-0.477,1.192-1.169,1.192
		c-0.978,0-1.121-0.906-1.836-0.906c-0.405,0-1.049,0.358-1.646,1.025c-0.167,0.191-0.167,0.453-0.167,0.692v5.415
		c0,0.884,0,1.407,1.192,1.407c0.884,0,0.978,0.024,0.978,0.286c0,0.31-0.095,0.334-0.358,0.334c-0.859,0-1.622-0.048-2.72-0.048
		c-1.908,0-2.315,0.048-2.766,0.048c-0.167,0-0.215-0.143-0.215-0.31c0-0.238,0.286-0.31,0.739-0.31
		c1.026,0,1.216-0.191,1.216-1.216v-6.059H319.696z"/>
	<path d="M328.758,184.615c0-2.099-0.238-2.243-1.479-2.243c-0.191,0-0.525,0-0.525-0.238c0-0.191,0-0.477,0.262-0.477
		c0.238,0,0.62,0.072,1.407,0.072c0.835,0,1.741-0.072,2.075-0.072c0.143,0,0.191,0,0.191,0.334v6.442
		c0,1.789,0.572,2.816,2.337,2.816c0.859,0,2.362-0.525,2.362-1.264v-6.18c0-1.288-0.238-1.432-1.479-1.432
		c-0.429,0-0.763,0-0.763-0.238c0-0.358,0-0.477,0.167-0.477c0.334,0,0.62,0.072,2.075,0.072c0.596,0,1.216-0.072,1.814-0.072
		c0.215,0,0.334,0.095,0.334,0.334c0,0.095-0.215,1.932-0.215,3.626v4.485c0,0.382,0,0.882,0.596,0.882
		c0.334,0,0.859-0.095,1.026-0.095c0.095,0,0.143,0,0.143,0.453c0,0.143-0.024,0.191-0.787,0.31c-2.027,0.334-2.601,0.62-2.744,0.62
		c-0.167,0-0.286-0.167-0.286-0.334c0-0.286,0.048-0.668,0.072-0.906c-1.192,0.882-2.649,1.312-3.555,1.312
		c-2.362,0-3.03-1.526-3.03-4.008v-3.721H328.758z"/>
	<path d="M341.613,184.161c0-0.835-0.215-1.312-1.407-1.431c-0.191-0.024-0.215-0.119-0.215-0.286c0-0.191,0.072-0.31,0.191-0.334
		c2.72-0.549,3.054-1.169,3.34-1.169c0.048,0,0.072,0.072,0.072,0.262c0,0.143-0.048,0.668-0.048,1.598
		c0.62-0.477,2.886-1.526,4.199-1.526c1.169,0,2.003,0.572,2.6,1.55c1.288-0.763,2.218-1.55,3.65-1.55
		c0.811,0,3.148,0.119,3.148,2.911v6.346c0,0.405,0.072,0.859,1.55,0.859c0.238,0,0.238,0.143,0.238,0.31c0,0.143,0,0.31-0.334,0.31
		c-0.717,0-1.145-0.048-2.41-0.048c-1.932,0-2.315,0.048-2.505,0.048c-0.143,0-0.167-0.167-0.167-0.286
		c0-0.119,0.048-0.334,0.334-0.334c1.145,0,1.359-0.095,1.359-0.882v-6.18c0-0.31-0.191-1.957-2.433-1.957
		c-1.049,0-2.433,1.049-2.433,1.313v6.107c0,1.359,0.048,1.646,1.097,1.646c0.644,0,0.692,0.024,0.692,0.31
		c0,0.143,0,0.31-0.238,0.31c-0.119,0-0.429-0.048-2.505-0.048c-1.932,0-2.315,0.048-2.505,0.048c-0.143,0-0.167-0.167-0.167-0.286
		c0-0.119,0.048-0.334,0.334-0.334c1.145,0,1.359-0.095,1.359-0.93v-6.18c0-0.906-0.191-1.957-2.433-1.957
		c-1.049,0-2.433,1.049-2.433,1.313v6.107c0,1.359,0.048,1.646,1.097,1.646c0.644,0,0.692,0.024,0.692,0.31
		c0,0.143,0,0.31-0.238,0.31c-0.119,0-0.429-0.048-2.099-0.048c-2.242,0-2.623,0.048-2.981,0.048c-0.191,0-0.191-0.143-0.191-0.262
		c0-0.31,0.024-0.358,0.668-0.358c0.62,0,0.835-0.238,0.978-0.572c0.095-0.215,0.143-1.908,0.143-3.436v-3.267H341.613z"/>
	<path d="M367.657,190.723c0,0.382,0.167,0.477,0.405,0.477c0.477,0,0.835-0.549,1.026-0.549c0.119,0,0.31,0.167,0.31,0.262
		c0,0.286-1.55,1.431-2.385,1.431c-0.859,0-1.049-0.549-1.312-1.383c-1.407,1.097-2.076,1.383-3.078,1.383
		c-1.862,0-2.291-1.359-2.291-2.124c0-1.216,0.715-2.218,5.391-3.96v-2.17c0-1.241-1.431-1.885-2.003-1.885
		c-0.549,0-1.693,0.859-1.693,1.098c0,0.334,0.31,0.668,0.31,1.192c0,0.262-0.215,0.908-1.169,0.908
		c-0.811,0-1.002-0.62-1.002-0.884c0-0.644,0.167-0.954,1.957-2.148c1.79-1.169,2.052-1.192,2.577-1.192
		c0.763,0,2.957,0.572,2.957,2.743v6.801H367.657z M365.724,187.192c0-0.119-0.072-0.238-0.167-0.238
		c-0.119,0-1.884,0.787-2.361,1.169c-0.668,0.501-0.787,0.859-0.787,1.741c0,0.739,0.31,1.48,1.121,1.48
		c0.906,0,2.194-0.835,2.194-1.265V187.192z"/>
	<path d="M374.047,189.792c0,1.359,0.048,1.646,1.097,1.646c0.644,0,0.692,0.024,0.692,0.31c0,0.143,0,0.31-0.238,0.31
		c-0.119,0-0.429-0.048-2.099-0.048c-2.242,0-2.863,0.048-3.221,0.048c-0.191,0-0.191-0.143-0.191-0.262
		c0-0.31,0.024-0.358,0.906-0.358c0.62,0,0.835-0.238,0.978-0.572c0.095-0.215,0.143-1.908,0.143-3.436v-3.269
		c0-0.835-0.215-1.312-1.407-1.431c-0.191-0.024-0.215-0.119-0.215-0.286c0-0.191,0.072-0.31,0.191-0.334
		c2.72-0.549,3.054-1.169,3.34-1.169c0.048,0,0.072,0.072,0.072,0.262c0,0.143-0.048,0.668-0.048,1.717
		c1.241-0.835,2.456-1.647,3.746-1.647c0.811,0,3.148,0.167,3.148,3.579v5.725c0,0.405,0.072,0.859,1.55,0.859
		c0.238,0,0.238,0.143,0.238,0.31c0,0.143,0,0.31-0.334,0.31c-0.715,0-1.145-0.048-2.409-0.048c-1.932,0-2.315,0.048-2.505,0.048
		c-0.143,0-0.167-0.167-0.167-0.286c0-0.119,0.048-0.334,0.334-0.334c1.145,0,1.359-0.095,1.359-0.882v-4.27
		c0-2.218-0.191-3.698-2.672-3.698c-0.906,0-2.194,0.811-2.291,1.098v6.108H374.047z"/>
</g>
<g>
	<path d="M229.226,221.145c0-2.699-1.44-3.888-6.479-6.551c-2.987-1.584-5.471-2.952-5.471-6.731s2.52-7.308,7.847-7.308
		c2.556,0,4.031,0.648,4.859,0.648c0.396,0,0.684-0.648,0.972-0.648c0.216,0,0.324,0.181,0.324,0.468c0,2.808,0.54,5.616,0.54,5.868
		c0,0.18-0.18,0.359-0.36,0.359c-0.396,0-0.54,0-0.612-0.216c-1.008-2.808-2.484-5.543-5.903-5.543c-2.52,0-4.751,1.764-4.751,4.571
		c0,2.412,1.476,3.456,2.808,4.319c4.14,2.628,9.647,3.779,9.647,9.179c0,5.292-3.815,7.487-8.711,7.487
		c-2.592,0-4.788-0.288-6.335-0.504c-0.252-0.036-0.288-0.072-0.324-0.432c-0.252-3.852-0.504-5.292-0.504-5.472
		c0-0.288,0.288-0.36,0.72-0.36c0.288,0,0.324,0.108,0.396,0.469c0.828,2.844,2.628,5.363,6.335,5.363
		C227.498,226.112,229.226,224.024,229.226,221.145z"/>
	<path d="M248.918,223.521c0.288-0.252,0.432-0.576,0.612-0.576c0.108,0,0.54,0.252,0.54,0.504c0,0.145-0.072,0.324-0.288,0.54
		c-1.835,2.088-3.923,3.06-6.299,3.06c-4.176,0-7.451-2.987-7.451-8.135c0-5.327,3.527-8.567,8.171-8.567
		c4.932,0,5.867,2.664,5.867,3.42c0,0.432-0.576,1.548-1.908,1.548c-1.152,0-1.296-0.36-1.692-2.34
		c-0.108-0.54-0.36-1.691-2.231-1.691c-2.268,0-5.076,1.728-5.076,7.631c0,1.619,0.612,6.119,6.12,6.119
		C246.614,225.032,248.198,224.132,248.918,223.521z"/>
	<path d="M256.982,212.506c1.872-1.26,3.456-2.16,5.651-2.16c1.224,0,4.751,0.252,4.751,5.399v8.639c0,0.612,0.108,1.296,2.34,1.296
		c0.36,0,0.36,0.217,0.36,0.469c0,0.216,0,0.468-0.504,0.468c-1.08,0-1.728-0.072-3.636-0.072c-2.916,0-3.492,0.072-3.779,0.072
		c-0.216,0-0.252-0.252-0.252-0.433c0-0.18,0.072-0.504,0.504-0.504c1.728,0,2.052-0.144,2.052-1.331v-6.443
		c0-3.348-0.288-5.579-4.032-5.579c-1.548,0-3.312,0.72-3.456,1.331v9.539c0,2.052,0.072,2.483,1.656,2.483
		c0.972,0,1.044,0.036,1.044,0.469c0,0.216,0,0.468-0.36,0.468c-0.18,0-0.648-0.072-3.167-0.072c-3.384,0-4.32,0.072-4.68,0.072
		c-0.288,0-0.288-0.216-0.288-0.396c0-0.468,0.036-0.54,1.368-0.54c0.756,0,1.08-0.359,1.296-0.863
		c0.144-0.324,0.216-5.075,0.216-6.623v-12.599c0-3.132-0.108-3.563-2.088-3.744c-0.216-0.036-0.324-0.18-0.324-0.432
		c0-0.288,0.108-0.468,0.288-0.504c2.916-0.504,4.644-1.548,5.003-1.548c0.144,0,0.216,0.18,0.216,0.396
		c0,0.145-0.18,0.504-0.18,5.184v7.558H256.982z"/>
	<path d="M280.382,227.048c-4.932,0-8.351-3.563-8.351-8.351c0-4.752,3.563-8.352,8.351-8.352c4.823,0,8.387,3.492,8.387,8.352
		C288.769,223.736,285.421,227.048,280.382,227.048z M280.382,211.282c-3.744,0-4.932,3.887-4.932,7.415
		c0,3.06,0.72,7.415,4.932,7.415c4.247,0,4.967-4.355,4.967-7.415C285.35,215.169,284.162,211.282,280.382,211.282z"/>
	<path d="M299.714,227.048c-4.932,0-8.351-3.563-8.351-8.351c0-4.752,3.563-8.352,8.351-8.352c4.823,0,8.387,3.492,8.387,8.352
		C308.101,223.736,304.753,227.048,299.714,227.048z M299.714,211.282c-3.744,0-4.932,3.887-4.932,7.415
		c0,3.06,0.72,7.415,4.932,7.415c4.247,0,4.967-4.355,4.967-7.415C304.681,215.169,303.493,211.282,299.714,211.282z"/>
	<path d="M315.842,223.196c0,2.052,0.072,2.483,1.656,2.483c0.972,0,1.044,0.036,1.044,0.469c0,0.216,0,0.468-0.36,0.468
		c-0.18,0-0.648-0.072-3.167-0.072c-3.383,0-4.319,0.072-4.679,0.072c-0.288,0-0.288-0.216-0.288-0.396
		c0-0.468,0.036-0.54,1.368-0.54c0.756,0,1.08-0.359,1.296-0.863c0.144-0.324,0.216-5.075,0.216-6.623v-12.599
		c0-3.132-0.108-3.563-2.087-3.744c-0.216-0.036-0.324-0.18-0.324-0.432c0-0.288,0.108-0.468,0.288-0.504
		c2.916-0.504,4.644-1.548,5.003-1.548c0.144,0,0.216,0.18,0.216,0.396c0,0.145-0.18,0.504-0.18,5.184v18.249H315.842z"/>
	<path d="M338.377,227.048c-4.932,0-8.351-3.563-8.351-8.351c0-4.752,3.563-8.352,8.351-8.352c4.823,0,8.387,3.492,8.387,8.352
		C346.764,223.736,343.416,227.048,338.377,227.048z M338.377,211.282c-3.744,0-4.932,3.887-4.932,7.415
		c0,3.06,0.72,7.415,4.932,7.415c4.247,0,4.967-4.355,4.967-7.415C343.344,215.169,342.156,211.282,338.377,211.282z"/>
	<path d="M354.973,223.557c0,1.331,0,2.123,1.8,2.123c1.332,0,1.476,0.036,1.476,0.433c0,0.468-0.144,0.504-0.54,0.504
		c-1.296,0-2.448-0.072-4.104-0.072c-2.88,0-3.492,0.072-3.815,0.072c-0.252,0-0.324-0.216-0.324-0.468
		c0-0.36,0.072-0.469,0.756-0.469c1.548,0,1.836-0.287,1.836-1.835v-10.043c0-0.433,0-1.152-0.684-1.152h-1.979
		c-0.252,0-0.432,0-0.432-0.468c0-0.288,0.252-0.432,1.116-0.611c1.404-0.324,1.764-0.396,1.872-2.017
		c0.36-5.471,1.979-8.495,6.227-9.61c0.576-0.145,1.548-0.288,2.196-0.288c0.936,0,2.268,0.359,2.268,1.548
		c0,1.044-0.612,1.764-1.692,1.764c-0.324,0-1.116-0.108-1.979-0.828c-0.612-0.504-1.26-0.828-1.584-0.828
		c-2.052,0-2.412,2.988-2.412,5.22v4.644h4.463c0.252,0,0.36,0.252,0.36,0.756c0,0.468-0.216,0.9-0.972,0.9
		c-0.252,0-3.023-0.181-3.852-0.181L354.973,223.557L354.973,223.557z"/>
	<path d="M373.656,209.446c0-2.556-0.036-3.42-0.072-5.076c-0.036-2.123-0.648-2.411-3.24-2.411c-0.396,0-0.396-0.288-0.396-0.612
		c0-0.216,0.072-0.468,0.324-0.468c0.288,0,2.879,0.144,5.147,0.144c0.324,0,3.239-0.144,5.111-0.144
		c8.603,0,9.502,5.651,9.502,7.127c0,5.147-3.563,7.775-8.458,7.775c-1.44,0-2.88-0.072-4.355-0.36c0,5.724,0.036,6.731,0.072,7.812
		c0.072,1.439,0.288,2.304,3.996,2.304c1.008,0,1.008,0.216,1.008,0.612c0,0.323,0,0.468-0.288,0.468
		c-0.252,0-1.26-0.072-6.587-0.072c-5.292,0-5.436,0.072-5.688,0.072c-0.288,0-0.288-0.145-0.288-0.468c0-0.396,0-0.612,1.008-0.612
		c2.843,0,3.06-0.612,3.095-1.584c0.072-1.8,0.108-4.14,0.108-5.688L373.656,209.446L373.656,209.446z M377.22,213.334
		c0,0.827,0.216,1.367,2.052,1.367c3.923,0,6.875-2.268,6.875-6.407c0-3.707-2.376-6.335-5.903-6.335c-2.736,0-3.06,0-3.023,2.987
		v8.388H377.22z"/>
	<path d="M394.607,215.386c0-3.168-0.36-3.384-2.232-3.384c-0.288,0-0.792,0-0.792-0.36c0-0.288,0-0.72,0.396-0.72
		c0.36,0,0.936,0.108,2.124,0.108c1.26,0,2.627-0.108,3.131-0.108c0.216,0,0.288,0,0.288,0.504v9.719c0,2.7,0.864,4.248,3.528,4.248
		c1.295,0,3.563-0.792,3.563-1.908v-9.323c0-1.943-0.36-2.159-2.232-2.159c-0.648,0-1.152,0-1.152-0.36c0-0.54,0-0.72,0.252-0.72
		c0.504,0,0.936,0.108,3.132,0.108c0.9,0,1.835-0.108,2.735-0.108c0.324,0,0.504,0.144,0.504,0.504c0,0.145-0.324,2.916-0.324,5.472
		v6.767c0,0.576,0,1.332,0.9,1.332c0.504,0,1.296-0.144,1.548-0.144c0.144,0,0.216,0,0.216,0.684c0,0.216-0.036,0.288-1.188,0.468
		c-3.06,0.504-3.923,0.936-4.139,0.936c-0.252,0-0.432-0.252-0.432-0.504c0-0.432,0.072-1.008,0.108-1.367
		c-1.8,1.332-3.995,1.979-5.363,1.979c-3.563,0-4.571-2.304-4.571-6.047L394.607,215.386L394.607,215.386z"/>
	<path d="M416.819,211.822c1.296-1.152,2.412-1.692,4.355-1.692c3.528,0,7.595,2.268,7.595,8.387c0,6.155-4.392,8.531-7.703,8.531
		c-2.735,0-4.463-1.403-5.543-1.403c-0.936,0-0.9,1.043-1.404,1.043c-0.288,0-0.288-0.287-0.288-0.468
		c0-0.54,0.072-0.972,0.072-1.836v-18.789c0-3.132-0.108-3.563-2.087-3.744c-0.216-0.036-0.324-0.18-0.324-0.432
		c0-0.288,0.108-0.468,0.288-0.504c2.916-0.504,4.644-1.548,5.003-1.548c0.144,0,0.216,0.18,0.216,0.396
		c0,0.145-0.18,0.504-0.18,5.184V211.822z M416.819,221.324c0,2.988,1.116,4.788,3.96,4.788c3.959,0,4.571-3.924,4.571-7.092
		c0-2.591-0.396-7.811-4.788-7.811c-2.304,0-3.744,1.332-3.744,3.563L416.819,221.324L416.819,221.324z"/>
	<path d="M436.51,223.196c0,2.052,0.072,2.483,1.656,2.483c0.972,0,1.044,0.036,1.044,0.469c0,0.216,0,0.468-0.36,0.468
		c-0.18,0-0.648-0.072-3.167-0.072c-3.383,0-4.319,0.072-4.679,0.072c-0.288,0-0.288-0.216-0.288-0.396
		c0-0.468,0.036-0.54,1.368-0.54c0.756,0,1.08-0.359,1.296-0.863c0.144-0.324,0.216-5.075,0.216-6.623v-12.599
		c0-3.132-0.108-3.563-2.087-3.744c-0.216-0.036-0.324-0.18-0.324-0.432c0-0.288,0.108-0.468,0.288-0.504
		c2.916-0.504,4.644-1.548,5.003-1.548c0.144,0,0.216,0.18,0.216,0.396c0,0.145-0.18,0.504-0.18,5.184v18.249H436.51z"/>
	<path d="M446.519,223.196c0,2.052,0.072,2.483,1.656,2.483c0.792,0,0.864,0.036,0.864,0.469c0,0.216,0,0.468-0.36,0.468
		c-0.18,0-0.648-0.072-2.988-0.072c-3.383,0-4.319,0.072-4.859,0.072c-0.288,0-0.288-0.216-0.288-0.396
		c0-0.468,0.036-0.54,1.368-0.54c0.936,0,1.26-0.359,1.476-0.863c0.144-0.324,0.216-2.88,0.216-5.184v-4.932
		c0-1.26-0.324-1.979-2.124-2.159c-0.288-0.036-0.324-0.181-0.324-0.433c0-0.287,0.108-0.468,0.288-0.504
		c4.104-0.827,4.607-1.764,5.04-1.764c0.144,0,0.216,0.181,0.216,0.396c0,0.144-0.18,0.504-0.18,5.183v7.776H446.519z
		 M443.171,202.931c0-0.972,0.792-1.908,1.872-1.908c1.08,0,1.872,0.937,1.872,1.908s-0.792,1.908-1.872,1.908
		S443.171,203.902,443.171,202.931z"/>
	<path d="M464.265,223.521c0.288-0.252,0.432-0.576,0.612-0.576c0.108,0,0.54,0.252,0.54,0.504c0,0.145-0.072,0.324-0.288,0.54
		c-1.835,2.088-3.923,3.06-6.299,3.06c-4.176,0-7.451-2.987-7.451-8.135c0-5.327,3.527-8.567,8.171-8.567
		c4.931,0,5.867,2.664,5.867,3.42c0,0.432-0.576,1.548-1.908,1.548c-1.152,0-1.296-0.36-1.692-2.34
		c-0.108-0.54-0.36-1.691-2.231-1.691c-2.268,0-5.076,1.728-5.076,7.631c0,1.619,0.612,6.119,6.12,6.119
		C461.961,225.032,463.545,224.132,464.265,223.521z"/>
	<path d="M481.474,217.257c-1.044,0-1.188,0-1.476,0.756c-1.512,3.96-1.98,5.615-1.98,6.228c0,0.468,0,1.296,1.872,1.296
		c2.16,0,2.304,0.144,2.304,0.504c0,0.432-0.072,0.576-0.432,0.576c-0.288,0-0.756-0.072-5.04-0.072
		c-2.196,0-2.556,0.072-2.844,0.072c-0.18,0-0.252-0.181-0.252-0.612c0-0.288,0.36-0.468,1.332-0.468
		c0.684,0,1.368-0.432,1.836-1.836c2.195-6.371,4.967-14.146,8.459-22.857c0.108-0.324,0.252-0.324,0.684-0.324
		c0.324,0,0.432,0,0.612,0.433c0.252,0.611,6.263,17.098,8.783,22.857c0.576,1.331,1.332,1.728,2.735,1.728
		c0.324,0,1.08,0.108,1.08,0.396c0,0.252-0.072,0.685-0.396,0.685c-0.36,0-0.648-0.072-5.003-0.072
		c-4.859,0-5.111,0.072-5.363,0.072c-0.144,0-0.18-0.288-0.18-0.648c0-0.359,0.792-0.432,1.512-0.432
		c1.439,0,1.908-0.18,1.908-0.792c0-0.864-2.16-5.976-2.736-7.487h-7.415V217.257z M488.421,216.069l-3.815-10.547h-0.072
		c-0.252,0-3.671,9.646-3.671,10.15c0,0.396,0.216,0.396,1.368,0.396h6.19V216.069z"/>
	<path d="M504.981,223.557c0,1.331,0,2.123,1.8,2.123c1.332,0,1.476,0.036,1.476,0.433c0,0.468-0.144,0.504-0.54,0.504
		c-1.296,0-2.448-0.072-4.104-0.072c-2.88,0-3.492,0.072-3.815,0.072c-0.252,0-0.324-0.216-0.324-0.468
		c0-0.36,0.072-0.469,0.756-0.469c1.548,0,1.836-0.287,1.836-1.835v-10.043c0-0.433,0-1.152-0.684-1.152h-1.98
		c-0.252,0-0.432,0-0.432-0.468c0-0.288,0.252-0.432,1.116-0.611c1.404-0.324,1.764-0.396,1.872-2.017
		c0.36-5.471,1.979-8.495,6.227-9.61c0.576-0.145,1.548-0.288,2.196-0.288c0.936,0,2.268,0.359,2.268,1.548
		c0,1.044-0.612,1.764-1.692,1.764c-0.324,0-1.116-0.108-1.979-0.828c-0.612-0.504-1.26-0.828-1.584-0.828
		c-2.052,0-2.412,2.988-2.412,5.22v4.644h4.463c0.252,0,0.36,0.252,0.36,0.756c0,0.468-0.216,0.9-0.972,0.9
		c-0.252,0-3.023-0.181-3.852-0.181L504.981,223.557L504.981,223.557z"/>
	<path d="M516.321,223.557c0,1.331,0,2.123,1.8,2.123c1.332,0,1.476,0.036,1.476,0.433c0,0.468-0.144,0.504-0.54,0.504
		c-1.296,0-2.448-0.072-4.104-0.072c-2.88,0-3.492,0.072-3.816,0.072c-0.252,0-0.324-0.216-0.324-0.468
		c0-0.36,0.072-0.469,0.756-0.469c1.548,0,1.836-0.287,1.836-1.835v-10.043c0-0.433,0-1.152-0.684-1.152h-1.979
		c-0.252,0-0.432,0-0.432-0.468c0-0.288,0.252-0.432,1.116-0.611c1.404-0.324,1.764-0.396,1.872-2.017
		c0.36-5.471,1.979-8.495,6.227-9.61c0.576-0.145,1.548-0.288,2.196-0.288c0.936,0,2.268,0.359,2.268,1.548
		c0,1.044-0.612,1.764-1.692,1.764c-0.324,0-1.116-0.108-1.979-0.828c-0.612-0.504-1.26-0.828-1.584-0.828
		c-2.052,0-2.412,2.988-2.412,5.22v4.644h4.463c0.252,0,0.36,0.252,0.36,0.756c0,0.468-0.216,0.9-0.972,0.9
		c-0.252,0-3.023-0.181-3.852-0.181L516.321,223.557L516.321,223.557z"/>
	<path d="M533.348,224.601c0,0.575,0.252,0.72,0.612,0.72c0.72,0,1.26-0.828,1.548-0.828c0.18,0,0.468,0.252,0.468,0.396
		c0,0.433-2.34,2.16-3.6,2.16c-1.296,0-1.583-0.828-1.979-2.088c-2.124,1.656-3.132,2.088-4.644,2.088
		c-2.808,0-3.456-2.052-3.456-3.203c0-1.836,1.08-3.348,8.135-5.976v-3.275c0-1.872-2.16-2.844-3.023-2.844
		c-0.828,0-2.556,1.296-2.556,1.655c0,0.504,0.468,1.008,0.468,1.8c0,0.396-0.324,1.368-1.764,1.368
		c-1.224,0-1.512-0.936-1.512-1.332c0-0.972,0.252-1.439,2.952-3.239c2.7-1.764,3.096-1.8,3.887-1.8c1.152,0,4.464,0.863,4.464,4.14
		L533.348,224.601L533.348,224.601z M530.432,219.273c0-0.18-0.108-0.359-0.252-0.359c-0.18,0-2.843,1.188-3.563,1.764
		c-1.008,0.756-1.188,1.296-1.188,2.628c0,1.115,0.468,2.231,1.692,2.231c1.368,0,3.312-1.26,3.312-1.908L530.432,219.273
		L530.432,219.273z"/>
	<path d="M543.176,223.196c0,2.052,0.072,2.483,1.656,2.483c0.792,0,0.864,0.036,0.864,0.469c0,0.216,0,0.468-0.36,0.468
		c-0.18,0-0.648-0.072-2.988-0.072c-3.383,0-4.319,0.072-4.859,0.072c-0.288,0-0.288-0.216-0.288-0.396
		c0-0.468,0.036-0.54,1.368-0.54c0.936,0,1.26-0.359,1.476-0.863c0.144-0.324,0.216-2.88,0.216-5.184v-4.932
		c0-1.26-0.324-1.979-2.124-2.159c-0.288-0.036-0.324-0.181-0.324-0.433c0-0.287,0.108-0.468,0.288-0.504
		c4.104-0.827,4.607-1.764,5.04-1.764c0.144,0,0.216,0.181,0.216,0.396c0,0.144-0.18,0.504-0.18,5.183v7.776H543.176z
		 M539.829,202.931c0-0.972,0.792-1.908,1.872-1.908s1.872,0.937,1.872,1.908s-0.792,1.908-1.872,1.908
		S539.829,203.902,539.829,202.931z"/>
	<path d="M550.268,214.701c0-1.26-0.324-1.979-2.124-2.159c-0.288-0.036-0.324-0.181-0.324-0.433c0-0.287,0.108-0.468,0.288-0.504
		c4.104-0.827,4.607-1.764,5.04-1.764c0.072,0,0.144,0.216,0.144,0.36c0,0.432-0.18,1.332-0.18,3.275
		c1.188-1.332,3.132-3.132,5.04-3.132c1.26,0,2.304,0.685,2.304,2.016c0,0.937-0.72,1.8-1.764,1.8c-1.476,0-1.692-1.367-2.772-1.367
		c-0.612,0-1.583,0.54-2.483,1.548c-0.252,0.288-0.252,0.684-0.252,1.044v8.171c0,1.331,0,2.123,1.8,2.123
		c1.332,0,1.476,0.036,1.476,0.433c0,0.468-0.144,0.504-0.54,0.504c-1.296,0-2.448-0.072-4.104-0.072
		c-2.879,0-3.491,0.072-4.175,0.072c-0.252,0-0.324-0.216-0.324-0.468c0-0.36,0.432-0.469,1.116-0.469
		c1.548,0,1.835-0.287,1.835-1.835L550.268,214.701L550.268,214.701z"/>
	<path d="M572.731,222.152c0,1.764-0.936,4.896-5.867,4.896c-0.648,0-2.735-0.288-4.139-0.288c-0.072,0-0.18-0.107-0.18-0.18
		c-0.036-0.36-0.828-3.527-0.828-3.888c0-0.216,0.504-0.216,0.648-0.216c0.864,0,1.08,3.636,4.536,3.636
		c2.556,0,3.275-1.944,3.275-3.204c0-3.779-8.063-2.556-8.063-7.667c0-2.951,2.448-4.896,5.472-4.896
		c1.656,0,3.743,0.288,3.887,0.324c0.468,0.108,0.54,0.792,0.54,1.008c0.072,1.476,0.396,2.412,0.396,2.88
		c0,0.216-0.216,0.288-0.396,0.288c-0.324,0-0.54-0.036-0.72-0.504c-0.252-0.612-1.188-3.06-3.744-3.06
		c-1.692,0-2.88,0.972-2.88,2.699c0,1.26,0.9,2.016,1.692,2.412C570.14,218.193,572.731,218.085,572.731,222.152z"/>
</g>
<g>
	<path fill="#990000" d="M581.679,183.828v2.696c0,1.025,0.024,2.576,0.072,3.769c0.024,0.644,0.167,1.049,2.051,1.049
		c0.668,0,0.668,0.143,0.668,0.405c0,0.215,0,0.31-0.191,0.31c-0.167,0-0.262-0.048-3.793-0.048c-3.507,0-3.602,0.048-3.769,0.048
		c-0.191,0-0.191-0.095-0.191-0.31c0-0.262,0-0.405,0.668-0.405c1.884,0,2.027-0.405,2.051-1.049
		c0.048-1.192,0.072-2.744,0.072-3.769v-5.846c0-1.693-0.024-2.266-0.048-3.364c-0.024-1.407-0.429-1.599-2.505-1.599
		c-0.262,0-0.262-0.191-0.262-0.405c0-0.143,0.048-0.31,0.215-0.31c0.192,0,2.267,0.095,3.769,0.095
		c1.526,0,3.602-0.095,3.793-0.095c0.167,0,0.215,0.167,0.215,0.31c0,0.215,0,0.405-0.262,0.405c-2.075,0-2.482,0.191-2.505,1.599
		c-0.024,1.097-0.048,1.669-0.048,3.364v2.434h9.471v-2.434c0-1.693-0.024-2.266-0.048-3.364c-0.024-1.407-0.429-1.599-2.505-1.599
		c-0.262,0-0.262-0.191-0.262-0.405c0-0.143,0.048-0.31,0.215-0.31c0.192,0,2.267,0.095,3.793,0.095
		c1.503,0,3.579-0.095,3.769-0.095c0.167,0,0.215,0.167,0.215,0.31c0,0.215,0,0.405-0.262,0.405c-2.075,0-2.482,0.191-2.505,1.599
		c-0.024,1.097-0.048,1.669-0.048,3.364v5.846c0,1.025,0.024,2.576,0.072,3.769c0.024,0.644,0.167,1.049,2.051,1.049
		c0.668,0,0.668,0.143,0.668,0.405c0,0.215,0,0.31-0.191,0.31c-0.167,0-0.262-0.048-3.769-0.048c-3.531,0-3.626,0.048-3.793,0.048
		c-0.191,0-0.191-0.095-0.191-0.31c0-0.262,0-0.405,0.668-0.405c1.884,0,2.027-0.405,2.051-1.049
		c0.048-1.192,0.072-2.744,0.072-3.769v-2.696L581.679,183.828L581.679,183.828z"/>
	<path fill="#990000" d="M605.148,190.723c0,0.382,0.167,0.477,0.405,0.477c0.477,0,0.835-0.549,1.025-0.549
		c0.119,0,0.31,0.167,0.31,0.262c0,0.286-1.55,1.431-2.385,1.431c-0.859,0-1.049-0.549-1.313-1.383
		c-1.407,1.097-2.075,1.383-3.077,1.383c-1.862,0-2.291-1.359-2.291-2.124c0-1.216,0.715-2.218,5.391-3.96v-2.17
		c0-1.241-1.431-1.885-2.003-1.885c-0.549,0-1.693,0.859-1.693,1.098c0,0.334,0.31,0.668,0.31,1.192
		c0,0.262-0.215,0.908-1.169,0.908c-0.811,0-1.002-0.62-1.002-0.884c0-0.644,0.167-0.954,1.956-2.148
		c1.79-1.169,2.051-1.192,2.577-1.192c0.763,0,2.957,0.572,2.957,2.743L605.148,190.723L605.148,190.723z M603.215,187.192
		c0-0.119-0.072-0.238-0.167-0.238c-0.119,0-1.884,0.787-2.361,1.169c-0.668,0.501-0.787,0.859-0.787,1.741
		c0,0.739,0.31,1.48,1.121,1.48c0.906,0,2.194-0.835,2.194-1.265V187.192z"/>
	<path fill="#990000" d="M609.724,184.161c0-0.835-0.215-1.312-1.407-1.431c-0.191-0.024-0.215-0.119-0.215-0.286
		c0-0.191,0.072-0.31,0.191-0.334c2.72-0.549,3.054-1.169,3.34-1.169c0.048,0,0.095,0.143,0.095,0.238
		c0,0.286-0.119,0.882-0.119,2.17c0.787-0.882,2.075-2.075,3.34-2.075c0.835,0,1.526,0.453,1.526,1.336
		c0,0.62-0.477,1.192-1.169,1.192c-0.978,0-1.122-0.906-1.838-0.906c-0.405,0-1.049,0.358-1.646,1.025
		c-0.167,0.191-0.167,0.453-0.167,0.692v5.415c0,0.884,0,1.407,1.192,1.407c0.884,0,0.978,0.024,0.978,0.286
		c0,0.31-0.095,0.334-0.358,0.334c-0.859,0-1.622-0.048-2.72-0.048c-1.908,0-2.313,0.048-2.766,0.048
		c-0.167,0-0.215-0.143-0.215-0.31c0-0.238,0.286-0.31,0.739-0.31c1.026,0,1.216-0.191,1.216-1.216L609.724,184.161L609.724,184.161
		z"/>
	<path fill="#990000" d="M619.001,184.161c0-0.835-0.215-1.312-1.407-1.431c-0.191-0.024-0.215-0.119-0.215-0.286
		c0-0.191,0.072-0.31,0.191-0.334c2.72-0.549,3.054-1.169,3.34-1.169c0.048,0,0.095,0.143,0.095,0.238
		c0,0.286-0.119,0.882-0.119,2.17c0.787-0.882,2.075-2.075,3.34-2.075c0.835,0,1.526,0.453,1.526,1.336
		c0,0.62-0.477,1.192-1.169,1.192c-0.978,0-1.121-0.906-1.836-0.906c-0.405,0-1.049,0.358-1.646,1.025
		c-0.167,0.191-0.167,0.453-0.167,0.692v5.415c0,0.884,0,1.407,1.192,1.407c0.884,0,0.978,0.024,0.978,0.286
		c0,0.31-0.095,0.334-0.358,0.334c-0.859,0-1.622-0.048-2.72-0.048c-1.908,0-2.315,0.048-2.766,0.048
		c-0.167,0-0.215-0.143-0.215-0.31c0-0.238,0.286-0.31,0.739-0.31c1.025,0,1.216-0.191,1.216-1.216v-6.059H619.001z"/>
	<path fill="#990000" d="M635.053,183.112c0-0.787-1.121-0.811-1.836-0.811c-0.215,0-0.238-0.119-0.238-0.31
		c0-0.167,0.095-0.31,0.215-0.31c0.763,0,1.55,0.048,2.315,0.048c0.739,0,1.479-0.048,2.218-0.048c0.167,0,0.167,0.215,0.167,0.31
		c0,0.215-0.072,0.286-0.405,0.31c-0.811,0.072-1.145,0.215-1.504,1.049c-0.859,1.981-4.151,8.898-4.676,10.235
		c-1.836,4.604-2.623,4.914-3.412,4.914c-0.763,0-1.336-0.668-1.336-1.407c0-0.715,0.692-1.288,1.383-1.288
		c0.596,0,0.906,0.405,1.192,0.405c0.429,0,1.55-2.291,1.55-3.412c0-0.596-0.572-2.005-0.835-2.672
		c-1.504-3.865-1.957-5.94-2.458-7.277c-0.215-0.549-1.407-0.549-1.717-0.549c-0.167,0-0.215-0.167-0.215-0.334
		c0-0.191,0.119-0.286,0.262-0.286c0.286,0,1.79,0.048,2.649,0.048c0.811,0,1.647-0.048,2.362-0.048c0.238,0,0.286,0.143,0.286,0.31
		c0,0.119-0.072,0.31-0.239,0.31c-0.143,0-1.169,0-1.169,0.525c0,1.145,0.811,3.507,2.361,7.491
		C633.074,188.05,635.053,183.851,635.053,183.112z"/>
	<path fill="#990000" d="M653.202,188.432c0-1.79-0.954-2.577-4.294-4.342c-1.979-1.049-3.626-1.957-3.626-4.461
		c0-2.504,1.669-4.843,5.2-4.843c1.693,0,2.672,0.429,3.221,0.429c0.262,0,0.453-0.429,0.644-0.429c0.143,0,0.215,0.119,0.215,0.31
		c0,1.86,0.358,3.722,0.358,3.889c0,0.119-0.119,0.238-0.238,0.238c-0.262,0-0.358,0-0.405-0.143
		c-0.668-1.86-1.646-3.674-3.913-3.674c-1.671,0-3.149,1.169-3.149,3.03c0,1.599,0.978,2.291,1.86,2.863
		c2.744,1.741,6.394,2.505,6.394,6.083c0,3.507-2.529,4.962-5.773,4.962c-1.717,0-3.173-0.191-4.199-0.334
		c-0.167-0.024-0.191-0.048-0.215-0.286c-0.167-2.553-0.334-3.507-0.334-3.626c0-0.191,0.191-0.238,0.477-0.238
		c0.191,0,0.215,0.072,0.262,0.31c0.549,1.884,1.741,3.555,4.199,3.555C652.057,191.724,653.202,190.341,653.202,188.432z"/>
	<path fill="#990000" d="M677.863,175.096c0.882,0,1.097-0.596,1.479-0.596c0.143,0,0.167,0.095,0.406,0.906
		c0.787,2.72,1.049,3.173,1.049,3.245s-0.215,0.191-0.358,0.191c-0.167,0-0.239-0.024-0.334-0.167
		c-1.145-2.075-2.291-2.863-4.032-2.863h-2.911c-0.405,0-0.572,0.262-0.572,1.502v9.208c0,1.025,0.024,2.576,0.072,3.769
		c0.024,0.644,0.167,1.049,2.051,1.049c0.668,0,0.668,0.143,0.668,0.405c0,0.215,0,0.31-0.191,0.31
		c-0.167,0-0.262-0.048-3.793-0.048c-3.506,0-3.603,0.048-3.769,0.048c-0.191,0-0.191-0.095-0.191-0.31c0-0.262,0-0.405,0.668-0.405
		c1.884,0,2.027-0.405,2.051-1.049c0.048-1.192,0.072-2.744,0.072-3.769v-9.208c0-1.502-0.238-1.502-1.049-1.502h-2.6
		c-1.766,0-2.959,1.455-3.889,2.863c-0.095,0.143-0.191,0.143-0.405,0.143c-0.215,0-0.334-0.095-0.334-0.167
		s0.119-0.167,1.145-3.197c0.095-0.262,0.143-0.954,0.358-0.954c0.501,0,0.596,0.596,1.574,0.596H677.863z"/>
	<path fill="#990000" d="M679.696,184.161c0-0.835-0.215-1.312-1.407-1.431c-0.191-0.024-0.215-0.119-0.215-0.286
		c0-0.191,0.072-0.31,0.191-0.334c2.72-0.549,3.054-1.169,3.34-1.169c0.048,0,0.095,0.143,0.095,0.238
		c0,0.286-0.119,0.882-0.119,2.17c0.787-0.882,2.075-2.075,3.34-2.075c0.835,0,1.526,0.453,1.526,1.336
		c0,0.62-0.477,1.192-1.169,1.192c-0.978,0-1.121-0.906-1.836-0.906c-0.405,0-1.049,0.358-1.646,1.025
		c-0.167,0.191-0.167,0.453-0.167,0.692v5.415c0,0.884,0,1.407,1.192,1.407c0.884,0,0.978,0.024,0.978,0.286
		c0,0.31-0.095,0.334-0.358,0.334c-0.859,0-1.622-0.048-2.72-0.048c-1.908,0-2.315,0.048-2.766,0.048
		c-0.167,0-0.215-0.143-0.215-0.31c0-0.238,0.286-0.31,0.739-0.31c1.026,0,1.216-0.191,1.216-1.216v-6.059H679.696z"/>
	<path fill="#990000" d="M688.758,184.615c0-2.099-0.239-2.243-1.479-2.243c-0.191,0-0.525,0-0.525-0.238
		c0-0.191,0-0.477,0.262-0.477c0.238,0,0.62,0.072,1.407,0.072c0.835,0,1.741-0.072,2.075-0.072c0.143,0,0.191,0,0.191,0.334v6.442
		c0,1.789,0.572,2.816,2.337,2.816c0.859,0,2.362-0.525,2.362-1.264v-6.18c0-1.288-0.238-1.432-1.479-1.432
		c-0.429,0-0.763,0-0.763-0.238c0-0.358,0-0.477,0.167-0.477c0.334,0,0.62,0.072,2.075,0.072c0.596,0,1.216-0.072,1.814-0.072
		c0.215,0,0.334,0.095,0.334,0.334c0,0.095-0.215,1.932-0.215,3.626v4.485c0,0.382,0,0.882,0.596,0.882
		c0.334,0,0.859-0.095,1.026-0.095c0.095,0,0.143,0,0.143,0.453c0,0.143-0.024,0.191-0.787,0.31c-2.027,0.334-2.601,0.62-2.744,0.62
		c-0.167,0-0.286-0.167-0.286-0.334c0-0.286,0.048-0.668,0.072-0.906c-1.192,0.882-2.649,1.312-3.555,1.312
		c-2.362,0-3.03-1.526-3.03-4.008v-3.721H688.758z"/>
	<path fill="#990000" d="M701.613,184.161c0-0.835-0.215-1.312-1.407-1.431c-0.191-0.024-0.215-0.119-0.215-0.286
		c0-0.191,0.072-0.31,0.191-0.334c2.72-0.549,3.054-1.169,3.34-1.169c0.048,0,0.072,0.072,0.072,0.262
		c0,0.143-0.048,0.668-0.048,1.598c0.62-0.477,2.886-1.526,4.199-1.526c1.169,0,2.003,0.572,2.599,1.55
		c1.288-0.763,2.218-1.55,3.65-1.55c0.811,0,3.148,0.119,3.148,2.911v6.346c0,0.405,0.072,0.859,1.55,0.859
		c0.238,0,0.238,0.143,0.238,0.31c0,0.143,0,0.31-0.334,0.31c-0.717,0-1.145-0.048-2.41-0.048c-1.932,0-2.315,0.048-2.505,0.048
		c-0.143,0-0.167-0.167-0.167-0.286c0-0.119,0.048-0.334,0.334-0.334c1.145,0,1.359-0.095,1.359-0.882v-6.18
		c0-0.31-0.191-1.957-2.433-1.957c-1.049,0-2.433,1.049-2.433,1.313v6.107c0,1.359,0.048,1.646,1.097,1.646
		c0.644,0,0.692,0.024,0.692,0.31c0,0.143,0,0.31-0.238,0.31c-0.119,0-0.429-0.048-2.505-0.048c-1.932,0-2.315,0.048-2.505,0.048
		c-0.143,0-0.167-0.167-0.167-0.286c0-0.119,0.048-0.334,0.334-0.334c1.145,0,1.359-0.095,1.359-0.93v-6.18
		c0-0.906-0.191-1.957-2.433-1.957c-1.049,0-2.433,1.049-2.433,1.313v6.107c0,1.359,0.048,1.646,1.097,1.646
		c0.644,0,0.692,0.024,0.692,0.31c0,0.143,0,0.31-0.239,0.31c-0.119,0-0.429-0.048-2.099-0.048c-2.242,0-2.623,0.048-2.981,0.048
		c-0.191,0-0.191-0.143-0.191-0.262c0-0.31,0.024-0.358,0.668-0.358c0.62,0,0.835-0.238,0.978-0.572
		c0.095-0.215,0.143-1.908,0.143-3.436v-3.267H701.613z"/>
	<path fill="#990000" d="M727.657,190.723c0,0.382,0.167,0.477,0.405,0.477c0.477,0,0.835-0.549,1.026-0.549
		c0.119,0,0.31,0.167,0.31,0.262c0,0.286-1.55,1.431-2.385,1.431c-0.859,0-1.049-0.549-1.312-1.383
		c-1.407,1.097-2.076,1.383-3.078,1.383c-1.862,0-2.291-1.359-2.291-2.124c0-1.216,0.715-2.218,5.391-3.96v-2.17
		c0-1.241-1.431-1.885-2.003-1.885c-0.549,0-1.693,0.859-1.693,1.098c0,0.334,0.31,0.668,0.31,1.192
		c0,0.262-0.215,0.908-1.169,0.908c-0.811,0-1.002-0.62-1.002-0.884c0-0.644,0.167-0.954,1.957-2.148
		c1.79-1.169,2.052-1.192,2.577-1.192c0.763,0,2.957,0.572,2.957,2.743v6.801H727.657z M725.724,187.192
		c0-0.119-0.072-0.238-0.167-0.238c-0.119,0-1.884,0.787-2.361,1.169c-0.668,0.501-0.787,0.859-0.787,1.741
		c0,0.739,0.31,1.48,1.121,1.48c0.906,0,2.194-0.835,2.194-1.265L725.724,187.192L725.724,187.192z"/>
	<path fill="#990000" d="M734.047,189.792c0,1.359,0.048,1.646,1.097,1.646c0.644,0,0.692,0.024,0.692,0.31
		c0,0.143,0,0.31-0.238,0.31c-0.119,0-0.429-0.048-2.099-0.048c-2.242,0-2.863,0.048-3.221,0.048c-0.191,0-0.191-0.143-0.191-0.262
		c0-0.31,0.024-0.358,0.906-0.358c0.62,0,0.835-0.238,0.978-0.572c0.095-0.215,0.143-1.908,0.143-3.436v-3.269
		c0-0.835-0.215-1.312-1.407-1.431c-0.191-0.024-0.215-0.119-0.215-0.286c0-0.191,0.072-0.31,0.191-0.334
		c2.72-0.549,3.054-1.169,3.34-1.169c0.048,0,0.072,0.072,0.072,0.262c0,0.143-0.048,0.668-0.048,1.717
		c1.241-0.835,2.456-1.647,3.746-1.647c0.811,0,3.148,0.167,3.148,3.579v5.725c0,0.405,0.072,0.859,1.55,0.859
		c0.238,0,0.238,0.143,0.238,0.31c0,0.143,0,0.31-0.334,0.31c-0.715,0-1.145-0.048-2.409-0.048c-1.932,0-2.315,0.048-2.505,0.048
		c-0.143,0-0.167-0.167-0.167-0.286c0-0.119,0.048-0.334,0.334-0.334c1.145,0,1.359-0.095,1.359-0.882v-4.27
		c0-2.218-0.191-3.698-2.672-3.698c-0.906,0-2.194,0.811-2.291,1.098v6.108H734.047z"/>
</g>
<g>
	<path fill="#990000" d="M589.226,221.145c0-2.699-1.44-3.888-6.479-6.551c-2.987-1.584-5.471-2.952-5.471-6.731
		s2.52-7.308,7.847-7.308c2.556,0,4.031,0.648,4.859,0.648c0.396,0,0.684-0.648,0.972-0.648c0.216,0,0.324,0.181,0.324,0.468
		c0,2.808,0.54,5.616,0.54,5.868c0,0.18-0.18,0.359-0.36,0.359c-0.396,0-0.54,0-0.612-0.216c-1.008-2.808-2.484-5.543-5.903-5.543
		c-2.52,0-4.751,1.764-4.751,4.571c0,2.412,1.476,3.456,2.808,4.319c4.14,2.628,9.647,3.779,9.647,9.179
		c0,5.292-3.815,7.487-8.711,7.487c-2.592,0-4.788-0.288-6.335-0.504c-0.252-0.036-0.288-0.072-0.324-0.432
		c-0.252-3.852-0.504-5.292-0.504-5.472c0-0.288,0.288-0.36,0.72-0.36c0.288,0,0.324,0.108,0.396,0.469
		c0.828,2.844,2.628,5.363,6.335,5.363C587.498,226.112,589.226,224.024,589.226,221.145z"/>
	<path fill="#990000" d="M608.918,223.521c0.288-0.252,0.432-0.576,0.612-0.576c0.108,0,0.54,0.252,0.54,0.504
		c0,0.145-0.072,0.324-0.288,0.54c-1.835,2.088-3.923,3.06-6.299,3.06c-4.176,0-7.451-2.987-7.451-8.135
		c0-5.327,3.527-8.567,8.171-8.567c4.932,0,5.867,2.664,5.867,3.42c0,0.432-0.576,1.548-1.908,1.548c-1.152,0-1.296-0.36-1.692-2.34
		c-0.108-0.54-0.36-1.691-2.231-1.691c-2.268,0-5.076,1.728-5.076,7.631c0,1.619,0.612,6.119,6.12,6.119
		C606.614,225.032,608.198,224.132,608.918,223.521z"/>
	<path fill="#990000" d="M616.982,212.506c1.872-1.26,3.456-2.16,5.651-2.16c1.224,0,4.751,0.252,4.751,5.399v8.639
		c0,0.612,0.108,1.296,2.34,1.296c0.36,0,0.36,0.217,0.36,0.469c0,0.216,0,0.468-0.504,0.468c-1.08,0-1.728-0.072-3.636-0.072
		c-2.916,0-3.492,0.072-3.779,0.072c-0.216,0-0.252-0.252-0.252-0.433c0-0.18,0.072-0.504,0.504-0.504
		c1.728,0,2.052-0.144,2.052-1.331v-6.443c0-3.348-0.288-5.579-4.032-5.579c-1.548,0-3.312,0.72-3.456,1.331v9.539
		c0,2.052,0.072,2.483,1.656,2.483c0.972,0,1.044,0.036,1.044,0.469c0,0.216,0,0.468-0.36,0.468c-0.18,0-0.648-0.072-3.167-0.072
		c-3.384,0-4.32,0.072-4.68,0.072c-0.288,0-0.288-0.216-0.288-0.396c0-0.468,0.036-0.54,1.368-0.54c0.756,0,1.08-0.359,1.296-0.863
		c0.144-0.324,0.216-5.075,0.216-6.623v-12.599c0-3.132-0.108-3.563-2.088-3.744c-0.216-0.036-0.324-0.18-0.324-0.432
		c0-0.288,0.108-0.468,0.288-0.504c2.916-0.504,4.644-1.548,5.003-1.548c0.144,0,0.216,0.18,0.216,0.396
		c0,0.145-0.18,0.504-0.18,5.184L616.982,212.506L616.982,212.506z"/>
	<path fill="#990000" d="M640.382,227.048c-4.932,0-8.351-3.563-8.351-8.351c0-4.752,3.563-8.352,8.351-8.352
		c4.823,0,8.387,3.492,8.387,8.352C648.769,223.736,645.421,227.048,640.382,227.048z M640.382,211.282
		c-3.744,0-4.932,3.887-4.932,7.415c0,3.06,0.72,7.415,4.932,7.415c4.247,0,4.967-4.355,4.967-7.415
		C645.35,215.169,644.162,211.282,640.382,211.282z"/>
	<path fill="#990000" d="M659.714,227.048c-4.932,0-8.351-3.563-8.351-8.351c0-4.752,3.563-8.352,8.351-8.352
		c4.823,0,8.387,3.492,8.387,8.352C668.101,223.736,664.753,227.048,659.714,227.048z M659.714,211.282
		c-3.744,0-4.932,3.887-4.932,7.415c0,3.06,0.72,7.415,4.932,7.415c4.247,0,4.967-4.355,4.967-7.415
		C664.681,215.169,663.493,211.282,659.714,211.282z"/>
	<path fill="#990000" d="M675.842,223.196c0,2.052,0.072,2.483,1.656,2.483c0.972,0,1.044,0.036,1.044,0.469
		c0,0.216,0,0.468-0.36,0.468c-0.18,0-0.648-0.072-3.167-0.072c-3.383,0-4.319,0.072-4.679,0.072c-0.288,0-0.288-0.216-0.288-0.396
		c0-0.468,0.036-0.54,1.368-0.54c0.756,0,1.08-0.359,1.296-0.863c0.144-0.324,0.216-5.075,0.216-6.623v-12.599
		c0-3.132-0.108-3.563-2.087-3.744c-0.216-0.036-0.324-0.18-0.324-0.432c0-0.288,0.108-0.468,0.288-0.504
		c2.916-0.504,4.644-1.548,5.003-1.548c0.144,0,0.216,0.18,0.216,0.396c0,0.145-0.18,0.504-0.18,5.184v18.249H675.842z"/>
	<path fill="#990000" d="M698.377,227.048c-4.932,0-8.351-3.563-8.351-8.351c0-4.752,3.563-8.352,8.351-8.352
		c4.823,0,8.387,3.492,8.387,8.352C706.764,223.736,703.416,227.048,698.377,227.048z M698.377,211.282
		c-3.744,0-4.932,3.887-4.932,7.415c0,3.06,0.72,7.415,4.932,7.415c4.247,0,4.967-4.355,4.967-7.415
		C703.344,215.169,702.156,211.282,698.377,211.282z"/>
	<path fill="#990000" d="M714.973,223.557c0,1.331,0,2.123,1.8,2.123c1.332,0,1.476,0.036,1.476,0.433
		c0,0.468-0.144,0.504-0.54,0.504c-1.296,0-2.448-0.072-4.104-0.072c-2.88,0-3.492,0.072-3.815,0.072
		c-0.252,0-0.324-0.216-0.324-0.468c0-0.36,0.072-0.469,0.756-0.469c1.548,0,1.836-0.287,1.836-1.835v-10.043
		c0-0.433,0-1.152-0.684-1.152h-1.979c-0.252,0-0.432,0-0.432-0.468c0-0.288,0.252-0.432,1.116-0.611
		c1.404-0.324,1.764-0.396,1.872-2.017c0.36-5.471,1.979-8.495,6.227-9.61c0.576-0.145,1.548-0.288,2.196-0.288
		c0.936,0,2.268,0.359,2.268,1.548c0,1.044-0.612,1.764-1.692,1.764c-0.324,0-1.116-0.108-1.979-0.828
		c-0.612-0.504-1.26-0.828-1.584-0.828c-2.052,0-2.412,2.988-2.412,5.22v4.644h4.463c0.252,0,0.36,0.252,0.36,0.756
		c0,0.468-0.216,0.9-0.972,0.9c-0.252,0-3.023-0.181-3.852-0.181v10.906H714.973z"/>
	<path fill="#990000" d="M733.656,209.446c0-2.556-0.036-3.42-0.072-5.076c-0.036-2.123-0.648-2.411-3.24-2.411
		c-0.396,0-0.396-0.288-0.396-0.612c0-0.216,0.072-0.468,0.324-0.468c0.288,0,2.879,0.144,5.147,0.144
		c0.324,0,3.239-0.144,5.111-0.144c8.603,0,9.502,5.651,9.502,7.127c0,5.147-3.563,7.775-8.458,7.775c-1.44,0-2.88-0.072-4.355-0.36
		c0,5.724,0.036,6.731,0.072,7.812c0.072,1.439,0.288,2.304,3.996,2.304c1.008,0,1.008,0.216,1.008,0.612
		c0,0.323,0,0.468-0.288,0.468c-0.252,0-1.26-0.072-6.587-0.072c-5.292,0-5.436,0.072-5.688,0.072c-0.288,0-0.288-0.145-0.288-0.468
		c0-0.396,0-0.612,1.008-0.612c2.843,0,3.06-0.612,3.095-1.584c0.072-1.8,0.108-4.14,0.108-5.688v-8.819H733.656z M737.22,213.334
		c0,0.827,0.216,1.367,2.052,1.367c3.923,0,6.875-2.268,6.875-6.407c0-3.707-2.376-6.335-5.903-6.335c-2.736,0-3.06,0-3.023,2.987
		L737.22,213.334L737.22,213.334z"/>
	<path fill="#990000" d="M754.607,215.386c0-3.168-0.36-3.384-2.232-3.384c-0.288,0-0.792,0-0.792-0.36c0-0.288,0-0.72,0.396-0.72
		c0.36,0,0.936,0.108,2.124,0.108c1.26,0,2.627-0.108,3.131-0.108c0.216,0,0.288,0,0.288,0.504v9.719c0,2.7,0.864,4.248,3.528,4.248
		c1.295,0,3.563-0.792,3.563-1.908v-9.323c0-1.943-0.36-2.159-2.232-2.159c-0.648,0-1.152,0-1.152-0.36c0-0.54,0-0.72,0.252-0.72
		c0.504,0,0.936,0.108,3.132,0.108c0.9,0,1.835-0.108,2.735-0.108c0.324,0,0.504,0.144,0.504,0.504c0,0.145-0.324,2.916-0.324,5.472
		v6.767c0,0.576,0,1.332,0.9,1.332c0.504,0,1.296-0.144,1.548-0.144c0.144,0,0.216,0,0.216,0.684c0,0.216-0.036,0.288-1.188,0.468
		c-3.06,0.504-3.923,0.936-4.139,0.936c-0.252,0-0.432-0.252-0.432-0.504c0-0.432,0.072-1.008,0.108-1.367
		c-1.8,1.332-3.995,1.979-5.363,1.979c-3.563,0-4.571-2.304-4.571-6.047L754.607,215.386L754.607,215.386z"/>
	<path fill="#990000" d="M776.819,211.822c1.296-1.152,2.412-1.692,4.355-1.692c3.528,0,7.595,2.268,7.595,8.387
		c0,6.155-4.392,8.531-7.703,8.531c-2.735,0-4.463-1.403-5.543-1.403c-0.936,0-0.9,1.043-1.404,1.043
		c-0.288,0-0.288-0.287-0.288-0.468c0-0.54,0.072-0.972,0.072-1.836v-18.789c0-3.132-0.108-3.563-2.087-3.744
		c-0.216-0.036-0.324-0.18-0.324-0.432c0-0.288,0.108-0.468,0.288-0.504c2.916-0.504,4.644-1.548,5.003-1.548
		c0.144,0,0.216,0.18,0.216,0.396c0,0.145-0.18,0.504-0.18,5.184V211.822z M776.819,221.324c0,2.988,1.116,4.788,3.96,4.788
		c3.959,0,4.571-3.924,4.571-7.092c0-2.591-0.396-7.811-4.788-7.811c-2.304,0-3.744,1.332-3.744,3.563v6.552H776.819z"/>
	<path fill="#990000" d="M796.51,223.196c0,2.052,0.072,2.483,1.656,2.483c0.972,0,1.044,0.036,1.044,0.469
		c0,0.216,0,0.468-0.36,0.468c-0.18,0-0.648-0.072-3.167-0.072c-3.383,0-4.319,0.072-4.679,0.072c-0.288,0-0.288-0.216-0.288-0.396
		c0-0.468,0.036-0.54,1.368-0.54c0.756,0,1.08-0.359,1.296-0.863c0.144-0.324,0.216-5.075,0.216-6.623v-12.599
		c0-3.132-0.108-3.563-2.087-3.744c-0.216-0.036-0.324-0.18-0.324-0.432c0-0.288,0.108-0.468,0.288-0.504
		c2.916-0.504,4.644-1.548,5.003-1.548c0.144,0,0.216,0.18,0.216,0.396c0,0.145-0.18,0.504-0.18,5.184v18.249H796.51z"/>
	<path fill="#990000" d="M806.519,223.196c0,2.052,0.072,2.483,1.656,2.483c0.792,0,0.864,0.036,0.864,0.469
		c0,0.216,0,0.468-0.36,0.468c-0.18,0-0.648-0.072-2.988-0.072c-3.383,0-4.319,0.072-4.859,0.072c-0.288,0-0.288-0.216-0.288-0.396
		c0-0.468,0.036-0.54,1.368-0.54c0.936,0,1.26-0.359,1.476-0.863c0.144-0.324,0.216-2.88,0.216-5.184v-4.932
		c0-1.26-0.324-1.979-2.124-2.159c-0.288-0.036-0.324-0.181-0.324-0.433c0-0.287,0.108-0.468,0.288-0.504
		c4.104-0.827,4.607-1.764,5.04-1.764c0.144,0,0.216,0.181,0.216,0.396c0,0.144-0.18,0.504-0.18,5.183v7.776H806.519z
		 M803.171,202.931c0-0.972,0.792-1.908,1.872-1.908s1.872,0.937,1.872,1.908s-0.792,1.908-1.872,1.908
		S803.171,203.902,803.171,202.931z"/>
	<path fill="#990000" d="M824.265,223.521c0.288-0.252,0.432-0.576,0.612-0.576c0.108,0,0.54,0.252,0.54,0.504
		c0,0.145-0.072,0.324-0.288,0.54c-1.835,2.088-3.923,3.06-6.299,3.06c-4.176,0-7.451-2.987-7.451-8.135
		c0-5.327,3.527-8.567,8.171-8.567c4.931,0,5.867,2.664,5.867,3.42c0,0.432-0.576,1.548-1.908,1.548c-1.152,0-1.296-0.36-1.692-2.34
		c-0.108-0.54-0.36-1.691-2.231-1.691c-2.268,0-5.076,1.728-5.076,7.631c0,1.619,0.612,6.119,6.12,6.119
		C821.961,225.032,823.545,224.132,824.265,223.521z"/>
	<path fill="#990000" d="M841.474,217.257c-1.044,0-1.188,0-1.476,0.756c-1.512,3.96-1.98,5.615-1.98,6.228
		c0,0.468,0,1.296,1.872,1.296c2.16,0,2.304,0.144,2.304,0.504c0,0.432-0.072,0.576-0.432,0.576c-0.288,0-0.756-0.072-5.04-0.072
		c-2.196,0-2.556,0.072-2.844,0.072c-0.18,0-0.252-0.181-0.252-0.612c0-0.288,0.36-0.468,1.332-0.468
		c0.684,0,1.368-0.432,1.836-1.836c2.195-6.371,4.967-14.146,8.459-22.857c0.108-0.324,0.252-0.324,0.684-0.324
		c0.324,0,0.432,0,0.612,0.433c0.252,0.611,6.263,17.098,8.783,22.857c0.576,1.331,1.332,1.728,2.735,1.728
		c0.324,0,1.08,0.108,1.08,0.396c0,0.252-0.072,0.685-0.396,0.685c-0.36,0-0.648-0.072-5.003-0.072
		c-4.859,0-5.111,0.072-5.363,0.072c-0.144,0-0.18-0.288-0.18-0.648c0-0.359,0.792-0.432,1.512-0.432
		c1.439,0,1.908-0.18,1.908-0.792c0-0.864-2.16-5.976-2.736-7.487h-7.415V217.257z M848.421,216.069l-3.815-10.547h-0.072
		c-0.252,0-3.671,9.646-3.671,10.15c0,0.396,0.216,0.396,1.368,0.396h6.19V216.069z"/>
	<path fill="#990000" d="M864.981,223.557c0,1.331,0,2.123,1.8,2.123c1.332,0,1.476,0.036,1.476,0.433
		c0,0.468-0.144,0.504-0.54,0.504c-1.296,0-2.448-0.072-4.104-0.072c-2.88,0-3.492,0.072-3.815,0.072
		c-0.252,0-0.324-0.216-0.324-0.468c0-0.36,0.072-0.469,0.756-0.469c1.548,0,1.836-0.287,1.836-1.835v-10.043
		c0-0.433,0-1.152-0.684-1.152h-1.98c-0.252,0-0.432,0-0.432-0.468c0-0.288,0.252-0.432,1.116-0.611
		c1.404-0.324,1.764-0.396,1.872-2.017c0.36-5.471,1.979-8.495,6.227-9.61c0.576-0.145,1.548-0.288,2.196-0.288
		c0.936,0,2.268,0.359,2.268,1.548c0,1.044-0.612,1.764-1.692,1.764c-0.324,0-1.116-0.108-1.979-0.828
		c-0.612-0.504-1.26-0.828-1.584-0.828c-2.052,0-2.412,2.988-2.412,5.22v4.644h4.463c0.252,0,0.36,0.252,0.36,0.756
		c0,0.468-0.216,0.9-0.972,0.9c-0.252,0-3.023-0.181-3.852-0.181L864.981,223.557L864.981,223.557z"/>
	<path fill="#990000" d="M876.321,223.557c0,1.331,0,2.123,1.8,2.123c1.332,0,1.476,0.036,1.476,0.433
		c0,0.468-0.144,0.504-0.54,0.504c-1.296,0-2.448-0.072-4.104-0.072c-2.88,0-3.492,0.072-3.816,0.072
		c-0.252,0-0.324-0.216-0.324-0.468c0-0.36,0.072-0.469,0.756-0.469c1.548,0,1.836-0.287,1.836-1.835v-10.043
		c0-0.433,0-1.152-0.684-1.152h-1.979c-0.252,0-0.432,0-0.432-0.468c0-0.288,0.252-0.432,1.116-0.611
		c1.404-0.324,1.764-0.396,1.872-2.017c0.36-5.471,1.979-8.495,6.227-9.61c0.576-0.145,1.548-0.288,2.196-0.288
		c0.936,0,2.268,0.359,2.268,1.548c0,1.044-0.612,1.764-1.692,1.764c-0.324,0-1.116-0.108-1.979-0.828
		c-0.612-0.504-1.26-0.828-1.584-0.828c-2.052,0-2.412,2.988-2.412,5.22v4.644h4.463c0.252,0,0.36,0.252,0.36,0.756
		c0,0.468-0.216,0.9-0.972,0.9c-0.252,0-3.023-0.181-3.852-0.181L876.321,223.557L876.321,223.557z"/>
	<path fill="#990000" d="M893.348,224.601c0,0.575,0.252,0.72,0.612,0.72c0.72,0,1.26-0.828,1.548-0.828
		c0.18,0,0.468,0.252,0.468,0.396c0,0.433-2.34,2.16-3.6,2.16c-1.296,0-1.583-0.828-1.979-2.088
		c-2.124,1.656-3.132,2.088-4.644,2.088c-2.808,0-3.456-2.052-3.456-3.203c0-1.836,1.08-3.348,8.135-5.976v-3.275
		c0-1.872-2.16-2.844-3.023-2.844c-0.828,0-2.556,1.296-2.556,1.655c0,0.504,0.468,1.008,0.468,1.8c0,0.396-0.324,1.368-1.764,1.368
		c-1.224,0-1.512-0.936-1.512-1.332c0-0.972,0.252-1.439,2.952-3.239c2.7-1.764,3.096-1.8,3.887-1.8c1.152,0,4.464,0.863,4.464,4.14
		L893.348,224.601L893.348,224.601z M890.432,219.273c0-0.18-0.108-0.359-0.252-0.359c-0.18,0-2.843,1.188-3.563,1.764
		c-1.008,0.756-1.188,1.296-1.188,2.628c0,1.115,0.468,2.231,1.692,2.231c1.368,0,3.312-1.26,3.312-1.908v-4.356H890.432z"/>
	<path fill="#990000" d="M903.176,223.196c0,2.052,0.072,2.483,1.656,2.483c0.792,0,0.864,0.036,0.864,0.469
		c0,0.216,0,0.468-0.36,0.468c-0.18,0-0.648-0.072-2.988-0.072c-3.383,0-4.319,0.072-4.859,0.072c-0.288,0-0.288-0.216-0.288-0.396
		c0-0.468,0.036-0.54,1.368-0.54c0.936,0,1.26-0.359,1.476-0.863c0.144-0.324,0.216-2.88,0.216-5.184v-4.932
		c0-1.26-0.324-1.979-2.124-2.159c-0.288-0.036-0.324-0.181-0.324-0.433c0-0.287,0.108-0.468,0.288-0.504
		c4.104-0.827,4.607-1.764,5.04-1.764c0.144,0,0.216,0.181,0.216,0.396c0,0.144-0.18,0.504-0.18,5.183v7.776H903.176z
		 M899.829,202.931c0-0.972,0.792-1.908,1.872-1.908s1.872,0.937,1.872,1.908s-0.792,1.908-1.872,1.908
		S899.829,203.902,899.829,202.931z"/>
	<path fill="#990000" d="M910.268,214.701c0-1.26-0.324-1.979-2.124-2.159c-0.288-0.036-0.324-0.181-0.324-0.433
		c0-0.287,0.108-0.468,0.288-0.504c4.104-0.827,4.607-1.764,5.04-1.764c0.072,0,0.144,0.216,0.144,0.36
		c0,0.432-0.18,1.332-0.18,3.275c1.188-1.332,3.132-3.132,5.04-3.132c1.26,0,2.304,0.685,2.304,2.016c0,0.937-0.72,1.8-1.764,1.8
		c-1.476,0-1.692-1.367-2.772-1.367c-0.612,0-1.583,0.54-2.483,1.548c-0.252,0.288-0.252,0.684-0.252,1.044v8.171
		c0,1.331,0,2.123,1.8,2.123c1.332,0,1.476,0.036,1.476,0.433c0,0.468-0.144,0.504-0.54,0.504c-1.296,0-2.448-0.072-4.104-0.072
		c-2.879,0-3.491,0.072-4.175,0.072c-0.252,0-0.324-0.216-0.324-0.468c0-0.36,0.432-0.469,1.116-0.469
		c1.548,0,1.835-0.287,1.835-1.835v-9.143H910.268z"/>
	<path fill="#990000" d="M932.731,222.152c0,1.764-0.936,4.896-5.867,4.896c-0.648,0-2.735-0.288-4.139-0.288
		c-0.072,0-0.18-0.107-0.18-0.18c-0.036-0.36-0.828-3.527-0.828-3.888c0-0.216,0.504-0.216,0.648-0.216
		c0.864,0,1.08,3.636,4.536,3.636c2.556,0,3.275-1.944,3.275-3.204c0-3.779-8.063-2.556-8.063-7.667
		c0-2.951,2.448-4.896,5.472-4.896c1.656,0,3.743,0.288,3.887,0.324c0.468,0.108,0.54,0.792,0.54,1.008
		c0.072,1.476,0.396,2.412,0.396,2.88c0,0.216-0.216,0.288-0.396,0.288c-0.324,0-0.54-0.036-0.72-0.504
		c-0.252-0.612-1.188-3.06-3.744-3.06c-1.692,0-2.88,0.972-2.88,2.699c0,1.26,0.9,2.016,1.692,2.412
		C930.14,218.193,932.731,218.085,932.731,222.152z"/>
</g>
<g>
	<g>
		<path d="M940.518,181.186v1.788c0,0.68,0.016,1.708,0.047,2.5c0.016,0.427,0.111,0.696,1.36,0.696
			c0.443,0,0.443,0.095,0.443,0.269c0,0.142,0,0.206-0.127,0.206c-0.111,0-0.174-0.032-2.516-0.032c-2.326,0-2.389,0.032-2.5,0.032
			c-0.127,0-0.127-0.063-0.127-0.206c0-0.174,0-0.269,0.443-0.269c1.249,0,1.344-0.269,1.36-0.696c0.032-0.791,0.047-1.82,0.047-2.5
			v-3.876c0-1.123-0.016-1.502-0.032-2.231c-0.016-0.933-0.285-1.061-1.661-1.061c-0.174,0-0.174-0.127-0.174-0.269
			c0-0.095,0.032-0.206,0.142-0.206c0.127,0,1.503,0.063,2.5,0.063c1.012,0,2.389-0.063,2.516-0.063
			c0.111,0,0.142,0.111,0.142,0.206c0,0.142,0,0.269-0.174,0.269c-1.376,0-1.646,0.127-1.661,1.061
			c-0.016,0.728-0.032,1.107-0.032,2.231v1.614h6.28v-1.614c0-1.123-0.016-1.502-0.032-2.231c-0.016-0.933-0.285-1.06-1.661-1.06
			c-0.174,0-0.174-0.127-0.174-0.269c0-0.095,0.032-0.206,0.142-0.206c0.127,0,1.503,0.063,2.516,0.063
			c0.996,0,2.373-0.063,2.5-0.063c0.111,0,0.142,0.111,0.142,0.206c0,0.142,0,0.269-0.174,0.269c-1.376,0-1.646,0.127-1.661,1.06
			c-0.016,0.728-0.032,1.107-0.032,2.231v3.876c0,0.68,0.016,1.708,0.047,2.5c0.016,0.427,0.111,0.696,1.36,0.696
			c0.443,0,0.443,0.095,0.443,0.269c0,0.142,0,0.206-0.127,0.206c-0.111,0-0.174-0.032-2.5-0.032c-2.342,0-2.405,0.032-2.516,0.032
			c-0.127,0-0.127-0.063-0.127-0.206c0-0.174,0-0.269,0.443-0.269c1.249,0,1.344-0.269,1.36-0.696c0.032-0.791,0.047-1.82,0.047-2.5
			v-1.788L940.518,181.186L940.518,181.186z"/>
		<path d="M956.081,185.758c0,0.253,0.111,0.316,0.269,0.316c0.316,0,0.554-0.364,0.68-0.364c0.079,0,0.206,0.111,0.206,0.174
			c0,0.19-1.028,0.949-1.582,0.949c-0.569,0-0.696-0.364-0.871-0.917c-0.933,0.727-1.376,0.917-2.04,0.917
			c-1.234,0-1.519-0.901-1.519-1.408c0-0.807,0.474-1.471,3.575-2.626v-1.439c0-0.823-0.949-1.25-1.328-1.25
			c-0.364,0-1.123,0.569-1.123,0.728c0,0.221,0.206,0.443,0.206,0.791c0,0.174-0.142,0.602-0.775,0.602
			c-0.538,0-0.664-0.411-0.664-0.586c0-0.427,0.111-0.633,1.297-1.424c1.187-0.775,1.36-0.791,1.709-0.791
			c0.506,0,1.961,0.38,1.961,1.819V185.758z M954.799,183.416c0-0.079-0.047-0.158-0.111-0.158c-0.079,0-1.249,0.522-1.566,0.775
			c-0.443,0.332-0.522,0.569-0.522,1.155c0,0.49,0.206,0.981,0.743,0.981c0.601,0,1.455-0.554,1.455-0.839V183.416z"/>
		<path d="M959.116,181.407c0-0.554-0.142-0.87-0.933-0.949c-0.127-0.016-0.142-0.079-0.142-0.19c0-0.127,0.047-0.206,0.127-0.221
			c1.804-0.364,2.025-0.775,2.215-0.775c0.032,0,0.063,0.095,0.063,0.158c0,0.19-0.079,0.585-0.079,1.439
			c0.522-0.585,1.376-1.376,2.215-1.376c0.554,0,1.012,0.3,1.012,0.886c0,0.411-0.316,0.791-0.775,0.791
			c-0.648,0-0.744-0.601-1.219-0.601c-0.269,0-0.696,0.237-1.091,0.68c-0.111,0.127-0.111,0.3-0.111,0.459v3.591
			c0,0.586,0,0.933,0.791,0.933c0.586,0,0.648,0.016,0.648,0.19c0,0.206-0.063,0.221-0.237,0.221c-0.569,0-1.075-0.032-1.804-0.032
			c-1.265,0-1.534,0.032-1.835,0.032c-0.111,0-0.142-0.095-0.142-0.206c0-0.158,0.19-0.206,0.49-0.206
			c0.68,0,0.807-0.127,0.807-0.807V181.407z"/>
		<path d="M965.268,181.407c0-0.554-0.142-0.87-0.933-0.949c-0.127-0.016-0.142-0.079-0.142-0.19c0-0.127,0.047-0.206,0.127-0.221
			c1.804-0.364,2.025-0.775,2.215-0.775c0.032,0,0.063,0.095,0.063,0.158c0,0.19-0.079,0.585-0.079,1.439
			c0.522-0.585,1.376-1.376,2.215-1.376c0.554,0,1.012,0.3,1.012,0.886c0,0.411-0.316,0.791-0.775,0.791
			c-0.648,0-0.743-0.601-1.218-0.601c-0.269,0-0.696,0.237-1.091,0.68c-0.111,0.127-0.111,0.3-0.111,0.459v3.591
			c0,0.586,0,0.933,0.791,0.933c0.586,0,0.648,0.016,0.648,0.19c0,0.206-0.063,0.221-0.237,0.221c-0.569,0-1.075-0.032-1.804-0.032
			c-1.265,0-1.535,0.032-1.835,0.032c-0.111,0-0.142-0.095-0.142-0.206c0-0.158,0.19-0.206,0.49-0.206
			c0.68,0,0.807-0.127,0.807-0.807L965.268,181.407L965.268,181.407z"/>
		<path d="M975.913,180.711c0-0.522-0.743-0.538-1.218-0.538c-0.142,0-0.158-0.079-0.158-0.206c0-0.111,0.063-0.206,0.142-0.206
			c0.506,0,1.028,0.032,1.535,0.032c0.49,0,0.981-0.032,1.471-0.032c0.111,0,0.111,0.142,0.111,0.206
			c0,0.142-0.047,0.19-0.269,0.206c-0.538,0.047-0.759,0.142-0.997,0.696c-0.569,1.314-2.753,5.901-3.101,6.787
			c-1.218,3.053-1.74,3.259-2.262,3.259c-0.506,0-0.886-0.443-0.886-0.933c0-0.474,0.459-0.854,0.917-0.854
			c0.395,0,0.601,0.269,0.791,0.269c0.285,0,1.028-1.519,1.028-2.262c0-0.395-0.38-1.329-0.554-1.772
			c-0.997-2.563-1.298-3.939-1.63-4.825c-0.142-0.364-0.933-0.364-1.139-0.364c-0.111,0-0.142-0.111-0.142-0.221
			c0-0.127,0.079-0.19,0.174-0.19c0.19,0,1.187,0.032,1.756,0.032c0.538,0,1.092-0.032,1.567-0.032c0.158,0,0.19,0.095,0.19,0.206
			c0,0.079-0.047,0.206-0.158,0.206c-0.095,0-0.775,0-0.775,0.348c0,0.759,0.538,2.326,1.566,4.968
			C974.6,183.986,975.913,181.201,975.913,180.711z"/>
		<path d="M987.948,184.239c0-1.187-0.633-1.709-2.848-2.879c-1.313-0.696-2.405-1.298-2.405-2.958c0-1.661,1.107-3.211,3.449-3.211
			c1.123,0,1.772,0.285,2.136,0.285c0.174,0,0.301-0.285,0.427-0.285c0.095,0,0.142,0.079,0.142,0.206
			c0,1.234,0.237,2.468,0.237,2.579c0,0.079-0.079,0.158-0.158,0.158c-0.174,0-0.237,0-0.269-0.095
			c-0.443-1.234-1.091-2.436-2.595-2.436c-1.108,0-2.089,0.775-2.089,2.009c0,1.061,0.648,1.519,1.234,1.899
			c1.82,1.154,4.24,1.661,4.24,4.034c0,2.326-1.677,3.29-3.828,3.29c-1.139,0-2.104-0.127-2.784-0.221
			c-0.111-0.016-0.127-0.032-0.142-0.19c-0.111-1.693-0.221-2.326-0.221-2.405c0-0.127,0.127-0.158,0.316-0.158
			c0.127,0,0.142,0.047,0.174,0.206c0.364,1.249,1.155,2.357,2.784,2.357C987.189,186.422,987.948,185.505,987.948,184.239z"/>
		<path d="M1004.302,175.395c0.585,0,0.728-0.395,0.981-0.395c0.095,0,0.111,0.063,0.269,0.601c0.522,1.804,0.696,2.104,0.696,2.152
			s-0.142,0.127-0.237,0.127c-0.111,0-0.158-0.016-0.221-0.111c-0.759-1.376-1.519-1.899-2.674-1.899h-1.93
			c-0.269,0-0.38,0.174-0.38,0.996v6.106c0,0.68,0.016,1.708,0.047,2.5c0.016,0.427,0.111,0.696,1.36,0.696
			c0.443,0,0.443,0.095,0.443,0.269c0,0.142,0,0.206-0.127,0.206c-0.111,0-0.174-0.032-2.516-0.032c-2.325,0-2.389,0.032-2.5,0.032
			c-0.127,0-0.127-0.063-0.127-0.206c0-0.174,0-0.269,0.443-0.269c1.249,0,1.344-0.269,1.36-0.696c0.032-0.791,0.047-1.82,0.047-2.5
			v-6.106c0-0.996-0.158-0.996-0.696-0.996h-1.724c-1.171,0-1.962,0.965-2.579,1.899c-0.063,0.095-0.127,0.095-0.269,0.095
			s-0.221-0.063-0.221-0.111s0.079-0.111,0.759-2.12c0.063-0.174,0.095-0.633,0.237-0.633c0.332,0,0.395,0.395,1.044,0.395H1004.302
			z"/>
		<path d="M1005.517,181.407c0-0.554-0.142-0.87-0.933-0.949c-0.127-0.016-0.142-0.079-0.142-0.19c0-0.127,0.047-0.206,0.127-0.221
			c1.804-0.364,2.025-0.775,2.215-0.775c0.032,0,0.063,0.095,0.063,0.158c0,0.19-0.079,0.585-0.079,1.439
			c0.522-0.585,1.376-1.376,2.215-1.376c0.554,0,1.012,0.3,1.012,0.886c0,0.411-0.316,0.791-0.775,0.791
			c-0.648,0-0.743-0.601-1.218-0.601c-0.269,0-0.696,0.237-1.091,0.68c-0.111,0.127-0.111,0.3-0.111,0.459v3.591
			c0,0.586,0,0.933,0.791,0.933c0.586,0,0.648,0.016,0.648,0.19c0,0.206-0.063,0.221-0.237,0.221c-0.569,0-1.075-0.032-1.804-0.032
			c-1.265,0-1.535,0.032-1.835,0.032c-0.111,0-0.142-0.095-0.142-0.206c0-0.158,0.19-0.206,0.49-0.206
			c0.68,0,0.807-0.127,0.807-0.807L1005.517,181.407L1005.517,181.407z"/>
		<path d="M1011.527,181.707c0-1.392-0.158-1.488-0.981-1.488c-0.127,0-0.348,0-0.348-0.158c0-0.127,0-0.316,0.174-0.316
			c0.158,0,0.411,0.047,0.933,0.047c0.554,0,1.155-0.047,1.376-0.047c0.095,0,0.127,0,0.127,0.221v4.272
			c0,1.186,0.38,1.867,1.55,1.867c0.569,0,1.567-0.348,1.567-0.838v-4.098c0-0.854-0.158-0.95-0.981-0.95
			c-0.285,0-0.506,0-0.506-0.158c0-0.237,0-0.316,0.111-0.316c0.221,0,0.411,0.047,1.376,0.047c0.395,0,0.807-0.047,1.203-0.047
			c0.142,0,0.221,0.063,0.221,0.221c0,0.063-0.142,1.281-0.142,2.405v2.974c0,0.253,0,0.585,0.395,0.585
			c0.221,0,0.569-0.063,0.68-0.063c0.063,0,0.095,0,0.095,0.3c0,0.095-0.016,0.127-0.522,0.206c-1.344,0.221-1.725,0.411-1.82,0.411
			c-0.111,0-0.19-0.111-0.19-0.221c0-0.19,0.032-0.443,0.047-0.601c-0.791,0.585-1.756,0.87-2.357,0.87
			c-1.567,0-2.009-1.012-2.009-2.658L1011.527,181.707L1011.527,181.707z"/>
		<path d="M1020.051,181.407c0-0.554-0.142-0.87-0.933-0.949c-0.127-0.016-0.142-0.079-0.142-0.19c0-0.127,0.047-0.206,0.127-0.221
			c1.804-0.364,2.025-0.775,2.215-0.775c0.032,0,0.047,0.047,0.047,0.174c0,0.095-0.032,0.443-0.032,1.06
			c0.411-0.316,1.914-1.012,2.784-1.012c0.775,0,1.328,0.38,1.724,1.028c0.854-0.506,1.471-1.028,2.421-1.028
			c0.538,0,2.088,0.079,2.088,1.93v4.209c0,0.269,0.047,0.569,1.028,0.569c0.158,0,0.158,0.095,0.158,0.206
			c0,0.095,0,0.206-0.221,0.206c-0.475,0-0.759-0.032-1.598-0.032c-1.281,0-1.535,0.032-1.661,0.032
			c-0.095,0-0.111-0.111-0.111-0.19s0.032-0.221,0.221-0.221c0.759,0,0.901-0.063,0.901-0.585v-4.098
			c0-0.206-0.126-1.298-1.613-1.298c-0.696,0-1.613,0.696-1.613,0.871v4.05c0,0.901,0.032,1.091,0.728,1.091
			c0.427,0,0.459,0.016,0.459,0.206c0,0.095,0,0.206-0.158,0.206c-0.079,0-0.285-0.032-1.661-0.032
			c-1.281,0-1.535,0.032-1.661,0.032c-0.095,0-0.111-0.111-0.111-0.19c0-0.079,0.032-0.221,0.221-0.221
			c0.759,0,0.902-0.063,0.902-0.617v-4.098c0-0.601-0.127-1.298-1.613-1.298c-0.696,0-1.613,0.696-1.613,0.871v4.05
			c0,0.901,0.032,1.091,0.727,1.091c0.427,0,0.459,0.016,0.459,0.206c0,0.095,0,0.206-0.158,0.206c-0.079,0-0.285-0.032-1.392-0.032
			c-1.487,0-1.74,0.032-1.977,0.032c-0.127,0-0.127-0.095-0.127-0.174c0-0.206,0.016-0.237,0.443-0.237
			c0.411,0,0.554-0.158,0.648-0.38c0.063-0.142,0.095-1.265,0.095-2.278L1020.051,181.407L1020.051,181.407z"/>
		<path d="M1037.322,185.758c0,0.253,0.111,0.316,0.269,0.316c0.316,0,0.553-0.364,0.68-0.364c0.079,0,0.206,0.111,0.206,0.174
			c0,0.19-1.028,0.949-1.582,0.949c-0.569,0-0.696-0.364-0.87-0.917c-0.933,0.727-1.377,0.917-2.041,0.917
			c-1.234,0-1.519-0.901-1.519-1.408c0-0.807,0.474-1.471,3.575-2.626v-1.439c0-0.823-0.949-1.25-1.328-1.25
			c-0.364,0-1.123,0.569-1.123,0.728c0,0.221,0.206,0.443,0.206,0.791c0,0.174-0.142,0.602-0.775,0.602
			c-0.538,0-0.664-0.411-0.664-0.586c0-0.427,0.111-0.633,1.298-1.424c1.187-0.775,1.361-0.791,1.709-0.791
			c0.506,0,1.961,0.38,1.961,1.819L1037.322,185.758L1037.322,185.758z M1036.04,183.416c0-0.079-0.047-0.158-0.111-0.158
			c-0.079,0-1.249,0.522-1.566,0.775c-0.443,0.332-0.522,0.569-0.522,1.155c0,0.49,0.206,0.981,0.743,0.981
			c0.601,0,1.455-0.554,1.455-0.839V183.416z"/>
		<path d="M1041.56,185.141c0,0.901,0.032,1.091,0.727,1.091c0.427,0,0.459,0.016,0.459,0.206c0,0.095,0,0.206-0.158,0.206
			c-0.079,0-0.285-0.032-1.392-0.032c-1.487,0-1.899,0.032-2.136,0.032c-0.126,0-0.126-0.095-0.126-0.174
			c0-0.206,0.016-0.237,0.601-0.237c0.411,0,0.554-0.158,0.648-0.38c0.063-0.142,0.095-1.265,0.095-2.278v-2.168
			c0-0.554-0.142-0.87-0.933-0.949c-0.127-0.016-0.142-0.079-0.142-0.19c0-0.127,0.047-0.206,0.127-0.221
			c1.804-0.364,2.025-0.775,2.215-0.775c0.032,0,0.047,0.047,0.047,0.174c0,0.095-0.032,0.443-0.032,1.139
			c0.823-0.554,1.629-1.092,2.484-1.092c0.538,0,2.088,0.111,2.088,2.373v3.797c0,0.269,0.047,0.569,1.028,0.569
			c0.158,0,0.158,0.095,0.158,0.206c0,0.095,0,0.206-0.221,0.206c-0.474,0-0.759-0.032-1.597-0.032
			c-1.281,0-1.535,0.032-1.661,0.032c-0.095,0-0.111-0.111-0.111-0.19c0-0.079,0.032-0.221,0.221-0.221
			c0.759,0,0.901-0.063,0.901-0.585v-2.832c0-1.471-0.127-2.452-1.772-2.452c-0.601,0-1.455,0.538-1.519,0.728v4.05H1041.56z"/>
	</g>
	<g>
		<path d="M945.523,205.932c0-1.79-0.955-2.578-4.296-4.344c-1.981-1.05-3.628-1.958-3.628-4.464s1.671-4.846,5.204-4.846
			c1.695,0,2.673,0.43,3.222,0.43c0.263,0,0.454-0.43,0.645-0.43c0.143,0,0.215,0.12,0.215,0.31c0,1.862,0.358,3.724,0.358,3.891
			c0,0.119-0.119,0.238-0.239,0.238c-0.263,0-0.358,0-0.406-0.143c-0.668-1.862-1.647-3.676-3.914-3.676
			c-1.671,0-3.151,1.17-3.151,3.031c0,1.599,0.979,2.292,1.862,2.864c2.745,1.743,6.397,2.506,6.397,6.087
			c0,3.509-2.53,4.965-5.777,4.965c-1.719,0-3.175-0.191-4.201-0.334c-0.167-0.024-0.191-0.048-0.215-0.286
			c-0.167-2.554-0.334-3.509-0.334-3.629c0-0.191,0.191-0.239,0.477-0.239c0.191,0,0.215,0.072,0.263,0.311
			c0.549,1.886,1.743,3.556,4.201,3.556C944.377,209.226,945.523,207.841,945.523,205.932z"/>
		<path d="M958.581,207.508c0.191-0.167,0.286-0.382,0.406-0.382c0.072,0,0.358,0.167,0.358,0.334c0,0.096-0.048,0.215-0.191,0.358
			c-1.217,1.385-2.602,2.029-4.177,2.029c-2.769,0-4.941-1.981-4.941-5.395c0-3.533,2.339-5.681,5.419-5.681
			c3.271,0,3.891,1.767,3.891,2.268c0,0.286-0.382,1.027-1.265,1.027c-0.764,0-0.859-0.239-1.122-1.552
			c-0.072-0.358-0.239-1.121-1.479-1.121c-1.504,0-3.366,1.146-3.366,5.06c0,1.074,0.406,4.058,4.058,4.058
			C957.054,208.51,958.104,207.913,958.581,207.508z"/>
		<path d="M963.929,200.203c1.241-0.836,2.292-1.432,3.747-1.432c0.812,0,3.151,0.167,3.151,3.58v5.729
			c0,0.406,0.072,0.859,1.552,0.859c0.239,0,0.239,0.144,0.239,0.311c0,0.143,0,0.31-0.334,0.31c-0.716,0-1.146-0.048-2.411-0.048
			c-1.934,0-2.316,0.048-2.506,0.048c-0.143,0-0.167-0.167-0.167-0.287c0-0.119,0.048-0.334,0.334-0.334
			c1.146,0,1.361-0.096,1.361-0.883v-4.273c0-2.22-0.191-3.7-2.674-3.7c-1.027,0-2.196,0.477-2.292,0.883v6.326
			c0,1.361,0.048,1.647,1.098,1.647c0.645,0,0.692,0.024,0.692,0.311c0,0.143,0,0.31-0.239,0.31c-0.119,0-0.43-0.048-2.1-0.048
			c-2.244,0-2.865,0.048-3.104,0.048c-0.191,0-0.191-0.143-0.191-0.263c0-0.31,0.024-0.358,0.907-0.358
			c0.501,0,0.716-0.238,0.859-0.572c0.096-0.215,0.143-3.365,0.143-4.392v-8.355c0-2.077-0.072-2.363-1.385-2.483
			c-0.143-0.024-0.215-0.119-0.215-0.286c0-0.191,0.072-0.31,0.191-0.334c1.934-0.334,3.08-1.027,3.318-1.027
			c0.096,0,0.143,0.119,0.143,0.263c0,0.096-0.119,0.334-0.119,3.438L963.929,200.203L963.929,200.203z"/>
		<path d="M979.446,209.847c-3.271,0-5.538-2.363-5.538-5.538c0-3.151,2.363-5.539,5.538-5.539c3.198,0,5.562,2.316,5.562,5.539
			C985.008,207.65,982.788,209.847,979.446,209.847z M979.446,199.392c-2.483,0-3.271,2.578-3.271,4.917
			c0,2.029,0.477,4.917,3.271,4.917c2.816,0,3.294-2.888,3.294-4.917C982.741,201.969,981.953,199.392,979.446,199.392z"/>
		<path d="M992.266,209.847c-3.271,0-5.538-2.363-5.538-5.538c0-3.151,2.363-5.539,5.538-5.539c3.198,0,5.562,2.316,5.562,5.539
			C997.828,207.65,995.608,209.847,992.266,209.847z M992.266,199.392c-2.483,0-3.271,2.578-3.271,4.917
			c0,2.029,0.477,4.917,3.271,4.917c2.816,0,3.294-2.888,3.294-4.917C995.56,201.969,994.772,199.392,992.266,199.392z"/>
		<path d="M1002.961,207.292c0,1.361,0.048,1.647,1.098,1.647c0.645,0,0.692,0.024,0.692,0.311c0,0.143,0,0.31-0.239,0.31
			c-0.119,0-0.43-0.048-2.1-0.048c-2.243,0-2.864,0.048-3.103,0.048c-0.191,0-0.191-0.143-0.191-0.263
			c0-0.31,0.024-0.358,0.907-0.358c0.501,0,0.716-0.238,0.859-0.572c0.096-0.215,0.143-3.365,0.143-4.392v-8.355
			c0-2.077-0.072-2.363-1.384-2.483c-0.143-0.024-0.215-0.119-0.215-0.286c0-0.191,0.072-0.31,0.191-0.334
			c1.934-0.334,3.08-1.027,3.318-1.027c0.095,0,0.143,0.119,0.143,0.263c0,0.096-0.119,0.334-0.119,3.438v12.102H1002.961z"/>
		<path d="M1017.905,209.847c-3.271,0-5.538-2.363-5.538-5.538c0-3.151,2.363-5.539,5.538-5.539c3.198,0,5.562,2.316,5.562,5.539
			C1023.467,207.65,1021.247,209.847,1017.905,209.847z M1017.905,199.392c-2.483,0-3.271,2.578-3.271,4.917
			c0,2.029,0.477,4.917,3.271,4.917c2.816,0,3.294-2.888,3.294-4.917C1021.199,201.969,1020.411,199.392,1017.905,199.392z"/>
		<path d="M1028.911,207.532c0,0.883,0,1.408,1.194,1.408c0.883,0,0.979,0.024,0.979,0.287c0,0.31-0.096,0.334-0.358,0.334
			c-0.859,0-1.623-0.048-2.722-0.048c-1.91,0-2.316,0.048-2.53,0.048c-0.167,0-0.215-0.143-0.215-0.31
			c0-0.239,0.048-0.311,0.501-0.311c1.027,0,1.218-0.19,1.218-1.217v-6.66c0-0.287,0-0.764-0.454-0.764h-1.312
			c-0.167,0-0.286,0-0.286-0.31c0-0.191,0.167-0.286,0.74-0.405c0.931-0.215,1.17-0.263,1.241-1.338
			c0.239-3.628,1.312-5.633,4.129-6.373c0.382-0.096,1.026-0.191,1.456-0.191c0.621,0,1.504,0.238,1.504,1.027
			c0,0.692-0.406,1.17-1.122,1.17c-0.215,0-0.74-0.072-1.312-0.549c-0.406-0.334-0.836-0.549-1.05-0.549
			c-1.361,0-1.599,1.981-1.599,3.462v3.08h2.96c0.167,0,0.239,0.167,0.239,0.501c0,0.31-0.143,0.597-0.645,0.597
			c-0.167,0-2.005-0.12-2.554-0.12L1028.911,207.532L1028.911,207.532z"/>
	</g>
	<g>
		<path d="M939.877,221.012c0-1.695-0.024-2.268-0.048-3.366c-0.024-1.408-0.43-1.599-2.149-1.599c-0.263,0-0.263-0.191-0.263-0.406
			c0-0.143,0.048-0.31,0.215-0.31c0.191,0,1.909,0.096,3.413,0.096c0.215,0,2.148-0.096,3.389-0.096
			c5.705,0,6.301,3.747,6.301,4.726c0,3.413-2.363,5.156-5.609,5.156c-0.955,0-1.91-0.048-2.888-0.239
			c0,3.796,0.024,4.464,0.048,5.18c0.048,0.954,0.191,1.528,2.65,1.528c0.668,0,0.668,0.143,0.668,0.406c0,0.214,0,0.31-0.191,0.31
			c-0.167,0-0.836-0.048-4.368-0.048c-3.509,0-3.605,0.048-3.772,0.048c-0.191,0-0.191-0.096-0.191-0.31
			c0-0.263,0-0.406,0.668-0.406c1.885,0,2.029-0.406,2.052-1.05c0.048-1.194,0.072-2.745,0.072-3.772L939.877,221.012
			L939.877,221.012z M942.24,223.59c0,0.548,0.143,0.907,1.361,0.907c2.602,0,4.559-1.504,4.559-4.249
			c0-2.458-1.576-4.201-3.914-4.201c-1.814,0-2.029,0-2.005,1.981L942.24,223.59L942.24,223.59z"/>
		<path d="M953.77,224.951c0-2.101-0.239-2.244-1.48-2.244c-0.191,0-0.525,0-0.525-0.239c0-0.191,0-0.477,0.263-0.477
			c0.239,0,0.621,0.072,1.409,0.072c0.836,0,1.742-0.072,2.076-0.072c0.143,0,0.191,0,0.191,0.334v6.445
			c0,1.79,0.573,2.817,2.34,2.817c0.859,0,2.363-0.525,2.363-1.265v-6.182c0-1.288-0.239-1.432-1.48-1.432
			c-0.43,0-0.764,0-0.764-0.239c0-0.358,0-0.477,0.167-0.477c0.334,0,0.621,0.072,2.077,0.072c0.597,0,1.217-0.072,1.814-0.072
			c0.215,0,0.334,0.096,0.334,0.334c0,0.096-0.215,1.934-0.215,3.629v4.487c0,0.382,0,0.883,0.597,0.883
			c0.334,0,0.859-0.096,1.027-0.096c0.096,0,0.143,0,0.143,0.454c0,0.143-0.024,0.191-0.788,0.31
			c-2.029,0.334-2.602,0.621-2.745,0.621c-0.167,0-0.286-0.167-0.286-0.334c0-0.286,0.048-0.668,0.072-0.907
			c-1.194,0.883-2.649,1.312-3.556,1.312c-2.363,0-3.031-1.528-3.031-4.01V224.951L953.77,224.951z"/>
		<path d="M968.5,222.588c0.859-0.764,1.599-1.122,2.888-1.122c2.34,0,5.037,1.504,5.037,5.562c0,4.082-2.913,5.657-5.108,5.657
			c-1.814,0-2.96-0.93-3.676-0.93c-0.621,0-0.597,0.692-0.931,0.692c-0.191,0-0.191-0.19-0.191-0.31
			c0-0.358,0.048-0.645,0.048-1.218v-12.46c0-2.077-0.072-2.363-1.384-2.483c-0.143-0.024-0.215-0.119-0.215-0.286
			c0-0.191,0.072-0.31,0.191-0.334c1.934-0.334,3.08-1.027,3.318-1.027c0.095,0,0.143,0.119,0.143,0.263
			c0,0.096-0.119,0.334-0.119,3.438V222.588z M968.5,228.889c0,1.981,0.74,3.175,2.626,3.175c2.625,0,3.031-2.602,3.031-4.703
			c0-1.718-0.263-5.18-3.175-5.18c-1.528,0-2.483,0.883-2.483,2.363L968.5,228.889L968.5,228.889z"/>
		<path d="M981.558,230.13c0,1.361,0.048,1.647,1.098,1.647c0.645,0,0.692,0.024,0.692,0.311c0,0.143,0,0.31-0.239,0.31
			c-0.119,0-0.43-0.048-2.1-0.048c-2.243,0-2.864,0.048-3.103,0.048c-0.191,0-0.191-0.143-0.191-0.263
			c0-0.31,0.024-0.358,0.907-0.358c0.501,0,0.716-0.238,0.859-0.572c0.096-0.215,0.143-3.365,0.143-4.392v-8.355
			c0-2.077-0.072-2.363-1.384-2.483c-0.143-0.024-0.215-0.119-0.215-0.286c0-0.191,0.072-0.31,0.191-0.334
			c1.934-0.334,3.08-1.027,3.318-1.027c0.095,0,0.143,0.119,0.143,0.263c0,0.096-0.119,0.334-0.119,3.438v12.102H981.558z"/>
		<path d="M988.195,230.13c0,1.361,0.048,1.647,1.098,1.647c0.525,0,0.573,0.024,0.573,0.311c0,0.143,0,0.31-0.239,0.31
			c-0.119,0-0.43-0.048-1.982-0.048c-2.243,0-2.864,0.048-3.222,0.048c-0.191,0-0.191-0.143-0.191-0.263
			c0-0.31,0.024-0.358,0.907-0.358c0.621,0,0.836-0.238,0.979-0.572c0.095-0.215,0.143-1.91,0.143-3.438v-3.271
			c0-0.836-0.215-1.312-1.409-1.432c-0.191-0.024-0.215-0.12-0.215-0.287c0-0.19,0.072-0.31,0.191-0.334
			c2.722-0.548,3.055-1.17,3.342-1.17c0.095,0,0.143,0.12,0.143,0.263c0,0.095-0.119,0.334-0.119,3.437L988.195,230.13
			L988.195,230.13z M985.975,216.692c0-0.645,0.525-1.265,1.241-1.265s1.241,0.621,1.241,1.265s-0.525,1.265-1.241,1.265
			S985.975,217.335,985.975,216.692z"/>
		<path d="M999.963,230.346c0.191-0.167,0.286-0.382,0.406-0.382c0.072,0,0.358,0.167,0.358,0.334c0,0.096-0.048,0.215-0.191,0.358
			c-1.217,1.385-2.602,2.029-4.177,2.029c-2.769,0-4.941-1.981-4.941-5.395c0-3.533,2.339-5.681,5.419-5.681
			c3.27,0,3.891,1.767,3.891,2.268c0,0.286-0.382,1.027-1.265,1.027c-0.764,0-0.859-0.239-1.122-1.552
			c-0.072-0.358-0.239-1.121-1.479-1.121c-1.504,0-3.366,1.146-3.366,5.06c0,1.074,0.406,4.058,4.058,4.058
			C998.435,231.348,999.486,230.751,999.963,230.346z"/>
		<path d="M1011.375,226.192c-0.692,0-0.788,0-0.979,0.501c-1.003,2.626-1.313,3.724-1.313,4.13c0,0.31,0,0.859,1.241,0.859
			c1.432,0,1.528,0.096,1.528,0.334c0,0.286-0.048,0.382-0.286,0.382c-0.191,0-0.501-0.048-3.342-0.048
			c-1.456,0-1.695,0.048-1.886,0.048c-0.119,0-0.167-0.12-0.167-0.406c0-0.191,0.239-0.31,0.883-0.31
			c0.454,0,0.907-0.286,1.218-1.218c1.456-4.225,3.294-9.381,5.609-15.157c0.072-0.215,0.167-0.215,0.454-0.215
			c0.215,0,0.286,0,0.406,0.287c0.167,0.405,4.153,11.338,5.824,15.157c0.382,0.883,0.883,1.146,1.814,1.146
			c0.215,0,0.716,0.072,0.716,0.263c0,0.167-0.048,0.454-0.263,0.454c-0.239,0-0.43-0.048-3.318-0.048
			c-3.222,0-3.389,0.048-3.556,0.048c-0.096,0-0.119-0.191-0.119-0.43c0-0.238,0.525-0.286,1.003-0.286
			c0.954,0,1.265-0.119,1.265-0.525c0-0.573-1.432-3.963-1.814-4.965h-4.917V226.192z M1015.982,225.404l-2.53-6.994h-0.048
			c-0.167,0-2.434,6.397-2.434,6.731c0,0.263,0.143,0.263,0.907,0.263L1015.982,225.404L1015.982,225.404z"/>
		<path d="M1026.964,230.369c0,0.883,0,1.408,1.194,1.408c0.883,0,0.979,0.024,0.979,0.287c0,0.31-0.096,0.334-0.358,0.334
			c-0.859,0-1.623-0.048-2.722-0.048c-1.91,0-2.316,0.048-2.53,0.048c-0.167,0-0.215-0.143-0.215-0.31
			c0-0.239,0.048-0.311,0.501-0.311c1.027,0,1.217-0.19,1.217-1.217v-6.66c0-0.287,0-0.764-0.453-0.764h-1.313
			c-0.167,0-0.286,0-0.286-0.31c0-0.191,0.167-0.286,0.74-0.405c0.931-0.215,1.17-0.263,1.241-1.338
			c0.239-3.628,1.312-5.633,4.129-6.373c0.382-0.096,1.026-0.191,1.456-0.191c0.621,0,1.504,0.238,1.504,1.027
			c0,0.692-0.406,1.17-1.122,1.17c-0.215,0-0.74-0.072-1.312-0.549c-0.406-0.334-0.836-0.549-1.05-0.549
			c-1.361,0-1.599,1.981-1.599,3.462v3.08h2.96c0.167,0,0.239,0.167,0.239,0.501c0,0.31-0.143,0.597-0.645,0.597
			c-0.167,0-2.005-0.12-2.554-0.12V230.369L1026.964,230.369z"/>
		<path d="M1034.484,230.369c0,0.883,0,1.408,1.194,1.408c0.883,0,0.979,0.024,0.979,0.287c0,0.31-0.096,0.334-0.358,0.334
			c-0.859,0-1.623-0.048-2.722-0.048c-1.91,0-2.316,0.048-2.531,0.048c-0.167,0-0.215-0.143-0.215-0.31
			c0-0.239,0.048-0.311,0.501-0.311c1.026,0,1.218-0.19,1.218-1.217v-6.66c0-0.287,0-0.764-0.454-0.764h-1.312
			c-0.167,0-0.286,0-0.286-0.31c0-0.191,0.167-0.286,0.74-0.405c0.931-0.215,1.17-0.263,1.241-1.338
			c0.239-3.628,1.312-5.633,4.129-6.373c0.382-0.096,1.027-0.191,1.456-0.191c0.621,0,1.504,0.238,1.504,1.027
			c0,0.692-0.406,1.17-1.122,1.17c-0.215,0-0.74-0.072-1.312-0.549c-0.406-0.334-0.835-0.549-1.05-0.549
			c-1.361,0-1.599,1.981-1.599,3.462v3.08h2.96c0.167,0,0.239,0.167,0.239,0.501c0,0.31-0.143,0.597-0.645,0.597
			c-0.167,0-2.005-0.12-2.554-0.12V230.369L1034.484,230.369z"/>
		<path d="M1045.775,231.062c0,0.381,0.167,0.477,0.406,0.477c0.477,0,0.836-0.549,1.026-0.549c0.119,0,0.31,0.167,0.31,0.263
			c0,0.287-1.552,1.432-2.387,1.432c-0.859,0-1.05-0.549-1.312-1.385c-1.409,1.098-2.077,1.385-3.08,1.385
			c-1.862,0-2.292-1.361-2.292-2.124c0-1.218,0.716-2.22,5.395-3.963v-2.172c0-1.241-1.432-1.886-2.005-1.886
			c-0.549,0-1.695,0.859-1.695,1.098c0,0.334,0.31,0.668,0.31,1.194c0,0.263-0.215,0.907-1.17,0.907
			c-0.812,0-1.003-0.621-1.003-0.883c0-0.645,0.167-0.954,1.958-2.148c1.79-1.17,2.053-1.194,2.578-1.194
			c0.764,0,2.96,0.572,2.96,2.745V231.062L1045.775,231.062z M1043.841,227.529c0-0.119-0.072-0.238-0.167-0.238
			c-0.119,0-1.885,0.788-2.363,1.17c-0.668,0.501-0.788,0.859-0.788,1.743c0,0.739,0.31,1.479,1.122,1.479
			c0.907,0,2.196-0.836,2.196-1.265L1043.841,227.529L1043.841,227.529z"/>
		<path d="M1052.292,230.13c0,1.361,0.048,1.647,1.098,1.647c0.525,0,0.573,0.024,0.573,0.311c0,0.143,0,0.31-0.239,0.31
			c-0.119,0-0.43-0.048-1.982-0.048c-2.243,0-2.864,0.048-3.222,0.048c-0.191,0-0.191-0.143-0.191-0.263
			c0-0.31,0.024-0.358,0.907-0.358c0.621,0,0.836-0.238,0.979-0.572c0.095-0.215,0.143-1.91,0.143-3.438v-3.271
			c0-0.836-0.215-1.312-1.408-1.432c-0.191-0.024-0.215-0.12-0.215-0.287c0-0.19,0.072-0.31,0.191-0.334
			c2.722-0.548,3.055-1.17,3.342-1.17c0.096,0,0.143,0.12,0.143,0.263c0,0.095-0.119,0.334-0.119,3.437L1052.292,230.13
			L1052.292,230.13z M1050.073,216.692c0-0.645,0.525-1.265,1.241-1.265s1.241,0.621,1.241,1.265s-0.525,1.265-1.241,1.265
			C1050.598,217.957,1050.073,217.335,1050.073,216.692z"/>
		<path d="M1056.995,224.497c0-0.836-0.215-1.312-1.408-1.432c-0.191-0.024-0.215-0.12-0.215-0.287c0-0.19,0.072-0.31,0.191-0.334
			c2.722-0.548,3.055-1.17,3.342-1.17c0.048,0,0.096,0.143,0.096,0.239c0,0.286-0.119,0.883-0.119,2.172
			c0.788-0.883,2.077-2.077,3.342-2.077c0.836,0,1.528,0.454,1.528,1.337c0,0.621-0.478,1.194-1.17,1.194
			c-0.979,0-1.122-0.907-1.838-0.907c-0.406,0-1.05,0.358-1.647,1.027c-0.167,0.191-0.167,0.454-0.167,0.692v5.419
			c0,0.883,0,1.408,1.194,1.408c0.883,0,0.979,0.024,0.979,0.287c0,0.31-0.095,0.334-0.358,0.334c-0.859,0-1.623-0.048-2.722-0.048
			c-1.909,0-2.315,0.048-2.769,0.048c-0.167,0-0.215-0.143-0.215-0.31c0-0.239,0.286-0.311,0.74-0.311
			c1.026,0,1.217-0.19,1.217-1.217L1056.995,224.497L1056.995,224.497z"/>
		<path d="M1071.891,229.438c0,1.17-0.621,3.247-3.891,3.247c-0.43,0-1.814-0.191-2.745-0.191c-0.048,0-0.119-0.071-0.119-0.119
			c-0.024-0.239-0.549-2.339-0.549-2.578c0-0.143,0.334-0.143,0.43-0.143c0.573,0,0.716,2.411,3.008,2.411
			c1.695,0,2.172-1.289,2.172-2.125c0-2.506-5.347-1.695-5.347-5.084c0-1.957,1.623-3.247,3.629-3.247
			c1.098,0,2.482,0.191,2.578,0.215c0.31,0.072,0.358,0.525,0.358,0.668c0.048,0.979,0.263,1.599,0.263,1.91
			c0,0.143-0.143,0.191-0.263,0.191c-0.215,0-0.358-0.024-0.477-0.334c-0.167-0.406-0.788-2.029-2.483-2.029
			c-1.122,0-1.91,0.645-1.91,1.79c0,0.836,0.597,1.337,1.122,1.599C1070.173,226.812,1071.891,226.741,1071.891,229.438z"/>
	</g>
</g>
</svg>
